SplineFontDB: 3.0
FontName: Muli
FullName: Muli
FamilyName: Muli
Weight: Book
Copyright: Copyright (c) 2011 by vernon adams. All rights reserved.
Version: 1.000
ItalicAngle: -12
UnderlinePosition: -119
UnderlineWidth: 119
Ascent: 1638
Descent: 410
sfntRevision: 0x00010000
LayerCount: 2
Layer: 0 1 "Back"  1
Layer: 1 1 "Fore"  0
XUID: [1021 759 1887733602 195447]
FSType: 0
OS2Version: 2
OS2_WeightWidthSlopeOnly: 0
OS2_UseTypoMetrics: 1
CreationTime: 1305549000
ModificationTime: 1305889284
PfmFamily: 17
TTFWeight: 400
TTFWidth: 5
LineGap: 0
VLineGap: 0
Panose: 2 0 5 3 4 0 0 2 0 4
OS2TypoAscent: 322
OS2TypoAOffset: 1
OS2TypoDescent: -215
OS2TypoDOffset: 1
OS2TypoLinegap: 0
OS2WinAscent: 0
OS2WinAOffset: 1
OS2WinDescent: 0
OS2WinDOffset: 1
HheadAscent: 0
HheadAOffset: 1
HheadDescent: 0
HheadDOffset: 1
OS2SubXSize: 2937
OS2SubYSize: 2726
OS2SubXOff: 0
OS2SubYOff: 580
OS2SupXSize: 2937
OS2SupYSize: 2726
OS2SupXOff: 0
OS2SupYOff: 2001
OS2StrikeYSize: 209
OS2StrikeYPos: 1049
OS2FamilyClass: 2053
OS2Vendor: 'newt'
OS2CodePages: 20000001.00000000
OS2UnicodeRanges: 800000ef.4000204b.00000000.00000000
Lookup: 258 0 0 "'kern' Horizontal Kerning lookup 0"  {"'kern' Horizontal Kerning lookup 0 subtable"  } ['kern' ('DFLT' <'dflt' > 'grek' <'dflt' > 'latn' <'dflt' > ) ]
MarkAttachClasses: 1
DEI: 91125
TtTable: prep
PUSHW_1
 0
CALL
SVTCA[y-axis]
PUSHW_3
 1
 5
 2
CALL
SVTCA[x-axis]
PUSHW_3
 6
 6
 2
CALL
SVTCA[x-axis]
PUSHW_8
 6
 67
 55
 43
 31
 19
 0
 8
CALL
PUSHW_8
 7
 76
 62
 49
 35
 21
 0
 8
CALL
PUSHW_8
 8
 63
 52
 41
 29
 18
 0
 8
CALL
PUSHW_8
 9
 66
 54
 42
 30
 18
 0
 8
CALL
PUSHW_8
 10
 72
 59
 46
 33
 20
 0
 8
CALL
PUSHW_8
 11
 52
 43
 34
 24
 15
 0
 8
CALL
SVTCA[y-axis]
PUSHW_8
 1
 83
 68
 53
 38
 23
 0
 8
CALL
PUSHW_8
 2
 92
 75
 59
 42
 25
 0
 8
CALL
PUSHW_8
 3
 77
 63
 49
 35
 21
 0
 8
CALL
PUSHW_8
 4
 85
 69
 54
 39
 23
 0
 8
CALL
PUSHW_8
 5
 54
 44
 35
 25
 15
 0
 8
CALL
SVTCA[y-axis]
PUSHW_3
 12
 10
 7
CALL
PUSHW_1
 0
DUP
RCVT
RDTG
ROUND[Black]
RTG
WCVTP
EndTTInstrs

StartChar: exclam
Encoding: 33 33 2
Width: 737
Flags: W
LayerCount: 2
Fore
SplineSet
260 183 m 1,0,-1
 474 183 l 1,1,-1
 474 -23 l 1,2,-1
 260 -23 l 1,3,-1
 260 183 l 1,0,-1
426 373 m 1,4,-1
 311 373 l 1,5,-1
 271 1451 l 1,6,-1
 466 1451 l 1,7,-1
 426 373 l 1,4,-1
EndSplineSet
EndChar

StartChar: quotedbl
Encoding: 34 34 3
Width: 720
Flags: W
LayerCount: 2
Fore
SplineSet
439 989 m 1,0,-1
 403 1451 l 1,1,-1
 587 1451 l 1,2,-1
 569 989 l 1,3,-1
 439 989 l 1,0,-1
150 989 m 1,4,-1
 114 1451 l 1,5,-1
 297 1451 l 1,6,-1
 281 989 l 1,7,-1
 150 989 l 1,4,-1
EndSplineSet
EndChar

StartChar: numbersign
Encoding: 35 35 4
Width: 1242
Flags: W
LayerCount: 2
Fore
SplineSet
1184 1010 m 1,0,-1
 1170 886 l 1,1,-1
 920 886 l 1,2,-1
 869 611 l 1,3,-1
 1121 611 l 1,4,-1
 1107 485 l 1,5,-1
 847 485 l 1,6,-1
 764 60 l 1,7,-1
 619 60 l 1,8,-1
 699 485 l 1,9,-1
 438 485 l 1,10,-1
 356 60 l 1,11,-1
 210 60 l 1,12,-1
 294 485 l 1,13,-1
 42 485 l 1,14,-1
 53 611 l 1,15,-1
 318 611 l 1,16,17
 330 681 330 681 342.5 748.5 c 128,-1,18
 355 816 355 816 368 886 c 1,19,-1
 107 886 l 1,20,-1
 120 1010 l 1,21,-1
 390 1010 l 1,22,-1
 469 1420 l 1,23,-1
 615 1420 l 1,24,-1
 538 1010 l 1,25,-1
 799 1010 l 1,26,-1
 875 1420 l 1,27,-1
 1021 1420 l 1,28,-1
 943 1010 l 1,29,-1
 1184 1010 l 1,0,-1
775 886 m 1,30,-1
 514 886 l 1,31,-1
 460 611 l 1,32,-1
 724 611 l 1,33,-1
 775 886 l 1,30,-1
EndSplineSet
EndChar

StartChar: dollar
Encoding: 36 36 5
Width: 1190
Flags: W
LayerCount: 2
Fore
SplineSet
534 1293 m 1,0,1
 487 1287 487 1287 449 1267 c 128,-1,2
 411 1247 411 1247 383.5 1216.5 c 128,-1,3
 356 1186 356 1186 341 1145.5 c 128,-1,4
 326 1105 326 1105 326 1059 c 0,5,6
 326 1008 326 1008 341.5 970.5 c 128,-1,7
 357 933 357 933 384.5 905 c 128,-1,8
 412 877 412 877 449.5 856 c 128,-1,9
 487 835 487 835 532 818 c 1,10,-1
 534 1293 l 1,0,1
251 223 m 1,11,12
 315 180 315 180 387.5 155 c 128,-1,13
 460 130 460 130 531 127 c 1,14,-1
 534 648 l 1,15,16
 453 684 453 684 381 719.5 c 128,-1,17
 309 755 309 755 255 799.5 c 128,-1,18
 201 844 201 844 169 903.5 c 128,-1,19
 137 963 137 963 137 1047 c 0,20,21
 137 1126 137 1126 170.5 1194.5 c 128,-1,22
 204 1263 204 1263 259 1315 c 128,-1,23
 314 1367 314 1367 385.5 1399 c 128,-1,24
 457 1431 457 1431 534 1437 c 1,25,-1
 530 1575 l 1,26,-1
 654 1575 l 1,27,-1
 657 1439 l 1,28,29
 757 1437 757 1437 845 1408.5 c 128,-1,30
 933 1380 933 1380 997 1326 c 1,31,-1
 948 1198 l 1,32,33
 891 1249 891 1249 817 1272.5 c 128,-1,34
 743 1296 743 1296 658 1299 c 1,35,-1
 656 770 l 1,36,37
 761 729 761 729 840 690 c 128,-1,38
 919 651 919 651 972.5 604.5 c 128,-1,39
 1026 558 1026 558 1053 499.5 c 128,-1,40
 1080 441 1080 441 1080 361 c 0,41,42
 1080 278 1080 278 1046 212 c 128,-1,43
 1012 146 1012 146 954 99 c 128,-1,44
 896 52 896 52 819 24 c 128,-1,45
 742 -4 742 -4 656 -11 c 1,46,-1
 659 -172 l 1,47,-1
 536 -172 l 1,48,-1
 532 -16 l 1,49,50
 441 -14 441 -14 359 10.5 c 128,-1,51
 277 35 277 35 202 89 c 1,52,-1
 251 223 l 1,11,12
654 131 m 1,53,54
 704 138 704 138 749 156 c 128,-1,55
 794 174 794 174 827.5 202.5 c 128,-1,56
 861 231 861 231 881 270 c 128,-1,57
 901 309 901 309 901 358 c 0,58,59
 901 405 901 405 883 441 c 128,-1,60
 865 477 865 477 832.5 506 c 128,-1,61
 800 535 800 535 755.5 559 c 128,-1,62
 711 583 711 583 658 605 c 1,63,-1
 654 131 l 1,53,54
EndSplineSet
EndChar

StartChar: percent
Encoding: 37 37 6
Width: 1985
Flags: W
LayerCount: 2
Fore
SplineSet
1454 622 m 0,0,1
 1398 622 1398 622 1358 599 c 128,-1,2
 1318 576 1318 576 1292 538 c 128,-1,3
 1266 500 1266 500 1253.5 451 c 128,-1,4
 1241 402 1241 402 1241 350 c 0,5,6
 1241 296 1241 296 1253.5 248 c 128,-1,7
 1266 200 1266 200 1292.5 164 c 128,-1,8
 1319 128 1319 128 1358.5 107 c 128,-1,9
 1398 86 1398 86 1452 86 c 256,10,11
 1506 86 1506 86 1546 108.5 c 128,-1,12
 1586 131 1586 131 1611.5 169 c 128,-1,13
 1637 207 1637 207 1649.5 255.5 c 128,-1,14
 1662 304 1662 304 1662 357 c 0,15,16
 1662 412 1662 412 1649.5 460 c 128,-1,17
 1637 508 1637 508 1611.5 544 c 128,-1,18
 1586 580 1586 580 1547 601 c 128,-1,19
 1508 622 1508 622 1454 622 c 0,0,1
1455 735 m 0,20,21
 1539 735 1539 735 1604.5 706.5 c 128,-1,22
 1670 678 1670 678 1715 627.5 c 128,-1,23
 1760 577 1760 577 1783 507.5 c 128,-1,24
 1806 438 1806 438 1806 356 c 0,25,26
 1806 276 1806 276 1781 206.5 c 128,-1,27
 1756 137 1756 137 1709.5 85 c 128,-1,28
 1663 33 1663 33 1597 3 c 128,-1,29
 1531 -27 1531 -27 1449 -27 c 0,30,31
 1366 -27 1366 -27 1300.5 2 c 128,-1,32
 1235 31 1235 31 1190 82 c 128,-1,33
 1145 133 1145 133 1121 202 c 128,-1,34
 1097 271 1097 271 1097 351 c 0,35,36
 1097 432 1097 432 1122 502 c 128,-1,37
 1147 572 1147 572 1193.5 623.5 c 128,-1,38
 1240 675 1240 675 1306 705 c 128,-1,39
 1372 735 1372 735 1455 735 c 0,20,21
526 1447 m 0,40,41
 610 1447 610 1447 675.5 1418.5 c 128,-1,42
 741 1390 741 1390 786 1339.5 c 128,-1,43
 831 1289 831 1289 854 1219.5 c 128,-1,44
 877 1150 877 1150 877 1068 c 0,45,46
 877 988 877 988 852 918.5 c 128,-1,47
 827 849 827 849 780.5 797.5 c 128,-1,48
 734 746 734 746 668 716 c 128,-1,49
 602 686 602 686 520 686 c 0,50,51
 436 686 436 686 370.5 715 c 128,-1,52
 305 744 305 744 260 795 c 128,-1,53
 215 846 215 846 191.5 915 c 128,-1,54
 168 984 168 984 168 1064 c 0,55,56
 168 1145 168 1145 193 1214.5 c 128,-1,57
 218 1284 218 1284 264.5 1336 c 128,-1,58
 311 1388 311 1388 377 1417.5 c 128,-1,59
 443 1447 443 1447 526 1447 c 0,40,41
1344 1436 m 1,60,-1
 1499 1436 l 1,61,-1
 594 -5 l 1,62,-1
 440 -5 l 1,63,-1
 1344 1436 l 1,60,-1
525 1335 m 0,64,65
 470 1335 470 1335 430 1312.5 c 128,-1,66
 390 1290 390 1290 363.5 1252.5 c 128,-1,67
 337 1215 337 1215 324.5 1166 c 128,-1,68
 312 1117 312 1117 312 1065 c 0,69,70
 312 1010 312 1010 325 961.5 c 128,-1,71
 338 913 338 913 364 877 c 128,-1,72
 390 841 390 841 430 820 c 128,-1,73
 470 799 470 799 524 799 c 256,74,75
 578 799 578 799 617.5 821.5 c 128,-1,76
 657 844 657 844 683 881.5 c 128,-1,77
 709 919 709 919 721.5 967.5 c 128,-1,78
 734 1016 734 1016 734 1069 c 0,79,80
 734 1124 734 1124 721.5 1172.5 c 128,-1,81
 709 1221 709 1221 683 1257 c 128,-1,82
 657 1293 657 1293 617.5 1314 c 128,-1,83
 578 1335 578 1335 525 1335 c 0,64,65
EndSplineSet
EndChar

StartChar: ampersand
Encoding: 38 38 7
Width: 1647
Flags: W
LayerCount: 2
Fore
SplineSet
115 402 m 0,0,1
 115 486 115 486 147.5 552 c 128,-1,2
 180 618 180 618 233 672 c 128,-1,3
 286 726 286 726 354 770 c 128,-1,4
 422 814 422 814 494 852 c 1,5,-1
 479 867 l 2,6,7
 446 900 446 900 413.5 934 c 128,-1,8
 381 968 381 968 355.5 1005.5 c 128,-1,9
 330 1043 330 1043 314.5 1086.5 c 128,-1,10
 299 1130 299 1130 299 1182 c 0,11,12
 299 1254 299 1254 327.5 1308.5 c 128,-1,13
 356 1363 356 1363 405.5 1399.5 c 128,-1,14
 455 1436 455 1436 520.5 1454.5 c 128,-1,15
 586 1473 586 1473 661 1473 c 0,16,17
 731 1473 731 1473 798.5 1456 c 128,-1,18
 866 1439 866 1439 918.5 1403.5 c 128,-1,19
 971 1368 971 1368 1003.5 1314.5 c 128,-1,20
 1036 1261 1036 1261 1036 1188 c 0,21,22
 1036 1128 1036 1128 1010.5 1075.5 c 128,-1,23
 985 1023 985 1023 942.5 977.5 c 128,-1,24
 900 932 900 932 844.5 893 c 128,-1,25
 789 854 789 854 729 822 c 1,26,-1
 1139 409 l 1,27,28
 1173 461 1173 461 1201 525 c 128,-1,29
 1229 589 1229 589 1249 657.5 c 128,-1,30
 1269 726 1269 726 1280 797 c 128,-1,31
 1291 868 1291 868 1291 935 c 0,32,33
 1291 973 1291 973 1288 995 c 128,-1,34
 1285 1017 1285 1017 1283 1032 c 1,35,-1
 1456 1032 l 1,36,37
 1463 938 1463 938 1452.5 839 c 128,-1,38
 1442 740 1442 740 1416 644 c 128,-1,39
 1390 548 1390 548 1349.5 459 c 128,-1,40
 1309 370 1309 370 1255 295 c 1,41,42
 1300 249 1300 249 1338.5 215.5 c 128,-1,43
 1377 182 1377 182 1418 157.5 c 128,-1,44
 1459 133 1459 133 1507 116 c 128,-1,45
 1555 99 1555 99 1618 86 c 1,46,-1
 1486 -12 l 1,47,48
 1439 -5 1439 -5 1400.5 10.5 c 128,-1,49
 1362 26 1362 26 1325 50.5 c 128,-1,50
 1288 75 1288 75 1250 108.5 c 128,-1,51
 1212 142 1212 142 1166 186 c 1,52,53
 1121 142 1121 142 1068 103 c 128,-1,54
 1015 64 1015 64 952.5 35 c 128,-1,55
 890 6 890 6 817.5 -10.5 c 128,-1,56
 745 -27 745 -27 661 -27 c 0,57,58
 544 -27 544 -27 444.5 2 c 128,-1,59
 345 31 345 31 271.5 86 c 128,-1,60
 198 141 198 141 156.5 220.5 c 128,-1,61
 115 300 115 300 115 402 c 0,0,1
1058 291 m 1,62,63
 1056 292 1056 292 1035.5 312 c 128,-1,64
 1015 332 1015 332 982 365 c 128,-1,65
 949 398 949 398 907.5 439 c 128,-1,66
 866 480 866 480 823 523 c 2,67,-1
 594 750 l 1,68,69
 537 721 537 721 483 688 c 128,-1,70
 429 655 429 655 387 614 c 128,-1,71
 345 573 345 573 320 521.5 c 128,-1,72
 295 470 295 470 295 406 c 0,73,74
 295 343 295 343 322 290 c 128,-1,75
 349 237 349 237 397 198.5 c 128,-1,76
 445 160 445 160 511.5 138 c 128,-1,77
 578 116 578 116 658 116 c 0,78,79
 726 116 726 116 783 129.5 c 128,-1,80
 840 143 840 143 888.5 166.5 c 128,-1,81
 937 190 937 190 978.5 222 c 128,-1,82
 1020 254 1020 254 1058 291 c 1,62,63
625 918 m 1,83,84
 670 942 670 942 713.5 970 c 128,-1,85
 757 998 757 998 790.5 1030 c 128,-1,86
 824 1062 824 1062 844.5 1098.5 c 128,-1,87
 865 1135 865 1135 865 1178 c 256,88,89
 865 1221 865 1221 847.5 1252 c 128,-1,90
 830 1283 830 1283 802 1302.5 c 128,-1,91
 774 1322 774 1322 739 1331 c 128,-1,92
 704 1340 704 1340 669 1340 c 0,93,94
 628 1340 628 1340 592.5 1330 c 128,-1,95
 557 1320 557 1320 530 1299.5 c 128,-1,96
 503 1279 503 1279 487.5 1248.5 c 128,-1,97
 472 1218 472 1218 472 1178 c 0,98,99
 472 1140 472 1140 483 1106 c 128,-1,100
 494 1072 494 1072 514.5 1040.5 c 128,-1,101
 535 1009 535 1009 563 979 c 128,-1,102
 591 949 591 949 625 918 c 1,83,84
EndSplineSet
EndChar

StartChar: quotesingle
Encoding: 39 39 8
Width: 554
Flags: W
LayerCount: 2
Fore
SplineSet
212 989 m 1,0,-1
 176 1451 l 1,1,-1
 360 1451 l 1,2,-1
 342 989 l 1,3,-1
 212 989 l 1,0,-1
EndSplineSet
EndChar

StartChar: parenleft
Encoding: 40 40 9
Width: 628
Flags: W
LayerCount: 2
Fore
SplineSet
433 -259 m 1,0,1
 375 -170 375 -170 324 -70 c 128,-1,2
 273 30 273 30 235 138 c 128,-1,3
 197 246 197 246 175 359 c 128,-1,4
 153 472 153 472 153 587 c 0,5,6
 153 707 153 707 173 819.5 c 128,-1,7
 193 932 193 932 229 1039.5 c 128,-1,8
 265 1147 265 1147 316 1249.5 c 128,-1,9
 367 1352 367 1352 430 1451 c 1,10,-1
 578 1451 l 1,11,12
 452 1250 452 1250 384 1034 c 128,-1,13
 316 818 316 818 316 590 c 0,14,15
 316 485 316 485 334.5 374.5 c 128,-1,16
 353 264 353 264 387.5 154.5 c 128,-1,17
 422 45 422 45 470.5 -60 c 128,-1,18
 519 -165 519 -165 579 -259 c 1,19,-1
 433 -259 l 1,0,1
EndSplineSet
EndChar

StartChar: parenright
Encoding: 41 41 10
Width: 628
Flags: W
LayerCount: 2
Fore
SplineSet
56 -259 m 1,0,1
 113 -168 113 -168 160.5 -66.5 c 128,-1,2
 208 35 208 35 242.5 143.5 c 128,-1,3
 277 252 277 252 296 368 c 128,-1,4
 315 484 315 484 315 604 c 0,5,6
 315 704 315 704 297.5 812 c 128,-1,7
 280 920 280 920 246.5 1029 c 128,-1,8
 213 1138 213 1138 164 1245 c 128,-1,9
 115 1352 115 1352 52 1451 c 1,10,-1
 199 1451 l 1,11,12
 258 1359 258 1359 309.5 1257.5 c 128,-1,13
 361 1156 361 1156 398.5 1047.5 c 128,-1,14
 436 939 436 939 457.5 826 c 128,-1,15
 479 713 479 713 479 598 c 0,16,17
 479 477 479 477 459 364.5 c 128,-1,18
 439 252 439 252 403 145.5 c 128,-1,19
 367 39 367 39 316.5 -62 c 128,-1,20
 266 -163 266 -163 205 -259 c 1,21,-1
 56 -259 l 1,0,1
EndSplineSet
EndChar

StartChar: asterisk
Encoding: 42 42 11
Width: 1065
Flags: W
LayerCount: 2
Fore
SplineSet
581 1153 m 1,0,-1
 816 1274 l 1,1,-1
 880 1149 l 1,2,-1
 617 1061 l 1,3,-1
 818 810 l 1,4,-1
 692 737 l 1,5,-1
 534 1003 l 1,6,-1
 381 745 l 1,7,-1
 257 820 l 1,8,-1
 448 1058 l 1,9,-1
 175 1136 l 1,10,-1
 196 1271 l 1,11,-1
 480 1148 l 1,12,13
 470 1223 470 1223 459.5 1299.5 c 128,-1,14
 449 1376 449 1376 439 1451 c 1,15,-1
 588 1451 l 1,16,-1
 581 1153 l 1,0,-1
EndSplineSet
EndChar

StartChar: plus
Encoding: 43 43 12
Width: 1458
Flags: W
LayerCount: 2
Fore
SplineSet
646 624 m 1,0,-1
 649 1047 l 1,1,-1
 799 1047 l 1,2,-1
 797 624 l 1,3,-1
 1245 624 l 1,4,-1
 1246 485 l 1,5,-1
 798 485 l 1,6,-1
 795 62 l 1,7,-1
 644 62 l 1,8,-1
 646 485 l 1,9,-1
 200 485 l 1,10,-1
 198 624 l 1,11,-1
 646 624 l 1,0,-1
EndSplineSet
EndChar

StartChar: comma
Encoding: 44 44 13
Width: 540
Flags: W
LayerCount: 2
Fore
SplineSet
185 207 m 1,0,-1
 372 207 l 1,1,-1
 209 -256 l 1,2,-1
 78 -256 l 1,3,-1
 185 207 l 1,0,-1
EndSplineSet
EndChar

StartChar: hyphen
Encoding: 45 45 14
Width: 728
Flags: W
LayerCount: 2
Fore
SplineSet
80 489 m 1,0,-1
 79 626 l 1,1,-1
 650 626 l 1,2,-1
 651 489 l 1,3,-1
 80 489 l 1,0,-1
EndSplineSet
EndChar

StartChar: period
Encoding: 46 46 15
Width: 540
Flags: W
LayerCount: 2
Fore
SplineSet
376 -11 m 1,0,-1
 159 -11 l 1,1,-1
 159 199 l 1,2,-1
 376 199 l 1,3,-1
 376 -11 l 1,0,-1
EndSplineSet
EndChar

StartChar: slash
Encoding: 47 47 16
Width: 717
Flags: W
LayerCount: 2
Fore
SplineSet
-47 -215 m 1,0,-1
 590 1451 l 1,1,-1
 757 1451 l 1,2,-1
 116 -215 l 1,3,-1
 -47 -215 l 1,0,-1
EndSplineSet
EndChar

StartChar: zero
Encoding: 48 48 17
Width: 1190
Flags: W
LayerCount: 2
Fore
SplineSet
596 1453 m 0,0,1
 738 1453 738 1453 834.5 1396.5 c 128,-1,2
 931 1340 931 1340 990 1239 c 128,-1,3
 1049 1138 1049 1138 1074 998.5 c 128,-1,4
 1099 859 1099 859 1099 694 c 0,5,6
 1099 532 1099 532 1066 399.5 c 128,-1,7
 1033 267 1033 267 968 173.5 c 128,-1,8
 903 80 903 80 807.5 28.5 c 128,-1,9
 712 -23 712 -23 586 -23 c 0,10,11
 453 -23 453 -23 358.5 31.5 c 128,-1,12
 264 86 264 86 204 184 c 128,-1,13
 144 282 144 282 116 417.5 c 128,-1,14
 88 553 88 553 88 715 c 0,15,16
 88 886 88 886 120.5 1023 c 128,-1,17
 153 1160 153 1160 217.5 1255.5 c 128,-1,18
 282 1351 282 1351 376.5 1402 c 128,-1,19
 471 1453 471 1453 596 1453 c 0,0,1
592 1312 m 0,20,21
 509 1312 509 1312 448 1269 c 128,-1,22
 387 1226 387 1226 346.5 1148.5 c 128,-1,23
 306 1071 306 1071 286 963.5 c 128,-1,24
 266 856 266 856 266 727 c 0,25,26
 266 657 266 657 271 585 c 128,-1,27
 276 513 276 513 289.5 445.5 c 128,-1,28
 303 378 303 378 326.5 318.5 c 128,-1,29
 350 259 350 259 386.5 214.5 c 128,-1,30
 423 170 423 170 474 144.5 c 128,-1,31
 525 119 525 119 594 119 c 0,32,33
 676 119 676 119 736.5 161.5 c 128,-1,34
 797 204 797 204 836.5 280 c 128,-1,35
 876 356 876 356 895.5 461.5 c 128,-1,36
 915 567 915 567 915 693 c 0,37,38
 915 761 915 761 910.5 833 c 128,-1,39
 906 905 906 905 893 974 c 128,-1,40
 880 1043 880 1043 857.5 1104.5 c 128,-1,41
 835 1166 835 1166 799 1212 c 128,-1,42
 763 1258 763 1258 712 1285 c 128,-1,43
 661 1312 661 1312 592 1312 c 0,20,21
EndSplineSet
EndChar

StartChar: one
Encoding: 49 49 18
Width: 1190
Flags: W
LayerCount: 2
Fore
SplineSet
273 1269 m 1,0,1
 350 1296 350 1296 421 1332.5 c 128,-1,2
 492 1369 492 1369 559 1411 c 1,3,-1
 724 1438 l 1,4,-1
 724 143 l 1,5,-1
 941 143 l 1,6,-1
 941 0 l 1,7,-1
 333 0 l 1,8,-1
 333 143 l 1,9,-1
 552 143 l 1,10,-1
 552 1245 l 1,11,12
 485 1207 485 1207 417.5 1175 c 128,-1,13
 350 1143 350 1143 273 1113 c 1,14,-1
 273 1269 l 1,0,1
EndSplineSet
EndChar

StartChar: two
Encoding: 50 50 19
Width: 1190
Flags: W
LayerCount: 2
Fore
SplineSet
1035 0 m 1,0,-1
 99 0 l 1,1,-1
 98 147 l 1,2,3
 168 214 168 214 252 291 c 128,-1,4
 336 368 336 368 420 449.5 c 128,-1,5
 504 531 504 531 583 615 c 128,-1,6
 662 699 662 699 723 779.5 c 128,-1,7
 784 860 784 860 820.5 934 c 128,-1,8
 857 1008 857 1008 857 1071 c 0,9,10
 857 1123 857 1123 837 1166.5 c 128,-1,11
 817 1210 817 1210 779.5 1241 c 128,-1,12
 742 1272 742 1272 689.5 1289.5 c 128,-1,13
 637 1307 637 1307 573 1307 c 0,14,15
 515 1307 515 1307 462.5 1291 c 128,-1,16
 410 1275 410 1275 366 1245.5 c 128,-1,17
 322 1216 322 1216 287.5 1173.5 c 128,-1,18
 253 1131 253 1131 230 1078 c 1,19,-1
 133 1175 l 1,20,21
 157 1239 157 1239 200.5 1289.5 c 128,-1,22
 244 1340 244 1340 303 1375.5 c 128,-1,23
 362 1411 362 1411 433 1429.5 c 128,-1,24
 504 1448 504 1448 584 1448 c 0,25,26
 681 1448 681 1448 763 1422 c 128,-1,27
 845 1396 845 1396 905 1348 c 128,-1,28
 965 1300 965 1300 998.5 1231.5 c 128,-1,29
 1032 1163 1032 1163 1032 1078 c 0,30,31
 1032 988 1032 988 987.5 895 c 128,-1,32
 943 802 943 802 868.5 707 c 128,-1,33
 794 612 794 612 695.5 515 c 128,-1,34
 597 418 597 418 489 319 c 0,35,36
 442 276 442 276 397.5 234.5 c 128,-1,37
 353 193 353 193 305 145 c 1,38,-1
 1035 145 l 1,39,-1
 1035 0 l 1,0,-1
EndSplineSet
EndChar

StartChar: three
Encoding: 51 51 20
Width: 1190
Flags: W
LayerCount: 2
Fore
SplineSet
383 814 m 1,0,1
 398 813 398 813 415 813 c 128,-1,2
 432 813 432 813 446 813 c 0,3,4
 534 813 534 813 604.5 826.5 c 128,-1,5
 675 840 675 840 724 872 c 128,-1,6
 773 904 773 904 799.5 956 c 128,-1,7
 826 1008 826 1008 826 1085 c 0,8,9
 826 1142 826 1142 805 1183.5 c 128,-1,10
 784 1225 784 1225 746.5 1252 c 128,-1,11
 709 1279 709 1279 657 1292.5 c 128,-1,12
 605 1306 605 1306 544 1306 c 0,13,14
 438 1306 438 1306 355 1262 c 128,-1,15
 272 1218 272 1218 219 1128 c 1,16,-1
 121 1217 l 1,17,18
 143 1271 143 1271 185 1314 c 128,-1,19
 227 1357 227 1357 283.5 1387 c 128,-1,20
 340 1417 340 1417 408 1433 c 128,-1,21
 476 1449 476 1449 550 1449 c 0,22,23
 638 1449 638 1449 721 1425.5 c 128,-1,24
 804 1402 804 1402 868 1356 c 128,-1,25
 932 1310 932 1310 971 1242 c 128,-1,26
 1010 1174 1010 1174 1010 1086 c 0,27,28
 1010 1020 1010 1020 989 965.5 c 128,-1,29
 968 911 968 911 930 868 c 128,-1,30
 892 825 892 825 839 794.5 c 128,-1,31
 786 764 786 764 721 746 c 1,32,-1
 731 744 l 2,33,34
 801 730 801 730 859.5 700 c 128,-1,35
 918 670 918 670 960 625 c 128,-1,36
 1002 580 1002 580 1025.5 521.5 c 128,-1,37
 1049 463 1049 463 1049 391 c 0,38,39
 1049 295 1049 295 1006.5 218 c 128,-1,40
 964 141 964 141 891 87.5 c 128,-1,41
 818 34 818 34 722 5.5 c 128,-1,42
 626 -23 626 -23 519 -23 c 0,43,44
 441 -23 441 -23 372.5 -7.5 c 128,-1,45
 304 8 304 8 250 39 c 128,-1,46
 196 70 196 70 159 116 c 128,-1,47
 122 162 122 162 108 223 c 1,48,-1
 191 324 l 1,49,50
 210 274 210 274 243 236 c 128,-1,51
 276 198 276 198 320 172 c 128,-1,52
 364 146 364 146 417 132.5 c 128,-1,53
 470 119 470 119 528 119 c 0,54,55
 600 119 600 119 662.5 138 c 128,-1,56
 725 157 725 157 771.5 192 c 128,-1,57
 818 227 818 227 844.5 278 c 128,-1,58
 871 329 871 329 871 394 c 0,59,60
 871 469 871 469 842.5 522 c 128,-1,61
 814 575 814 575 761 608.5 c 128,-1,62
 708 642 708 642 632 657 c 128,-1,63
 556 672 556 672 462 672 c 0,64,65
 445 672 445 672 423.5 671.5 c 128,-1,66
 402 671 402 671 385 670 c 1,67,-1
 383 814 l 1,0,1
EndSplineSet
EndChar

StartChar: four
Encoding: 52 52 21
Width: 1189
Flags: W
LayerCount: 2
Fore
SplineSet
726 0 m 1,0,-1
 726 351 l 1,1,-1
 25 351 l 1,2,-1
 25 475 l 1,3,-1
 690 1420 l 1,4,-1
 898 1420 l 1,5,-1
 898 483 l 1,6,-1
 1112 483 l 1,7,-1
 1112 351 l 1,8,-1
 898 351 l 1,9,-1
 898 0 l 1,10,-1
 726 0 l 1,0,-1
726 483 m 1,11,-1
 726 1292 l 1,12,-1
 638 1146 l 1,13,-1
 196 483 l 1,14,-1
 726 483 l 1,11,-1
EndSplineSet
EndChar

StartChar: five
Encoding: 53 53 22
Width: 1190
Flags: W
LayerCount: 2
Fore
SplineSet
228 289 m 1,0,1
 288 202 288 202 370 160.5 c 128,-1,2
 452 119 452 119 546 119 c 0,3,4
 629 119 629 119 693.5 145.5 c 128,-1,5
 758 172 758 172 802 217.5 c 128,-1,6
 846 263 846 263 868.5 323.5 c 128,-1,7
 891 384 891 384 891 452 c 0,8,9
 891 516 891 516 871.5 571.5 c 128,-1,10
 852 627 852 627 814.5 668.5 c 128,-1,11
 777 710 777 710 721 734 c 128,-1,12
 665 758 665 758 593 758 c 0,13,14
 523 758 523 758 467 732 c 128,-1,15
 411 706 411 706 379 658 c 1,16,-1
 203 652 l 1,17,-1
 203 1425 l 1,18,-1
 994 1425 l 1,19,-1
 994 1280 l 1,20,-1
 366 1280 l 1,21,-1
 352 839 l 1,22,23
 409 872 409 872 469.5 888.5 c 128,-1,24
 530 905 530 905 599 905 c 0,25,26
 708 905 708 905 795 870.5 c 128,-1,27
 882 836 882 836 942.5 775 c 128,-1,28
 1003 714 1003 714 1035.5 630.5 c 128,-1,29
 1068 547 1068 547 1068 449 c 0,30,31
 1068 349 1068 349 1032 263 c 128,-1,32
 996 177 996 177 929 113.5 c 128,-1,33
 862 50 862 50 765.5 13.5 c 128,-1,34
 669 -23 669 -23 548 -23 c 0,35,36
 488 -23 488 -23 430 -11.5 c 128,-1,37
 372 0 372 0 320 24 c 128,-1,38
 268 48 268 48 224 85 c 128,-1,39
 180 122 180 122 147 173 c 1,40,-1
 228 289 l 1,0,1
EndSplineSet
EndChar

StartChar: six
Encoding: 54 54 23
Width: 1190
Flags: W
LayerCount: 2
Fore
SplineSet
944 1201 m 1,0,1
 894 1255 894 1255 826.5 1283.5 c 128,-1,2
 759 1312 759 1312 675 1312 c 0,3,4
 606 1312 606 1312 549 1289 c 128,-1,5
 492 1266 492 1266 447 1225.5 c 128,-1,6
 402 1185 402 1185 369 1129 c 128,-1,7
 336 1073 336 1073 314.5 1008 c 128,-1,8
 293 943 293 943 282.5 870.5 c 128,-1,9
 272 798 272 798 272 724 c 1,10,11
 299 773 299 773 337.5 809 c 128,-1,12
 376 845 376 845 424 868.5 c 128,-1,13
 472 892 472 892 528 903 c 128,-1,14
 584 914 584 914 645 914 c 0,15,16
 748 914 748 914 832 882 c 128,-1,17
 916 850 916 850 975 790 c 128,-1,18
 1034 730 1034 730 1066 645 c 128,-1,19
 1098 560 1098 560 1098 454 c 0,20,21
 1098 352 1098 352 1063.5 265 c 128,-1,22
 1029 178 1029 178 966 114 c 128,-1,23
 903 50 903 50 813 13.5 c 128,-1,24
 723 -23 723 -23 612 -23 c 0,25,26
 481 -23 481 -23 383.5 28 c 128,-1,27
 286 79 286 79 221 171.5 c 128,-1,28
 156 264 156 264 124 393 c 128,-1,29
 92 522 92 522 92 678 c 0,30,31
 92 837 92 837 129.5 978 c 128,-1,32
 167 1119 167 1119 240.5 1224.5 c 128,-1,33
 314 1330 314 1330 422.5 1391.5 c 128,-1,34
 531 1453 531 1453 674 1453 c 0,35,36
 783 1453 783 1453 867 1417.5 c 128,-1,37
 951 1382 951 1382 999 1313 c 1,38,-1
 944 1201 l 1,0,1
620 778 m 0,39,40
 560 778 560 778 508 762.5 c 128,-1,41
 456 747 456 747 414 719 c 128,-1,42
 372 691 372 691 341 652 c 128,-1,43
 310 613 310 613 292 566 c 1,44,45
 291 548 291 548 290.5 537 c 128,-1,46
 290 526 290 526 290 519 c 128,-1,47
 290 512 290 512 290 508 c 128,-1,48
 290 504 290 504 290 501 c 0,49,50
 290 426 290 426 310 357 c 128,-1,51
 330 288 330 288 370.5 235 c 128,-1,52
 411 182 411 182 472 150.5 c 128,-1,53
 533 119 533 119 614 119 c 0,54,55
 684 119 684 119 740.5 144 c 128,-1,56
 797 169 797 169 837 213.5 c 128,-1,57
 877 258 877 258 898.5 318 c 128,-1,58
 920 378 920 378 920 448 c 256,59,60
 920 518 920 518 902 578 c 128,-1,61
 884 638 884 638 846.5 682.5 c 128,-1,62
 809 727 809 727 752.5 752.5 c 128,-1,63
 696 778 696 778 620 778 c 0,39,40
EndSplineSet
EndChar

StartChar: seven
Encoding: 55 55 24
Width: 1189
Flags: W
LayerCount: 2
Fore
SplineSet
1065 1420 m 1,0,-1
 1065 1329 l 1,1,-1
 479 0 l 1,2,-1
 293 0 l 1,3,-1
 873 1275 l 1,4,-1
 95 1275 l 1,5,-1
 95 1420 l 1,6,-1
 1065 1420 l 1,0,-1
EndSplineSet
EndChar

StartChar: eight
Encoding: 56 56 25
Width: 1190
Flags: W
LayerCount: 2
Fore
SplineSet
587 1453 m 256,0,1
 683 1453 683 1453 766.5 1428.5 c 128,-1,2
 850 1404 850 1404 912 1357.5 c 128,-1,3
 974 1311 974 1311 1010 1243.5 c 128,-1,4
 1046 1176 1046 1176 1046 1091 c 0,5,6
 1046 964 1046 964 972 876.5 c 128,-1,7
 898 789 898 789 765 747 c 1,8,9
 919 701 919 701 1000 602.5 c 128,-1,10
 1081 504 1081 504 1081 367 c 0,11,12
 1081 273 1081 273 1040.5 200 c 128,-1,13
 1000 127 1000 127 931.5 77.5 c 128,-1,14
 863 28 863 28 773.5 2.5 c 128,-1,15
 684 -23 684 -23 587 -23 c 0,16,17
 489 -23 489 -23 400 2.5 c 128,-1,18
 311 28 311 28 242.5 77.5 c 128,-1,19
 174 127 174 127 133.5 200 c 128,-1,20
 93 273 93 273 93 367 c 0,21,22
 93 504 93 504 174 602.5 c 128,-1,23
 255 701 255 701 409 747 c 1,24,25
 276 789 276 789 202 876.5 c 128,-1,26
 128 964 128 964 128 1091 c 0,27,28
 128 1176 128 1176 164 1243.5 c 128,-1,29
 200 1311 200 1311 262 1357.5 c 128,-1,30
 324 1404 324 1404 407.5 1428.5 c 128,-1,31
 491 1453 491 1453 587 1453 c 256,0,1
587 119 m 256,32,33
 656 119 656 119 714.5 136 c 128,-1,34
 773 153 773 153 815 186 c 128,-1,35
 857 219 857 219 880.5 267.5 c 128,-1,36
 904 316 904 316 904 380 c 0,37,38
 904 440 904 440 880.5 488.5 c 128,-1,39
 857 537 857 537 815 573.5 c 128,-1,40
 773 610 773 610 714.5 634.5 c 128,-1,41
 656 659 656 659 587 673 c 1,42,43
 518 659 518 659 459.5 634.5 c 128,-1,44
 401 610 401 610 359 573.5 c 128,-1,45
 317 537 317 537 293.5 488.5 c 128,-1,46
 270 440 270 440 270 380 c 0,47,48
 270 316 270 316 293.5 267.5 c 128,-1,49
 317 219 317 219 359 186 c 128,-1,50
 401 153 401 153 459.5 136 c 128,-1,51
 518 119 518 119 587 119 c 256,32,33
587 1317 m 256,52,53
 529 1317 529 1317 477 1302 c 128,-1,54
 425 1287 425 1287 385.5 1257.5 c 128,-1,55
 346 1228 346 1228 323 1185 c 128,-1,56
 300 1142 300 1142 300 1086 c 0,57,58
 300 977 300 977 374.5 911.5 c 128,-1,59
 449 846 449 846 587 820 c 1,60,61
 725 846 725 846 799.5 911.5 c 128,-1,62
 874 977 874 977 874 1086 c 0,63,64
 874 1142 874 1142 851 1185 c 128,-1,65
 828 1228 828 1228 788.5 1257.5 c 128,-1,66
 749 1287 749 1287 697 1302 c 128,-1,67
 645 1317 645 1317 587 1317 c 256,52,53
EndSplineSet
EndChar

StartChar: nine
Encoding: 57 57 26
Width: 1190
Flags: W
LayerCount: 2
Fore
SplineSet
237 234 m 1,0,1
 290 177 290 177 360 148 c 128,-1,2
 430 119 430 119 517 119 c 0,3,4
 617 119 617 119 692 167 c 128,-1,5
 767 215 767 215 817.5 295.5 c 128,-1,6
 868 376 868 376 893 482 c 128,-1,7
 918 588 918 588 918 705 c 2,8,-1
 918 707 l 1,9,10
 861 617 861 617 765.5 575 c 128,-1,11
 670 533 670 533 545 533 c 0,12,13
 440 533 440 533 355.5 566.5 c 128,-1,14
 271 600 271 600 211.5 659.5 c 128,-1,15
 152 719 152 719 120 802 c 128,-1,16
 88 885 88 885 88 984 c 256,17,18
 88 1083 88 1083 122.5 1169 c 128,-1,19
 157 1255 157 1255 221 1318 c 128,-1,20
 285 1381 285 1381 376.5 1417 c 128,-1,21
 468 1453 468 1453 581 1453 c 0,22,23
 703 1453 703 1453 798.5 1407.5 c 128,-1,24
 894 1362 894 1362 959.5 1273.5 c 128,-1,25
 1025 1185 1025 1185 1059 1055.5 c 128,-1,26
 1093 926 1093 926 1093 758 c 0,27,28
 1093 585 1093 585 1055 441.5 c 128,-1,29
 1017 298 1017 298 943 194.5 c 128,-1,30
 869 91 869 91 761 34 c 128,-1,31
 653 -23 653 -23 514 -23 c 0,32,33
 405 -23 405 -23 320.5 14.5 c 128,-1,34
 236 52 236 52 183 121 c 1,35,-1
 237 234 l 1,0,1
572 673 m 0,36,37
 632 673 632 673 684.5 689 c 128,-1,38
 737 705 737 705 780 734.5 c 128,-1,39
 823 764 823 764 854.5 804.5 c 128,-1,40
 886 845 886 845 903 894 c 1,41,42
 902 901 902 901 902 911 c 128,-1,43
 902 921 902 921 902 929 c 0,44,45
 902 999 902 999 883.5 1067.5 c 128,-1,46
 865 1136 865 1136 825 1190.5 c 128,-1,47
 785 1245 785 1245 722.5 1278.5 c 128,-1,48
 660 1312 660 1312 573 1312 c 0,49,50
 503 1312 503 1312 446 1287.5 c 128,-1,51
 389 1263 389 1263 348.5 1219.5 c 128,-1,52
 308 1176 308 1176 286 1117 c 128,-1,53
 264 1058 264 1058 264 989 c 0,54,55
 264 922 264 922 282.5 864 c 128,-1,56
 301 806 301 806 339 763.5 c 128,-1,57
 377 721 377 721 435 697 c 128,-1,58
 493 673 493 673 572 673 c 0,36,37
EndSplineSet
EndChar

StartChar: colon
Encoding: 58 58 27
Width: 540
Flags: W
LayerCount: 2
Fore
SplineSet
376 841 m 1,0,-1
 159 841 l 1,1,-1
 159 1051 l 1,2,-1
 376 1051 l 1,3,-1
 376 841 l 1,0,-1
376 -11 m 1,4,-1
 159 -11 l 1,5,-1
 159 199 l 1,6,-1
 376 199 l 1,7,-1
 376 -11 l 1,4,-1
EndSplineSet
EndChar

StartChar: semicolon
Encoding: 59 59 28
Width: 540
Flags: W
LayerCount: 2
Fore
SplineSet
206 207 m 1,0,-1
 394 207 l 1,1,-1
 231 -256 l 1,2,-1
 100 -256 l 1,3,-1
 206 207 l 1,0,-1
376 841 m 1,4,-1
 159 841 l 1,5,-1
 159 1051 l 1,6,-1
 376 1051 l 1,7,-1
 376 841 l 1,4,-1
EndSplineSet
EndChar

StartChar: less
Encoding: 60 60 29
Width: 1458
Flags: W
LayerCount: 2
Fore
SplineSet
438 552 m 1,0,-1
 1222 200 l 1,1,-1
 1223 48 l 1,2,-1
 218 508 l 1,3,-1
 219 595 l 1,4,-1
 1226 1067 l 1,5,-1
 1227 914 l 1,6,-1
 438 552 l 1,0,-1
EndSplineSet
EndChar

StartChar: equal
Encoding: 61 61 30
Width: 1458
Flags: W
LayerCount: 2
Fore
SplineSet
1247 420 m 1,0,-1
 1247 283 l 1,1,-1
 198 283 l 1,2,-1
 198 420 l 1,3,-1
 1247 420 l 1,0,-1
1246 827 m 1,4,-1
 1246 689 l 1,5,-1
 197 689 l 1,6,-1
 197 827 l 1,7,-1
 1246 827 l 1,4,-1
EndSplineSet
EndChar

StartChar: greater
Encoding: 62 62 31
Width: 1458
Flags: W
LayerCount: 2
Fore
SplineSet
1004 555 m 1,0,-1
 220 926 l 1,1,-1
 220 1078 l 1,2,-1
 1225 594 l 1,3,-1
 1225 505 l 1,4,-1
 215 58 l 1,5,-1
 215 212 l 1,6,-1
 1004 555 l 1,0,-1
EndSplineSet
EndChar

StartChar: question
Encoding: 63 63 32
Width: 1032
Flags: W
LayerCount: 2
Fore
SplineSet
356 368 m 1,0,1
 353 398 353 398 351 428 c 0,2,3
 349 454 349 454 347.5 481.5 c 128,-1,4
 346 509 346 509 346 530 c 0,5,6
 346 591 346 591 374.5 642 c 128,-1,7
 403 693 403 693 445.5 739 c 128,-1,8
 488 785 488 785 538 828.5 c 128,-1,9
 588 872 588 872 630.5 918 c 128,-1,10
 673 964 673 964 701.5 1014.5 c 128,-1,11
 730 1065 730 1065 730 1125 c 0,12,13
 730 1182 730 1182 706 1222 c 128,-1,14
 682 1262 682 1262 642 1287.5 c 128,-1,15
 602 1313 602 1313 550.5 1324.5 c 128,-1,16
 499 1336 499 1336 444 1336 c 0,17,18
 375 1336 375 1336 309 1318.5 c 128,-1,19
 243 1301 243 1301 183 1267 c 1,20,-1
 183 1413 l 1,21,22
 255 1448 255 1448 328 1463 c 128,-1,23
 401 1478 401 1478 464 1478 c 0,24,25
 556 1478 556 1478 635.5 1456.5 c 128,-1,26
 715 1435 715 1435 773.5 1392 c 128,-1,27
 832 1349 832 1349 865.5 1284.5 c 128,-1,28
 899 1220 899 1220 899 1133 c 0,29,30
 899 1069 899 1069 869.5 1012 c 128,-1,31
 840 955 840 955 796 901.5 c 128,-1,32
 752 848 752 848 701 798.5 c 128,-1,33
 650 749 650 749 606 701.5 c 128,-1,34
 562 654 562 654 532.5 607 c 128,-1,35
 503 560 503 560 503 513 c 0,36,37
 503 490 503 490 505.5 465 c 128,-1,38
 508 440 508 440 511 418 c 0,39,40
 515 392 515 392 520 368 c 1,41,-1
 356 368 l 1,0,1
546 -11 m 1,42,-1
 329 -11 l 1,43,-1
 329 199 l 1,44,-1
 546 199 l 1,45,-1
 546 -11 l 1,42,-1
EndSplineSet
EndChar

StartChar: at
Encoding: 64 64 33
Width: 1895
Flags: W
LayerCount: 2
Fore
SplineSet
1225 1107 m 1,0,-1
 1371 1107 l 1,1,-1
 1314 857 l 2,2,3
 1274 684 1274 684 1249.5 581 c 128,-1,4
 1225 478 1225 478 1226 434 c 0,5,6
 1226 397 1226 397 1244.5 373.5 c 128,-1,7
 1263 350 1263 350 1309 350 c 0,8,9
 1368 350 1368 350 1422 387 c 128,-1,10
 1476 424 1476 424 1517 485.5 c 128,-1,11
 1558 547 1558 547 1582.5 628 c 128,-1,12
 1607 709 1607 709 1607 796 c 0,13,14
 1607 919 1607 919 1559.5 1022 c 128,-1,15
 1512 1125 1512 1125 1427.5 1199.5 c 128,-1,16
 1343 1274 1343 1274 1225 1315.5 c 128,-1,17
 1107 1357 1107 1357 966 1357 c 0,18,19
 818 1357 818 1357 692.5 1303.5 c 128,-1,20
 567 1250 567 1250 475.5 1157.5 c 128,-1,21
 384 1065 384 1065 332.5 941 c 128,-1,22
 281 817 281 817 281 677 c 0,23,24
 281 535 281 535 330.5 413.5 c 128,-1,25
 380 292 380 292 471 202.5 c 128,-1,26
 562 113 562 113 689 62.5 c 128,-1,27
 816 12 816 12 972 12 c 0,28,29
 1119 12 1119 12 1251.5 58 c 128,-1,30
 1384 104 1384 104 1486 192 c 1,31,-1
 1566 122 l 1,32,33
 1516 68 1516 68 1449.5 25.5 c 128,-1,34
 1383 -17 1383 -17 1306 -47 c 128,-1,35
 1229 -77 1229 -77 1143 -93 c 128,-1,36
 1057 -109 1057 -109 967 -109 c 0,37,38
 785 -109 785 -109 631.5 -49 c 128,-1,39
 478 11 478 11 366.5 116.5 c 128,-1,40
 255 222 255 222 192.5 366 c 128,-1,41
 130 510 130 510 130 679 c 0,42,43
 130 791 130 791 159.5 894 c 128,-1,44
 189 997 189 997 243.5 1085.5 c 128,-1,45
 298 1174 298 1174 374.5 1246 c 128,-1,46
 451 1318 451 1318 544.5 1369 c 128,-1,47
 638 1420 638 1420 745.5 1448 c 128,-1,48
 853 1476 853 1476 971 1476 c 0,49,50
 1081 1476 1081 1476 1182.5 1453 c 128,-1,51
 1284 1430 1284 1430 1371.5 1387 c 128,-1,52
 1459 1344 1459 1344 1531 1283 c 128,-1,53
 1603 1222 1603 1222 1653.5 1146 c 128,-1,54
 1704 1070 1704 1070 1732 980.5 c 128,-1,55
 1760 891 1760 891 1760 791 c 0,56,57
 1760 672 1760 672 1719 569 c 128,-1,58
 1678 466 1678 466 1611.5 389.5 c 128,-1,59
 1545 313 1545 313 1460 269 c 128,-1,60
 1375 225 1375 225 1288 225 c 0,61,62
 1200 225 1200 225 1143 262 c 128,-1,63
 1086 299 1086 299 1071 384 c 1,64,65
 1019 320 1019 320 952.5 288.5 c 128,-1,66
 886 257 886 257 814 257 c 0,67,68
 754 257 754 257 697 279.5 c 128,-1,69
 640 302 640 302 596 346.5 c 128,-1,70
 552 391 552 391 525 457 c 128,-1,71
 498 523 498 523 498 610 c 0,72,73
 498 678 498 678 516.5 744 c 128,-1,74
 535 810 535 810 568 868.5 c 128,-1,75
 601 927 601 927 646 976.5 c 128,-1,76
 691 1026 691 1026 744.5 1062 c 128,-1,77
 798 1098 798 1098 857 1118 c 128,-1,78
 916 1138 916 1138 978 1138 c 0,79,80
 1056 1138 1056 1138 1116.5 1107 c 128,-1,81
 1177 1076 1177 1076 1207 1022 c 1,82,-1
 1225 1107 l 1,0,-1
655 582 m 0,83,84
 655 538 655 538 666.5 502 c 128,-1,85
 678 466 678 466 700.5 440 c 128,-1,86
 723 414 723 414 756 399.5 c 128,-1,87
 789 385 789 385 831 385 c 0,88,89
 897 385 897 385 954 422.5 c 128,-1,90
 1011 460 1011 460 1052.5 521.5 c 128,-1,91
 1094 583 1094 583 1117.5 661 c 128,-1,92
 1141 739 1141 739 1141 821 c 0,93,94
 1141 863 1141 863 1132.5 897.5 c 128,-1,95
 1124 932 1124 932 1104.5 956.5 c 128,-1,96
 1085 981 1085 981 1054.5 994 c 128,-1,97
 1024 1007 1024 1007 980 1007 c 0,98,99
 909 1007 909 1007 849 967.5 c 128,-1,100
 789 928 789 928 746 866 c 128,-1,101
 703 804 703 804 679 729 c 128,-1,102
 655 654 655 654 655 582 c 0,83,84
EndSplineSet
EndChar

StartChar: A
Encoding: 65 65 34
Width: 1425
Flags: W
LayerCount: 2
Fore
SplineSet
199 0 m 1,0,-1
 13 0 l 1,1,-1
 617 1456 l 1,2,-1
 802 1456 l 1,3,-1
 1407 0 l 1,4,-1
 1216 0 l 1,5,-1
 1053 397 l 1,6,-1
 355 397 l 1,7,-1
 199 0 l 1,0,-1
410 545 m 1,8,-1
 994 545 l 1,9,-1
 760 1150 l 2,10,11
 752 1169 752 1169 743 1194.5 c 128,-1,12
 734 1220 734 1220 726 1243 c 0,13,14
 716 1270 716 1270 707 1298 c 1,15,16
 697 1266 697 1266 687 1237 c 0,17,18
 679 1212 679 1212 669.5 1187.5 c 128,-1,19
 660 1163 660 1163 655 1149 c 2,20,-1
 410 545 l 1,8,-1
EndSplineSet
EndChar

StartChar: B
Encoding: 66 66 35
Width: 1352
Flags: W
LayerCount: 2
Fore
SplineSet
202 0 m 1,0,-1
 202 1456 l 1,1,-1
 492 1456 l 2,2,3
 573 1456 573 1456 648 1454 c 128,-1,4
 723 1452 723 1452 792 1444 c 0,5,6
 868 1435 868 1435 932.5 1407 c 128,-1,7
 997 1379 997 1379 1044 1335.5 c 128,-1,8
 1091 1292 1091 1292 1117.5 1233.5 c 128,-1,9
 1144 1175 1144 1175 1144 1105 c 0,10,11
 1144 1045 1144 1045 1124.5 991 c 128,-1,12
 1105 937 1105 937 1070 893.5 c 128,-1,13
 1035 850 1035 850 986 818 c 128,-1,14
 937 786 937 786 879 769 c 1,15,16
 881 769 881 769 883.5 768.5 c 128,-1,17
 886 768 886 768 888 768 c 0,18,19
 960 753 960 753 1020 722.5 c 128,-1,20
 1080 692 1080 692 1123 645.5 c 128,-1,21
 1166 599 1166 599 1189.5 538.5 c 128,-1,22
 1213 478 1213 478 1213 403 c 0,23,24
 1213 323 1213 323 1182.5 250 c 128,-1,25
 1152 177 1152 177 1091 121.5 c 128,-1,26
 1030 66 1030 66 939.5 33 c 128,-1,27
 849 0 849 0 729 0 c 2,28,-1
 202 0 l 1,0,-1
374 828 m 1,29,-1
 570 828 l 2,30,31
 643 828 643 828 713.5 839.5 c 128,-1,32
 784 851 784 851 839.5 879 c 128,-1,33
 895 907 895 907 929 955 c 128,-1,34
 963 1003 963 1003 963 1077 c 0,35,36
 963 1150 963 1150 933.5 1195.5 c 128,-1,37
 904 1241 904 1241 853 1266 c 128,-1,38
 802 1291 802 1291 732.5 1299.5 c 128,-1,39
 663 1308 663 1308 582 1308 c 2,40,-1
 374 1308 l 1,41,-1
 374 828 l 1,29,-1
374 680 m 1,42,-1
 374 148 l 1,43,-1
 657 148 l 2,44,45
 836 148 836 148 933.5 211 c 128,-1,46
 1031 274 1031 274 1031 406 c 0,47,48
 1031 485 1031 485 1003 538 c 128,-1,49
 975 591 975 591 920 622.5 c 128,-1,50
 865 654 865 654 785 667 c 128,-1,51
 705 680 705 680 600 680 c 2,52,-1
 374 680 l 1,42,-1
EndSplineSet
EndChar

StartChar: C
Encoding: 67 67 36
Width: 1399
Flags: W
LayerCount: 2
Fore
SplineSet
1190 1219 m 1,0,1
 1037 1334 1037 1334 833 1334 c 0,2,3
 741 1334 741 1334 665 1309.5 c 128,-1,4
 589 1285 589 1285 528.5 1241.5 c 128,-1,5
 468 1198 468 1198 423.5 1139 c 128,-1,6
 379 1080 379 1080 349.5 1011 c 128,-1,7
 320 942 320 942 305.5 865.5 c 128,-1,8
 291 789 291 789 291 712 c 0,9,10
 291 594 291 594 322 487.5 c 128,-1,11
 353 381 353 381 417 300.5 c 128,-1,12
 481 220 481 220 579 172.5 c 128,-1,13
 677 125 677 125 811 125 c 0,14,15
 934 125 934 125 1042.5 160.5 c 128,-1,16
 1151 196 1151 196 1233 268 c 1,17,-1
 1291 127 l 1,18,19
 1198 52 1198 52 1071 14.5 c 128,-1,20
 944 -23 944 -23 785 -23 c 0,21,22
 620 -23 620 -23 494 35 c 128,-1,23
 368 93 368 93 282 193.5 c 128,-1,24
 196 294 196 294 152 427.5 c 128,-1,25
 108 561 108 561 108 713 c 0,26,27
 108 816 108 816 129.5 913 c 128,-1,28
 151 1010 151 1010 192.5 1095.5 c 128,-1,29
 234 1181 234 1181 295 1252.5 c 128,-1,30
 356 1324 356 1324 434.5 1375 c 128,-1,31
 513 1426 513 1426 608 1454.5 c 128,-1,32
 703 1483 703 1483 814 1483 c 0,33,34
 950 1483 950 1483 1057 1446.5 c 128,-1,35
 1164 1410 1164 1410 1255 1329 c 1,36,-1
 1190 1219 l 1,0,1
EndSplineSet
EndChar

StartChar: D
Encoding: 68 68 37
Width: 1546
Flags: W
LayerCount: 2
Fore
SplineSet
193 1456 m 1,0,-1
 508 1456 l 2,1,2
 638 1456 638 1456 757 1441 c 128,-1,3
 876 1426 876 1426 978.5 1392 c 128,-1,4
 1081 1358 1081 1358 1164.5 1302.5 c 128,-1,5
 1248 1247 1248 1247 1307 1165.5 c 128,-1,6
 1366 1084 1366 1084 1398 974.5 c 128,-1,7
 1430 865 1430 865 1430 724 c 0,8,9
 1430 558 1430 558 1374.5 424.5 c 128,-1,10
 1319 291 1319 291 1213.5 196.5 c 128,-1,11
 1108 102 1108 102 955.5 51 c 128,-1,12
 803 0 803 0 610 0 c 2,13,-1
 193 0 l 1,14,-1
 193 1456 l 1,0,-1
365 148 m 1,15,-1
 626 148 l 2,16,17
 785 148 785 148 902 190.5 c 128,-1,18
 1019 233 1019 233 1096 309 c 128,-1,19
 1173 385 1173 385 1210.5 490.5 c 128,-1,20
 1248 596 1248 596 1248 721 c 0,21,22
 1248 885 1248 885 1202 997.5 c 128,-1,23
 1156 1110 1156 1110 1065.5 1179 c 128,-1,24
 975 1248 975 1248 840.5 1278 c 128,-1,25
 706 1308 706 1308 529 1308 c 2,26,-1
 365 1308 l 1,27,-1
 365 148 l 1,15,-1
EndSplineSet
EndChar

StartChar: E
Encoding: 69 69 38
Width: 1218
Flags: W
LayerCount: 2
Fore
SplineSet
1102 0 m 1,0,-1
 205 0 l 1,1,-1
 205 1456 l 1,2,-1
 1072 1456 l 1,3,-1
 1072 1308 l 1,4,-1
 377 1308 l 1,5,-1
 377 820 l 1,6,-1
 1034 820 l 1,7,-1
 1034 672 l 1,8,-1
 377 672 l 1,9,-1
 377 148 l 1,10,-1
 1102 148 l 1,11,-1
 1102 0 l 1,0,-1
EndSplineSet
EndChar

StartChar: F
Encoding: 70 70 39
Width: 1137
Flags: W
LayerCount: 2
Fore
SplineSet
369 0 m 1,0,-1
 197 0 l 1,1,-1
 197 1456 l 1,2,-1
 1040 1456 l 1,3,-1
 1040 1308 l 1,4,-1
 369 1308 l 1,5,-1
 369 815 l 1,6,-1
 1006 815 l 1,7,-1
 1006 667 l 1,8,-1
 369 667 l 1,9,-1
 369 0 l 1,0,-1
EndSplineSet
EndChar

StartChar: G
Encoding: 71 71 40
Width: 1530
Flags: W
LayerCount: 2
Fore
SplineSet
1258 1196 m 1,0,1
 1221 1232 1221 1232 1175.5 1258 c 128,-1,2
 1130 1284 1130 1284 1078.5 1301 c 128,-1,3
 1027 1318 1027 1318 970.5 1326 c 128,-1,4
 914 1334 914 1334 856 1334 c 0,5,6
 717 1334 717 1334 611.5 1282 c 128,-1,7
 506 1230 506 1230 435.5 1143.5 c 128,-1,8
 365 1057 365 1057 329.5 945.5 c 128,-1,9
 294 834 294 834 294 714 c 0,10,11
 294 583 294 583 329 474.5 c 128,-1,12
 364 366 364 366 435 288.5 c 128,-1,13
 506 211 506 211 612.5 168 c 128,-1,14
 719 125 719 125 863 125 c 0,15,16
 948 125 948 125 1028 139 c 128,-1,17
 1108 153 1108 153 1180 182 c 1,18,-1
 1180 608 l 1,19,-1
 819 608 l 1,20,-1
 819 757 l 1,21,-1
 1352 757 l 1,22,-1
 1352 81 l 1,23,24
 1231 24 1231 24 1104.5 0.5 c 128,-1,25
 978 -23 978 -23 849 -23 c 0,26,27
 669 -23 669 -23 532 29 c 128,-1,28
 395 81 395 81 302.5 176 c 128,-1,29
 210 271 210 271 163 404.5 c 128,-1,30
 116 538 116 538 116 701 c 0,31,32
 116 808 116 808 138.5 907.5 c 128,-1,33
 161 1007 161 1007 204.5 1094 c 128,-1,34
 248 1181 248 1181 312 1252.5 c 128,-1,35
 376 1324 376 1324 458.5 1375.5 c 128,-1,36
 541 1427 541 1427 641.5 1455 c 128,-1,37
 742 1483 742 1483 860 1483 c 0,38,39
 932 1483 932 1483 1000 1472 c 128,-1,40
 1068 1461 1068 1461 1128 1438.5 c 128,-1,41
 1188 1416 1188 1416 1238.5 1381.5 c 128,-1,42
 1289 1347 1289 1347 1327 1301 c 1,43,-1
 1258 1196 l 1,0,1
EndSplineSet
EndChar

StartChar: H
Encoding: 72 72 41
Width: 1555
Flags: W
LayerCount: 2
Fore
SplineSet
374 0 m 1,0,-1
 202 0 l 1,1,-1
 202 1456 l 1,2,-1
 374 1456 l 1,3,-1
 374 822 l 1,4,-1
 1176 822 l 1,5,-1
 1176 1456 l 1,6,-1
 1347 1456 l 1,7,-1
 1347 0 l 1,8,-1
 1176 0 l 1,9,-1
 1176 674 l 1,10,-1
 374 674 l 1,11,-1
 374 0 l 1,0,-1
EndSplineSet
EndChar

StartChar: I
Encoding: 73 73 42
Width: 591
Flags: W
LayerCount: 2
Fore
SplineSet
382 0 m 1,0,-1
 210 0 l 1,1,-1
 210 1456 l 1,2,-1
 382 1456 l 1,3,-1
 382 0 l 1,0,-1
EndSplineSet
EndChar

StartChar: J
Encoding: 74 74 43
Width: 939
Flags: W
LayerCount: 2
Fore
SplineSet
122 197 m 1,0,1
 166 163 166 163 216 144 c 128,-1,2
 266 125 266 125 326 125 c 0,3,4
 392 125 392 125 440.5 152.5 c 128,-1,5
 489 180 489 180 520.5 229 c 128,-1,6
 552 278 552 278 567.5 344 c 128,-1,7
 583 410 583 410 583 488 c 2,8,-1
 583 1456 l 1,9,-1
 755 1456 l 1,10,-1
 755 499 l 2,11,12
 755 372 755 372 725 274.5 c 128,-1,13
 695 177 695 177 639 111 c 128,-1,14
 583 45 583 45 503 11 c 128,-1,15
 423 -23 423 -23 321 -23 c 0,16,17
 243 -23 243 -23 181.5 4.5 c 128,-1,18
 120 32 120 32 71 81 c 1,19,-1
 122 197 l 1,0,1
EndSplineSet
EndChar

StartChar: K
Encoding: 75 75 44
Width: 1294
Flags: W
LayerCount: 2
Fore
SplineSet
382 0 m 1,0,-1
 210 0 l 1,1,-1
 210 1456 l 1,2,-1
 382 1456 l 1,3,-1
 382 796 l 1,4,-1
 470 887 l 1,5,-1
 1026 1456 l 1,6,-1
 1242 1456 l 1,7,-1
 553 778 l 1,8,-1
 1296 0 l 1,9,-1
 1060 0 l 1,10,-1
 466 634 l 1,11,-1
 382 725 l 1,12,-1
 382 0 l 1,0,-1
EndSplineSet
EndChar

StartChar: L
Encoding: 76 76 45
Width: 1120
Flags: W
LayerCount: 2
Fore
SplineSet
1073 0 m 1,0,-1
 202 0 l 1,1,-1
 202 1456 l 1,2,-1
 374 1456 l 1,3,-1
 374 148 l 1,4,-1
 1071 148 l 1,5,-1
 1073 0 l 1,0,-1
EndSplineSet
EndChar

StartChar: M
Encoding: 77 77 46
Width: 2002
Flags: W
LayerCount: 2
Fore
SplineSet
370 0 m 1,0,-1
 200 0 l 1,1,-1
 200 1456 l 1,2,-1
 438 1456 l 1,3,-1
 913 416 l 1,4,-1
 997 212 l 1,5,-1
 999 212 l 1,6,-1
 1084 419 l 1,7,-1
 1562 1456 l 1,8,-1
 1796 1456 l 1,9,-1
 1796 0 l 1,10,-1
 1628 0 l 1,11,-1
 1628 934 l 1,12,-1
 1628 1251 l 1,13,-1
 1577 1130 l 1,14,-1
 1060 0 l 1,15,-1
 934 0 l 1,16,-1
 430 1108 l 1,17,-1
 370 1268 l 1,18,-1
 370 931 l 1,19,-1
 370 0 l 1,0,-1
EndSplineSet
EndChar

StartChar: N
Encoding: 78 78 47
Width: 1594
Flags: W
LayerCount: 2
Fore
SplineSet
193 0 m 1,0,-1
 193 1456 l 1,1,-1
 399 1456 l 1,2,-1
 1146 342 l 1,3,-1
 1224 215 l 1,4,-1
 1224 448 l 1,5,-1
 1224 1456 l 1,6,-1
 1395 1456 l 1,7,-1
 1395 0 l 1,8,-1
 1187 0 l 1,9,-1
 437 1113 l 1,10,-1
 365 1237 l 1,11,-1
 365 1047 l 1,12,-1
 365 0 l 1,13,-1
 193 0 l 1,0,-1
EndSplineSet
EndChar

StartChar: O
Encoding: 79 79 48
Width: 1663
Flags: W
LayerCount: 2
Fore
SplineSet
1544 726 m 0,0,1
 1544 561 1544 561 1495.5 423.5 c 128,-1,2
 1447 286 1447 286 1355 186.5 c 128,-1,3
 1263 87 1263 87 1130 32 c 128,-1,4
 997 -23 997 -23 829 -23 c 0,5,6
 662 -23 662 -23 529.5 30 c 128,-1,7
 397 83 397 83 304.5 181 c 128,-1,8
 212 279 212 279 163 418 c 128,-1,9
 114 557 114 557 114 729 c 0,10,11
 114 893 114 893 163 1031 c 128,-1,12
 212 1169 212 1169 305 1269.5 c 128,-1,13
 398 1370 398 1370 532 1426.5 c 128,-1,14
 666 1483 666 1483 837 1483 c 0,15,16
 1000 1483 1000 1483 1131 1429 c 128,-1,17
 1262 1375 1262 1375 1354 1276 c 128,-1,18
 1446 1177 1446 1177 1495 1037.5 c 128,-1,19
 1544 898 1544 898 1544 726 c 0,0,1
298 725 m 0,20,21
 298 599 298 599 331.5 489.5 c 128,-1,22
 365 380 365 380 431.5 299 c 128,-1,23
 498 218 498 218 597 171.5 c 128,-1,24
 696 125 696 125 827 125 c 0,25,26
 959 125 959 125 1058.5 171.5 c 128,-1,27
 1158 218 1158 218 1224 299.5 c 128,-1,28
 1290 381 1290 381 1323 492.5 c 128,-1,29
 1356 604 1356 604 1356 734 c 0,30,31
 1356 861 1356 861 1323.5 971 c 128,-1,32
 1291 1081 1291 1081 1225 1162 c 128,-1,33
 1159 1243 1159 1243 1060.5 1289 c 128,-1,34
 962 1335 962 1335 830 1335 c 0,35,36
 699 1335 699 1335 600 1285 c 128,-1,37
 501 1235 501 1235 433.5 1151 c 128,-1,38
 366 1067 366 1067 332 956.5 c 128,-1,39
 298 846 298 846 298 725 c 0,20,21
EndSplineSet
EndChar

StartChar: P
Encoding: 80 80 49
Width: 1274
Flags: W
LayerCount: 2
Fore
SplineSet
375 0 m 1,0,-1
 203 0 l 1,1,-1
 203 1456 l 1,2,-1
 544 1456 l 2,3,4
 629 1456 629 1456 710.5 1448.5 c 128,-1,5
 792 1441 792 1441 865 1422.5 c 128,-1,6
 938 1404 938 1404 999.5 1372.5 c 128,-1,7
 1061 1341 1061 1341 1105.5 1292.5 c 128,-1,8
 1150 1244 1150 1244 1175 1177 c 128,-1,9
 1200 1110 1200 1110 1200 1020 c 0,10,11
 1200 906 1200 906 1150.5 824 c 128,-1,12
 1101 742 1101 742 1017.5 689.5 c 128,-1,13
 934 637 934 637 825 612 c 128,-1,14
 716 587 716 587 597 587 c 2,15,-1
 375 587 l 1,16,-1
 375 0 l 1,0,-1
375 1308 m 1,17,-1
 375 736 l 1,18,-1
 636 736 l 2,19,20
 718 736 718 736 788 752.5 c 128,-1,21
 858 769 858 769 908.5 803.5 c 128,-1,22
 959 838 959 838 987.5 891 c 128,-1,23
 1016 944 1016 944 1016 1018 c 0,24,25
 1016 1105 1016 1105 984.5 1161.5 c 128,-1,26
 953 1218 953 1218 896.5 1250.5 c 128,-1,27
 840 1283 840 1283 761.5 1295.5 c 128,-1,28
 683 1308 683 1308 588 1308 c 2,29,-1
 375 1308 l 1,17,-1
EndSplineSet
EndChar

StartChar: Q
Encoding: 81 81 50
Width: 1664
Flags: W
LayerCount: 2
Fore
SplineSet
298 724 m 0,0,1
 298 599 298 599 331.5 490 c 128,-1,2
 365 381 365 381 431.5 300 c 128,-1,3
 498 219 498 219 597 172 c 128,-1,4
 696 125 696 125 827 125 c 0,5,6
 959 125 959 125 1058 171.5 c 128,-1,7
 1157 218 1157 218 1223 299.5 c 128,-1,8
 1289 381 1289 381 1322 492.5 c 128,-1,9
 1355 604 1355 604 1355 734 c 0,10,11
 1355 861 1355 861 1322.5 970.5 c 128,-1,12
 1290 1080 1290 1080 1224.5 1161 c 128,-1,13
 1159 1242 1159 1242 1060.5 1288 c 128,-1,14
 962 1334 962 1334 830 1334 c 0,15,16
 699 1334 699 1334 599.5 1284 c 128,-1,17
 500 1234 500 1234 433 1150 c 128,-1,18
 366 1066 366 1066 332 955.5 c 128,-1,19
 298 845 298 845 298 724 c 0,0,1
1601 -182 m 1,20,21
 1559 -187 1559 -187 1515 -189.5 c 128,-1,22
 1471 -192 1471 -192 1433 -192 c 0,23,24
 1293 -192 1293 -192 1198 -178 c 128,-1,25
 1103 -164 1103 -164 1036 -140 c 128,-1,26
 969 -116 969 -116 921.5 -84.5 c 128,-1,27
 874 -53 874 -53 829 -18 c 1,28,29
 668 -18 668 -18 537 36 c 128,-1,30
 406 90 406 90 313 190 c 128,-1,31
 220 290 220 290 169.5 431.5 c 128,-1,32
 119 573 119 573 119 747 c 0,33,34
 119 909 119 909 169 1044.5 c 128,-1,35
 219 1180 219 1180 312.5 1277.5 c 128,-1,36
 406 1375 406 1375 539 1429 c 128,-1,37
 672 1483 672 1483 837 1483 c 0,38,39
 1000 1483 1000 1483 1131 1429 c 128,-1,40
 1262 1375 1262 1375 1353.5 1276.5 c 128,-1,41
 1445 1178 1445 1178 1494 1041 c 128,-1,42
 1543 904 1543 904 1543 738 c 0,43,44
 1543 606 1543 606 1510.5 484 c 128,-1,45
 1478 362 1478 362 1412.5 263.5 c 128,-1,46
 1347 165 1347 165 1250 96.5 c 128,-1,47
 1153 28 1153 28 1024 2 c 1,48,49
 1064 -14 1064 -14 1118 -23.5 c 128,-1,50
 1172 -33 1172 -33 1228 -37.5 c 128,-1,51
 1284 -42 1284 -42 1337.5 -43 c 128,-1,52
 1391 -44 1391 -44 1429 -44 c 0,53,54
 1466 -44 1466 -44 1511 -39.5 c 128,-1,55
 1556 -35 1556 -35 1598 -28 c 1,56,-1
 1601 -182 l 1,20,21
EndSplineSet
EndChar

StartChar: R
Encoding: 82 82 51
Width: 1377
Flags: W
LayerCount: 2
Fore
SplineSet
377 652 m 1,0,-1
 377 0 l 1,1,-1
 205 0 l 1,2,-1
 205 1456 l 1,3,-1
 561 1456 l 2,4,5
 620 1456 620 1456 690.5 1454 c 128,-1,6
 761 1452 761 1452 832 1441 c 128,-1,7
 903 1430 903 1430 969 1406.5 c 128,-1,8
 1035 1383 1035 1383 1086.5 1341 c 128,-1,9
 1138 1299 1138 1299 1168.5 1233.5 c 128,-1,10
 1199 1168 1199 1168 1199 1074 c 0,11,12
 1199 1005 1199 1005 1177 947 c 128,-1,13
 1155 889 1155 889 1114 843 c 128,-1,14
 1073 797 1073 797 1015.5 765 c 128,-1,15
 958 733 958 733 888 715 c 1,16,-1
 889 715 l 1,17,18
 950 695 950 695 989.5 656 c 128,-1,19
 1029 617 1029 617 1061 555.5 c 128,-1,20
 1093 494 1093 494 1124 409.5 c 128,-1,21
 1155 325 1155 325 1200 214 c 2,22,-1
 1287 0 l 1,23,-1
 1099 0 l 1,24,-1
 946 419 l 2,25,26
 921 487 921 487 896.5 532 c 128,-1,27
 872 577 872 577 838.5 603.5 c 128,-1,28
 805 630 805 630 759.5 641 c 128,-1,29
 714 652 714 652 647 652 c 2,30,-1
 377 652 l 1,0,-1
377 799 m 1,31,-1
 643 799 l 2,32,33
 710 799 710 799 777 811 c 128,-1,34
 844 823 844 823 897.5 852 c 128,-1,35
 951 881 951 881 984 931 c 128,-1,36
 1017 981 1017 981 1017 1058 c 0,37,38
 1017 1133 1017 1133 989.5 1181.5 c 128,-1,39
 962 1230 962 1230 913 1258 c 128,-1,40
 864 1286 864 1286 798 1297 c 128,-1,41
 732 1308 732 1308 654 1308 c 2,42,-1
 377 1308 l 1,43,-1
 377 799 l 1,31,-1
EndSplineSet
EndChar

StartChar: S
Encoding: 83 83 52
Width: 1244
Flags: W
LayerCount: 2
Fore
SplineSet
215 271 m 1,0,1
 248 231 248 231 292.5 203.5 c 128,-1,2
 337 176 337 176 386.5 158.5 c 128,-1,3
 436 141 436 141 488.5 133 c 128,-1,4
 541 125 541 125 591 125 c 0,5,6
 670 125 670 125 736 140.5 c 128,-1,7
 802 156 802 156 849.5 186.5 c 128,-1,8
 897 217 897 217 923.5 261.5 c 128,-1,9
 950 306 950 306 950 365 c 0,10,11
 950 431 950 431 915 477.5 c 128,-1,12
 880 524 880 524 823.5 560 c 128,-1,13
 767 596 767 596 694 624.5 c 128,-1,14
 621 653 621 653 545.5 683 c 128,-1,15
 470 713 470 713 397 747.5 c 128,-1,16
 324 782 324 782 267.5 829.5 c 128,-1,17
 211 877 211 877 176 941.5 c 128,-1,18
 141 1006 141 1006 141 1095 c 0,19,20
 141 1191 141 1191 186 1263.5 c 128,-1,21
 231 1336 231 1336 305 1384.5 c 128,-1,22
 379 1433 379 1433 473 1458 c 128,-1,23
 567 1483 567 1483 666 1483 c 0,24,25
 723 1483 723 1483 783 1476 c 128,-1,26
 843 1469 843 1469 898.5 1451 c 128,-1,27
 954 1433 954 1433 1001.5 1403.5 c 128,-1,28
 1049 1374 1049 1374 1081 1329 c 1,29,-1
 998 1217 l 1,30,31
 968 1250 968 1250 929.5 1272.5 c 128,-1,32
 891 1295 891 1295 847.5 1308.5 c 128,-1,33
 804 1322 804 1322 758 1328 c 128,-1,34
 712 1334 712 1334 667 1334 c 0,35,36
 606 1334 606 1334 545 1321.5 c 128,-1,37
 484 1309 484 1309 435 1281.5 c 128,-1,38
 386 1254 386 1254 355 1210.5 c 128,-1,39
 324 1167 324 1167 324 1105 c 0,40,41
 324 1041 324 1041 359 994.5 c 128,-1,42
 394 948 394 948 451 912 c 128,-1,43
 508 876 508 876 580.5 846 c 128,-1,44
 653 816 653 816 729 785 c 128,-1,45
 805 754 805 754 877.5 718 c 128,-1,46
 950 682 950 682 1007 633 c 128,-1,47
 1064 584 1064 584 1099 518.5 c 128,-1,48
 1134 453 1134 453 1134 364 c 0,49,50
 1134 293 1134 293 1111 236.5 c 128,-1,51
 1088 180 1088 180 1048 137 c 128,-1,52
 1008 94 1008 94 954 63.5 c 128,-1,53
 900 33 900 33 837.5 14 c 128,-1,54
 775 -5 775 -5 707 -14 c 128,-1,55
 639 -23 639 -23 572 -23 c 0,56,57
 499 -23 499 -23 433 -10 c 128,-1,58
 367 3 367 3 311 27 c 128,-1,59
 255 51 255 51 210.5 85 c 128,-1,60
 166 119 166 119 137 161 c 1,61,-1
 215 271 l 1,0,1
EndSplineSet
EndChar

StartChar: T
Encoding: 84 84 53
Width: 1174
Flags: W
LayerCount: 2
Fore
SplineSet
501 0 m 1,0,-1
 501 1308 l 1,1,-1
 32 1308 l 1,2,-1
 32 1456 l 1,3,-1
 1145 1456 l 1,4,-1
 1145 1308 l 1,5,-1
 673 1308 l 1,6,-1
 673 0 l 1,7,-1
 501 0 l 1,0,-1
EndSplineSet
EndChar

StartChar: U
Encoding: 85 85 54
Width: 1532
Flags: W
LayerCount: 2
Fore
SplineSet
191 1456 m 1,0,-1
 363 1456 l 1,1,-1
 363 546 l 2,2,3
 363 342 363 342 464 233.5 c 128,-1,4
 565 125 565 125 763 125 c 0,5,6
 854 125 854 125 928.5 153.5 c 128,-1,7
 1003 182 1003 182 1055.5 235.5 c 128,-1,8
 1108 289 1108 289 1136.5 366 c 128,-1,9
 1165 443 1165 443 1165 539 c 2,10,-1
 1165 1456 l 1,11,-1
 1337 1456 l 1,12,-1
 1336 551 l 2,13,14
 1335 416 1335 416 1298.5 309 c 128,-1,15
 1262 202 1262 202 1189.5 128.5 c 128,-1,16
 1117 55 1117 55 1008.5 16 c 128,-1,17
 900 -23 900 -23 756 -23 c 0,18,19
 600 -23 600 -23 492 18 c 128,-1,20
 384 59 384 59 317 133.5 c 128,-1,21
 250 208 250 208 220.5 312 c 128,-1,22
 191 416 191 416 191 541 c 2,23,-1
 191 1456 l 1,0,-1
EndSplineSet
EndChar

StartChar: V
Encoding: 86 86 55
Width: 1336
Flags: W
LayerCount: 2
Fore
SplineSet
201 1456 m 1,0,-1
 624 307 l 1,1,-1
 670 166 l 1,2,-1
 718 308 l 1,3,-1
 1145 1456 l 1,4,-1
 1324 1456 l 1,5,-1
 759 0 l 1,6,-1
 570 0 l 1,7,-1
 9 1456 l 1,8,-1
 201 1456 l 1,0,-1
EndSplineSet
EndChar

StartChar: W
Encoding: 87 87 56
Width: 2103
Flags: W
LayerCount: 2
Fore
SplineSet
1115 1026 m 1,0,-1
 1052 1247 l 1,1,-1
 983 1026 l 1,2,-1
 657 0 l 1,3,-1
 444 0 l 1,4,-1
 21 1456 l 1,5,-1
 207 1456 l 1,6,-1
 517 349 l 1,7,-1
 555 189 l 1,8,-1
 599 334 l 1,9,-1
 967 1456 l 1,10,-1
 1148 1456 l 1,11,-1
 1507 345 l 1,12,-1
 1553 190 l 1,13,-1
 1589 332 l 1,14,-1
 1900 1456 l 1,15,-1
 2080 1456 l 1,16,-1
 1657 0 l 1,17,-1
 1445 0 l 1,18,-1
 1115 1026 l 1,0,-1
EndSplineSet
EndChar

StartChar: X
Encoding: 88 88 57
Width: 1304
Flags: W
LayerCount: 2
Fore
SplineSet
584 537 m 1,0,-1
 215 0 l 1,1,-1
 11 0 l 1,2,-1
 548 741 l 1,3,-1
 47 1456 l 1,4,-1
 263 1456 l 1,5,-1
 592 959 l 1,6,-1
 662 854 l 1,7,-1
 734 959 l 1,8,-1
 1079 1456 l 1,9,-1
 1275 1456 l 1,10,-1
 764 742 l 1,11,-1
 1285 0 l 1,12,-1
 1072 0 l 1,13,-1
 710 538 l 1,14,-1
 646 630 l 1,15,-1
 584 537 l 1,0,-1
EndSplineSet
EndChar

StartChar: Y
Encoding: 89 89 58
Width: 1266
Flags: W
LayerCount: 2
Fore
SplineSet
543 0 m 1,0,-1
 543 582 l 1,1,-1
 10 1456 l 1,2,-1
 201 1456 l 1,3,-1
 632 727 l 1,4,-1
 1067 1456 l 1,5,-1
 1258 1456 l 1,6,-1
 715 585 l 1,7,-1
 715 0 l 1,8,-1
 543 0 l 1,0,-1
EndSplineSet
EndChar

StartChar: Z
Encoding: 90 90 59
Width: 1222
Flags: W
LayerCount: 2
Fore
SplineSet
1146 0 m 1,0,-1
 58 0 l 1,1,-1
 58 92 l 1,2,-1
 922 1308 l 1,3,-1
 90 1308 l 1,4,-1
 90 1456 l 1,5,-1
 1154 1456 l 1,6,-1
 1154 1368 l 1,7,-1
 286 148 l 1,8,-1
 1146 148 l 1,9,-1
 1146 0 l 1,0,-1
EndSplineSet
EndChar

StartChar: bracketleft
Encoding: 91 91 60
Width: 628
Flags: W
LayerCount: 2
Fore
SplineSet
548 -259 m 1,0,-1
 191 -259 l 1,1,-1
 191 1451 l 1,2,-1
 547 1451 l 1,3,-1
 547 1329 l 1,4,-1
 354 1329 l 1,5,-1
 354 -137 l 1,6,-1
 548 -137 l 1,7,-1
 548 -259 l 1,0,-1
EndSplineSet
EndChar

StartChar: backslash
Encoding: 92 92 61
Width: 706
Flags: W
LayerCount: 2
Fore
SplineSet
617 -119 m 1,0,-1
 -70 1451 l 1,1,-1
 98 1451 l 1,2,-1
 783 -119 l 1,3,-1
 617 -119 l 1,0,-1
EndSplineSet
EndChar

StartChar: bracketright
Encoding: 93 93 62
Width: 628
Flags: W
LayerCount: 2
Fore
SplineSet
78 1451 m 1,0,-1
 442 1451 l 1,1,-1
 442 -259 l 1,2,-1
 87 -259 l 1,3,-1
 87 -137 l 1,4,-1
 278 -137 l 1,5,-1
 278 1329 l 1,6,-1
 88 1329 l 1,7,-1
 78 1451 l 1,0,-1
EndSplineSet
EndChar

StartChar: asciicircum
Encoding: 94 94 63
Width: 1457
Flags: W
LayerCount: 2
Fore
SplineSet
184 550 m 1,0,-1
 665 1432 l 1,1,-1
 766 1432 l 1,2,-1
 1255 550 l 1,3,-1
 1100 550 l 1,4,-1
 757 1175 l 1,5,-1
 714 1260 l 1,6,-1
 675 1176 l 1,7,-1
 340 550 l 1,8,-1
 184 550 l 1,0,-1
EndSplineSet
EndChar

StartChar: underscore
Encoding: 95 95 64
Width: 998
Flags: W
LayerCount: 2
Fore
SplineSet
998 -273 m 1,0,-1
 -4 -273 l 1,1,-1
 -5 -145 l 1,2,-1
 997 -145 l 1,3,-1
 998 -273 l 1,0,-1
EndSplineSet
EndChar

StartChar: grave
Encoding: 96 96 65
Width: 593
Flags: W
LayerCount: 2
Fore
SplineSet
1 1492 m 1,0,-1
 215 1492 l 1,1,-1
 462 1172 l 1,2,-1
 333 1172 l 1,3,-1
 1 1492 l 1,0,-1
EndSplineSet
EndChar

StartChar: a
Encoding: 97 97 66
Width: 1244
Flags: W
LayerCount: 2
Fore
SplineSet
582 1051 m 0,0,1
 645 1051 645 1051 697 1039.5 c 128,-1,2
 749 1028 749 1028 793 1007 c 128,-1,3
 837 986 837 986 874 955 c 128,-1,4
 911 924 911 924 943 885 c 1,5,-1
 949 1026 l 1,6,-1
 1112 1026 l 1,7,-1
 1108 773 l 1,8,-1
 1108 0 l 1,9,-1
 943 0 l 1,10,-1
 945 144 l 1,11,12
 921 112 921 112 884.5 81.5 c 128,-1,13
 848 51 848 51 802 28 c 128,-1,14
 756 5 756 5 700.5 -9 c 128,-1,15
 645 -23 645 -23 584 -23 c 0,16,17
 498 -23 498 -23 428 -0.5 c 128,-1,18
 358 22 358 22 303 61.5 c 128,-1,19
 248 101 248 101 207.5 154 c 128,-1,20
 167 207 167 207 141 268 c 128,-1,21
 115 329 115 329 102 394.5 c 128,-1,22
 89 460 89 460 89 524 c 0,23,24
 89 623 89 623 119.5 718 c 128,-1,25
 150 813 150 813 211.5 887 c 128,-1,26
 273 961 273 961 365.5 1006 c 128,-1,27
 458 1051 458 1051 582 1051 c 0,0,1
601 109 m 0,28,29
 671 109 671 109 732.5 137.5 c 128,-1,30
 794 166 794 166 840.5 221.5 c 128,-1,31
 887 277 887 277 914.5 359.5 c 128,-1,32
 942 442 942 442 943 550 c 0,33,34
 943 631 943 631 918.5 698 c 128,-1,35
 894 765 894 765 849 814 c 128,-1,36
 804 863 804 863 739.5 890 c 128,-1,37
 675 917 675 917 595 917 c 0,38,39
 534 917 534 917 485 900.5 c 128,-1,40
 436 884 436 884 398 855 c 128,-1,41
 360 826 360 826 332 787 c 128,-1,42
 304 748 304 748 286 703.5 c 128,-1,43
 268 659 268 659 259.5 611 c 128,-1,44
 251 563 251 563 251 516 c 0,45,46
 251 470 251 470 257.5 421.5 c 128,-1,47
 264 373 264 373 279 328 c 128,-1,48
 294 283 294 283 320 243 c 128,-1,49
 346 203 346 203 384.5 173.5 c 128,-1,50
 423 144 423 144 476.5 126.5 c 128,-1,51
 530 109 530 109 601 109 c 0,28,29
EndSplineSet
EndChar

StartChar: b
Encoding: 98 98 67
Width: 1239
Flags: W
LayerCount: 2
Fore
SplineSet
318 0 m 1,0,-1
 150 0 l 1,1,2
 151 68 151 68 153 123 c 0,3,4
 154 147 154 147 154.5 170.5 c 128,-1,5
 155 194 155 194 155.5 214 c 128,-1,6
 156 234 156 234 156.5 249 c 128,-1,7
 157 264 157 264 157 270 c 2,8,-1
 157 1492 l 1,9,-1
 322 1492 l 1,10,-1
 322 881 l 1,11,12
 385 968 385 968 480.5 1009.5 c 128,-1,13
 576 1051 576 1051 688 1051 c 0,14,15
 807 1051 807 1051 892 1008 c 128,-1,16
 977 965 977 965 1031 893 c 128,-1,17
 1085 821 1085 821 1110.5 725.5 c 128,-1,18
 1136 630 1136 630 1136 525 c 0,19,20
 1136 413 1136 413 1106.5 313.5 c 128,-1,21
 1077 214 1077 214 1018.5 139 c 128,-1,22
 960 64 960 64 872 20.5 c 128,-1,23
 784 -23 784 -23 668 -23 c 0,24,25
 559 -23 559 -23 472 17.5 c 128,-1,26
 385 58 385 58 322 137 c 1,27,-1
 318 0 l 1,0,-1
969 550 m 0,28,29
 969 626 969 626 947 693 c 128,-1,30
 925 760 925 760 883.5 809.5 c 128,-1,31
 842 859 842 859 783 888 c 128,-1,32
 724 917 724 917 650 917 c 0,33,34
 569 917 569 917 507.5 884.5 c 128,-1,35
 446 852 446 852 404.5 796.5 c 128,-1,36
 363 741 363 741 342.5 668 c 128,-1,37
 322 595 322 595 322 515 c 0,38,39
 322 428 322 428 338.5 358 c 128,-1,40
 355 288 355 288 393.5 238.5 c 128,-1,41
 432 189 432 189 494 162 c 128,-1,42
 556 135 556 135 647 135 c 0,43,44
 737 135 737 135 799 170.5 c 128,-1,45
 861 206 861 206 898.5 264 c 128,-1,46
 936 322 936 322 952.5 396.5 c 128,-1,47
 969 471 969 471 969 550 c 0,28,29
EndSplineSet
EndChar

StartChar: c
Encoding: 99 99 68
Width: 1046
Flags: W
LayerCount: 2
Fore
SplineSet
881 801 m 1,0,1
 833 861 833 861 764 889 c 128,-1,2
 695 917 695 917 617 917 c 0,3,4
 534 917 534 917 469 885 c 128,-1,5
 404 853 404 853 358.5 797.5 c 128,-1,6
 313 742 313 742 289 667.5 c 128,-1,7
 265 593 265 593 265 508 c 0,8,9
 265 424 265 424 286 351 c 128,-1,10
 307 278 307 278 350 224 c 128,-1,11
 393 170 393 170 459 139.5 c 128,-1,12
 525 109 525 109 615 109 c 0,13,14
 784 109 784 109 918 225 c 1,15,-1
 964 87 l 1,16,17
 891 29 891 29 801 3 c 128,-1,18
 711 -23 711 -23 602 -23 c 0,19,20
 475 -23 475 -23 379.5 18.5 c 128,-1,21
 284 60 284 60 220 131.5 c 128,-1,22
 156 203 156 203 124 299 c 128,-1,23
 92 395 92 395 92 503 c 0,24,25
 92 615 92 615 126 715 c 128,-1,26
 160 815 160 815 225 889.5 c 128,-1,27
 290 964 290 964 385 1007.5 c 128,-1,28
 480 1051 480 1051 602 1051 c 0,29,30
 723 1051 723 1051 814 1013 c 128,-1,31
 905 975 905 975 956 908 c 1,32,-1
 881 801 l 1,0,1
EndSplineSet
EndChar

StartChar: d
Encoding: 100 100 69
Width: 1240
Flags: W
LayerCount: 2
Fore
SplineSet
915 0 m 1,0,-1
 911 147 l 1,1,2
 846 55 846 55 760.5 16 c 128,-1,3
 675 -23 675 -23 557 -23 c 0,4,5
 438 -23 438 -23 350.5 18.5 c 128,-1,6
 263 60 263 60 206 132 c 128,-1,7
 149 204 149 204 121 300.5 c 128,-1,8
 93 397 93 397 93 506 c 0,9,10
 93 614 93 614 122.5 712.5 c 128,-1,11
 152 811 152 811 211.5 886.5 c 128,-1,12
 271 962 271 962 359.5 1006.5 c 128,-1,13
 448 1051 448 1051 565 1051 c 0,14,15
 676 1051 676 1051 764.5 1009 c 128,-1,16
 853 967 853 967 911 888 c 1,17,-1
 911 1492 l 1,18,-1
 1076 1492 l 1,19,-1
 1076 256 l 1,20,21
 1077 196 1077 196 1078.5 127 c 128,-1,22
 1080 58 1080 58 1082 0 c 1,23,-1
 915 0 l 1,0,-1
583 109 m 0,24,25
 664 109 664 109 725.5 140.5 c 128,-1,26
 787 172 787 172 828.5 229.5 c 128,-1,27
 870 287 870 287 891 368 c 128,-1,28
 912 449 912 449 912 548 c 0,29,30
 912 631 912 631 889.5 699 c 128,-1,31
 867 767 867 767 825 815.5 c 128,-1,32
 783 864 783 864 724 890.5 c 128,-1,33
 665 917 665 917 592 917 c 0,34,35
 507 917 507 917 445.5 884 c 128,-1,36
 384 851 384 851 344 795 c 128,-1,37
 304 739 304 739 285 664.5 c 128,-1,38
 266 590 266 590 266 507 c 0,39,40
 266 429 266 429 282.5 357 c 128,-1,41
 299 285 299 285 336.5 230 c 128,-1,42
 374 175 374 175 434.5 142 c 128,-1,43
 495 109 495 109 583 109 c 0,24,25
EndSplineSet
EndChar

StartChar: e
Encoding: 101 101 70
Width: 1173
Flags: W
LayerCount: 2
Fore
SplineSet
906 609 m 1,0,-1
 905 623 l 2,1,2
 900 688 900 688 879.5 742 c 128,-1,3
 859 796 859 796 823 835 c 128,-1,4
 787 874 787 874 735.5 895.5 c 128,-1,5
 684 917 684 917 619 917 c 0,6,7
 549 917 549 917 493 892.5 c 128,-1,8
 437 868 437 868 396.5 826 c 128,-1,9
 356 784 356 784 331 728 c 128,-1,10
 306 672 306 672 297 609 c 1,11,-1
 906 609 l 1,0,-1
1039 115 m 1,12,13
 956 43 956 43 855 10 c 128,-1,14
 754 -23 754 -23 626 -23 c 0,15,16
 505 -23 505 -23 410 16.5 c 128,-1,17
 315 56 315 56 249.5 126.5 c 128,-1,18
 184 197 184 197 149.5 295 c 128,-1,19
 115 393 115 393 115 510 c 0,20,21
 115 621 115 621 149 719 c 128,-1,22
 183 817 183 817 248 891 c 128,-1,23
 313 965 313 965 406.5 1008 c 128,-1,24
 500 1051 500 1051 620 1051 c 0,25,26
 738 1051 738 1051 825 1012.5 c 128,-1,27
 912 974 912 974 968 906.5 c 128,-1,28
 1024 839 1024 839 1051.5 746 c 128,-1,29
 1079 653 1079 653 1079 544 c 0,30,31
 1079 533 1079 533 1078.5 518.5 c 128,-1,32
 1078 504 1078 504 1077 492 c 1,33,-1
 290 492 l 1,34,-1
 293 447 l 2,35,36
 299 372 299 372 323.5 310 c 128,-1,37
 348 248 348 248 391 203 c 128,-1,38
 434 158 434 158 495.5 133.5 c 128,-1,39
 557 109 557 109 636 109 c 0,40,41
 742 109 742 109 830 146 c 128,-1,42
 918 183 918 183 988 252 c 1,43,-1
 1039 115 l 1,12,13
EndSplineSet
EndChar

StartChar: f
Encoding: 102 102 71
Width: 702
Flags: W
LayerCount: 2
Fore
SplineSet
411 0 m 1,0,-1
 246 0 l 1,1,-1
 246 919 l 1,2,-1
 46 919 l 1,3,-1
 45 1026 l 1,4,-1
 246 1026 l 1,5,-1
 248 1138 l 2,6,7
 249 1219 249 1219 264 1288 c 128,-1,8
 279 1357 279 1357 313 1407 c 128,-1,9
 347 1457 347 1457 403.5 1485.5 c 128,-1,10
 460 1514 460 1514 545 1514 c 0,11,12
 566 1514 566 1514 583 1512.5 c 128,-1,13
 600 1511 600 1511 615.5 1508 c 128,-1,14
 631 1505 631 1505 647 1501 c 128,-1,15
 663 1497 663 1497 681 1493 c 1,16,-1
 683 1364 l 1,17,18
 663 1372 663 1372 632.5 1375.5 c 128,-1,19
 602 1379 602 1379 573 1379 c 0,20,21
 522 1379 522 1379 490.5 1365 c 128,-1,22
 459 1351 459 1351 442 1323.5 c 128,-1,23
 425 1296 425 1296 418.5 1255.5 c 128,-1,24
 412 1215 412 1215 412 1162 c 2,25,-1
 411 1026 l 1,26,-1
 658 1026 l 1,27,-1
 659 919 l 1,28,-1
 411 919 l 1,29,-1
 411 0 l 1,0,-1
EndSplineSet
EndChar

StartChar: g
Encoding: 103 103 72
Width: 1241
Flags: W
LayerCount: 2
Fore
SplineSet
201 -187 m 1,0,1
 280 -236 280 -236 367 -259 c 128,-1,2
 454 -282 454 -282 538 -282 c 0,3,4
 626 -282 626 -282 695.5 -262.5 c 128,-1,5
 765 -243 765 -243 813 -202.5 c 128,-1,6
 861 -162 861 -162 886.5 -99.5 c 128,-1,7
 912 -37 912 -37 912 49 c 2,8,-1
 912 176 l 1,9,10
 852 88 852 88 760.5 44 c 128,-1,11
 669 0 669 0 560 0 c 0,12,13
 449 0 449 0 362 37 c 128,-1,14
 275 74 275 74 215 141 c 128,-1,15
 155 208 155 208 123 302 c 128,-1,16
 91 396 91 396 91 511 c 0,17,18
 91 620 91 620 121 718.5 c 128,-1,19
 151 817 151 817 211 890.5 c 128,-1,20
 271 964 271 964 361.5 1007.5 c 128,-1,21
 452 1051 452 1051 572 1051 c 0,22,23
 689 1051 689 1051 770.5 1008.5 c 128,-1,24
 852 966 852 966 912 885 c 1,25,26
 912 902 912 902 913 926.5 c 128,-1,27
 914 951 914 951 915 973 c 0,28,29
 916 999 916 999 918 1026 c 1,30,-1
 1083 1026 l 1,31,32
 1081 978 1081 978 1080 931 c 1,33,34
 1078 891 1078 891 1077.5 848 c 128,-1,35
 1077 805 1077 805 1077 773 c 2,36,-1
 1077 147 l 2,37,38
 1077 79 1077 79 1069 10.5 c 128,-1,39
 1061 -58 1061 -58 1040 -121 c 128,-1,40
 1019 -184 1019 -184 982 -239 c 128,-1,41
 945 -294 945 -294 886.5 -334.5 c 128,-1,42
 828 -375 828 -375 745 -398.5 c 128,-1,43
 662 -422 662 -422 550 -422 c 0,44,45
 450 -422 450 -422 357.5 -402 c 128,-1,46
 265 -382 265 -382 182 -340 c 1,47,-1
 201 -187 l 1,0,1
912 550 m 0,48,49
 912 626 912 626 890 693 c 128,-1,50
 868 760 868 760 826.5 809.5 c 128,-1,51
 785 859 785 859 726 888 c 128,-1,52
 667 917 667 917 593 917 c 0,53,54
 512 917 512 917 450.5 884.5 c 128,-1,55
 389 852 389 852 347.5 796.5 c 128,-1,56
 306 741 306 741 285.5 668 c 128,-1,57
 265 595 265 595 265 515 c 0,58,59
 265 428 265 428 281.5 358 c 128,-1,60
 298 288 298 288 336.5 238.5 c 128,-1,61
 375 189 375 189 437 162 c 128,-1,62
 499 135 499 135 590 135 c 0,63,64
 680 135 680 135 742 170.5 c 128,-1,65
 804 206 804 206 841.5 264 c 128,-1,66
 879 322 879 322 895.5 396.5 c 128,-1,67
 912 471 912 471 912 550 c 0,48,49
EndSplineSet
EndChar

StartChar: h
Encoding: 104 104 73
Width: 1217
Flags: W
LayerCount: 2
Fore
SplineSet
334 1492 m 1,0,-1
 334 890 l 1,1,2
 397 975 397 975 481 1013 c 128,-1,3
 565 1051 565 1051 679 1051 c 0,4,5
 791 1051 791 1051 863.5 1014.5 c 128,-1,6
 936 978 936 978 978.5 919 c 128,-1,7
 1021 860 1021 860 1037.5 786 c 128,-1,8
 1054 712 1054 712 1054 636 c 2,9,-1
 1054 0 l 1,10,-1
 889 0 l 1,11,-1
 889 626 l 2,12,13
 889 690 889 690 876.5 743.5 c 128,-1,14
 864 797 864 797 834.5 835.5 c 128,-1,15
 805 874 805 874 755.5 895.5 c 128,-1,16
 706 917 706 917 633 917 c 0,17,18
 562 917 562 917 506.5 890.5 c 128,-1,19
 451 864 451 864 413 818.5 c 128,-1,20
 375 773 375 773 354.5 712.5 c 128,-1,21
 334 652 334 652 334 585 c 2,22,-1
 334 0 l 1,23,-1
 169 0 l 1,24,-1
 169 1492 l 1,25,-1
 334 1492 l 1,0,-1
EndSplineSet
EndChar

StartChar: i
Encoding: 105 105 74
Width: 503
Flags: W
LayerCount: 2
Fore
SplineSet
328 1462 m 1,0,-1
 328 1307 l 1,1,-1
 175 1307 l 1,2,-1
 175 1462 l 1,3,-1
 328 1462 l 1,0,-1
167 1026 m 1,4,-1
 332 1026 l 1,5,-1
 332 0 l 1,6,-1
 167 0 l 1,7,-1
 167 1026 l 1,4,-1
EndSplineSet
EndChar

StartChar: j
Encoding: 106 106 75
Width: 503
Flags: W
LayerCount: 2
Fore
SplineSet
327 1462 m 1,0,-1
 327 1307 l 1,1,-1
 174 1307 l 1,2,-1
 174 1462 l 1,3,-1
 327 1462 l 1,0,-1
-102 -273 m 1,4,5
 -75 -278 -75 -278 -54.5 -280.5 c 128,-1,6
 -34 -283 -34 -283 -18 -283 c 0,7,8
 79 -283 79 -283 127 -207.5 c 128,-1,9
 175 -132 175 -132 175 31 c 2,10,-1
 175 1026 l 1,11,-1
 340 1026 l 1,12,-1
 340 106 l 1,13,14
 341 50 341 50 337.5 -11.5 c 128,-1,15
 334 -73 334 -73 323 -132.5 c 128,-1,16
 312 -192 312 -192 291 -246 c 128,-1,17
 270 -300 270 -300 234.5 -340.5 c 128,-1,18
 199 -381 199 -381 146.5 -405 c 128,-1,19
 94 -429 94 -429 21 -429 c 0,20,21
 -37 -429 -37 -429 -101 -416 c 1,22,-1
 -102 -273 l 1,4,5
EndSplineSet
EndChar

StartChar: k
Encoding: 107 107 76
Width: 1082
Flags: W
LayerCount: 2
Fore
SplineSet
343 1492 m 1,0,-1
 343 587 l 1,1,-1
 809 1026 l 1,2,-1
 1034 1026 l 1,3,-1
 504 542 l 1,4,5
 645 407 645 407 788 271 c 128,-1,6
 931 135 931 135 1072 0 c 1,7,-1
 853 0 l 1,8,-1
 343 501 l 1,9,-1
 343 0 l 1,10,-1
 178 0 l 1,11,-1
 178 1492 l 1,12,-1
 343 1492 l 1,0,-1
EndSplineSet
EndChar

StartChar: l
Encoding: 108 108 77
Width: 503
Flags: W
LayerCount: 2
Fore
SplineSet
333 1492 m 1,0,-1
 333 0 l 1,1,-1
 168 0 l 1,2,-1
 168 1492 l 1,3,-1
 333 1492 l 1,0,-1
EndSplineSet
EndChar

StartChar: m
Encoding: 109 109 78
Width: 1901
Flags: W
LayerCount: 2
Fore
SplineSet
330 1026 m 1,0,-1
 334 888 l 1,1,2
 394 972 394 972 476.5 1011.5 c 128,-1,3
 559 1051 559 1051 665 1051 c 0,4,5
 723 1051 723 1051 774.5 1036.5 c 128,-1,6
 826 1022 826 1022 868.5 996 c 128,-1,7
 911 970 911 970 943 932.5 c 128,-1,8
 975 895 975 895 994 849 c 1,9,10
 1052 954 1052 954 1143 1002.5 c 128,-1,11
 1234 1051 1234 1051 1366 1051 c 0,12,13
 1475 1051 1475 1051 1546 1015.5 c 128,-1,14
 1617 980 1617 980 1658.5 922 c 128,-1,15
 1700 864 1700 864 1716.5 789.5 c 128,-1,16
 1733 715 1733 715 1733 636 c 2,17,-1
 1733 0 l 1,18,-1
 1568 0 l 1,19,-1
 1568 558 l 2,20,21
 1568 622 1568 622 1560.5 686 c 128,-1,22
 1553 750 1553 750 1527.5 801.5 c 128,-1,23
 1502 853 1502 853 1452 885 c 128,-1,24
 1402 917 1402 917 1317 917 c 0,25,26
 1250 917 1250 917 1197.5 889.5 c 128,-1,27
 1145 862 1145 862 1108.5 816 c 128,-1,28
 1072 770 1072 770 1053 710.5 c 128,-1,29
 1034 651 1034 651 1034 587 c 2,30,-1
 1034 0 l 1,31,-1
 869 0 l 1,32,-1
 869 635 l 2,33,34
 869 693 869 693 855 744.5 c 128,-1,35
 841 796 841 796 810.5 834 c 128,-1,36
 780 872 780 872 732 894.5 c 128,-1,37
 684 917 684 917 616 917 c 256,38,39
 548 917 548 917 495.5 890.5 c 128,-1,40
 443 864 443 864 407 819 c 128,-1,41
 371 774 371 774 352.5 714 c 128,-1,42
 334 654 334 654 334 587 c 2,43,-1
 334 0 l 1,44,-1
 169 0 l 1,45,-1
 169 761 l 2,46,47
 169 827 169 827 167.5 895 c 128,-1,48
 166 963 166 963 163 1026 c 1,49,-1
 330 1026 l 1,0,-1
EndSplineSet
EndChar

StartChar: n
Encoding: 110 110 79
Width: 1217
Flags: W
LayerCount: 2
Fore
SplineSet
333 0 m 1,0,-1
 168 0 l 1,1,-1
 168 779 l 2,2,3
 168 825 168 825 167 869.5 c 128,-1,4
 166 914 166 914 165 949 c 0,5,6
 163 989 163 989 162 1026 c 1,7,-1
 329 1026 l 1,8,-1
 333 884 l 1,9,10
 393 969 393 969 477.5 1010 c 128,-1,11
 562 1051 562 1051 677 1051 c 0,12,13
 789 1051 789 1051 862 1014 c 128,-1,14
 935 977 935 977 977.5 910.5 c 128,-1,15
 1020 844 1020 844 1036.5 752 c 128,-1,16
 1053 660 1053 660 1053 550 c 2,17,-1
 1053 0 l 1,18,-1
 888 0 l 1,19,-1
 888 531 l 2,20,21
 888 618 888 618 880.5 689.5 c 128,-1,22
 873 761 873 761 848.5 811.5 c 128,-1,23
 824 862 824 862 776 889.5 c 128,-1,24
 728 917 728 917 647 917 c 0,25,26
 572 917 572 917 514 888 c 128,-1,27
 456 859 456 859 416 818 c 128,-1,28
 376 777 376 777 354.5 731.5 c 128,-1,29
 333 686 333 686 333 652 c 2,30,-1
 333 0 l 1,0,-1
EndSplineSet
EndChar

StartChar: o
Encoding: 111 111 80
Width: 1238
Flags: W
LayerCount: 2
Fore
SplineSet
620 1051 m 0,0,1
 749 1051 749 1051 846.5 1009 c 128,-1,2
 944 967 944 967 1009 894 c 128,-1,3
 1074 821 1074 821 1107 723 c 128,-1,4
 1140 625 1140 625 1140 513 c 0,5,6
 1140 405 1140 405 1105.5 307.5 c 128,-1,7
 1071 210 1071 210 1004.5 136.5 c 128,-1,8
 938 63 938 63 840 20 c 128,-1,9
 742 -23 742 -23 616 -23 c 0,10,11
 488 -23 488 -23 390 19 c 128,-1,12
 292 61 292 61 225.5 133 c 128,-1,13
 159 205 159 205 124.5 302.5 c 128,-1,14
 90 400 90 400 90 511 c 256,15,16
 90 622 90 622 125 720.5 c 128,-1,17
 160 819 160 819 227.5 892.5 c 128,-1,18
 295 966 295 966 393.5 1008.5 c 128,-1,19
 492 1051 492 1051 620 1051 c 0,0,1
966 511 m 0,20,21
 966 593 966 593 945 667 c 128,-1,22
 924 741 924 741 881 796.5 c 128,-1,23
 838 852 838 852 772 884.5 c 128,-1,24
 706 917 706 917 616 917 c 0,25,26
 529 917 529 917 463 883.5 c 128,-1,27
 397 850 397 850 352.5 793.5 c 128,-1,28
 308 737 308 737 285.5 663 c 128,-1,29
 263 589 263 589 263 509 c 256,30,31
 263 429 263 429 285.5 357 c 128,-1,32
 308 285 308 285 352.5 229.5 c 128,-1,33
 397 174 397 174 464 141.5 c 128,-1,34
 531 109 531 109 620 109 c 0,35,36
 708 109 708 109 773 142 c 128,-1,37
 838 175 838 175 881 230.5 c 128,-1,38
 924 286 924 286 945 358.5 c 128,-1,39
 966 431 966 431 966 511 c 0,20,21
EndSplineSet
EndChar

StartChar: p
Encoding: 112 112 81
Width: 1239
Flags: W
LayerCount: 2
Fore
SplineSet
323 -427 m 1,0,-1
 159 -427 l 1,1,-1
 159 758 l 2,2,3
 159 779 159 779 158.5 809.5 c 128,-1,4
 158 840 158 840 157 876 c 128,-1,5
 156 912 156 912 154.5 950.5 c 128,-1,6
 153 989 153 989 151 1026 c 1,7,-1
 318 1026 l 1,8,-1
 323 880 l 1,9,10
 386 965 386 965 474.5 1008 c 128,-1,11
 563 1051 563 1051 668 1051 c 0,12,13
 789 1051 789 1051 877.5 1009 c 128,-1,14
 966 967 966 967 1024 895.5 c 128,-1,15
 1082 824 1082 824 1110.5 729 c 128,-1,16
 1139 634 1139 634 1139 527 c 0,17,18
 1139 419 1139 419 1109.5 319.5 c 128,-1,19
 1080 220 1080 220 1021.5 144 c 128,-1,20
 963 68 963 68 874.5 22.5 c 128,-1,21
 786 -23 786 -23 668 -23 c 0,22,23
 452 -23 452 -23 323 135 c 1,24,-1
 323 -427 l 1,0,-1
323 494 m 256,25,26
 323 411 323 411 344 340.5 c 128,-1,27
 365 270 365 270 405.5 218.5 c 128,-1,28
 446 167 446 167 506 138 c 128,-1,29
 566 109 566 109 644 109 c 0,30,31
 728 109 728 109 788.5 143 c 128,-1,32
 849 177 849 177 887.5 234 c 128,-1,33
 926 291 926 291 944.5 365.5 c 128,-1,34
 963 440 963 440 963 521 c 0,35,36
 963 597 963 597 947 668.5 c 128,-1,37
 931 740 931 740 894.5 795.5 c 128,-1,38
 858 851 858 851 798 884 c 128,-1,39
 738 917 738 917 650 917 c 0,40,41
 558 917 558 917 495.5 882 c 128,-1,42
 433 847 433 847 394.5 788.5 c 128,-1,43
 356 730 356 730 339.5 653.5 c 128,-1,44
 323 577 323 577 323 494 c 256,25,26
EndSplineSet
EndChar

StartChar: q
Encoding: 113 113 82
Width: 1240
Flags: W
LayerCount: 2
Fore
SplineSet
913 148 m 1,0,1
 847 60 847 60 753.5 18.5 c 128,-1,2
 660 -23 660 -23 545 -23 c 0,3,4
 433 -23 433 -23 348.5 18 c 128,-1,5
 264 59 264 59 207 130.5 c 128,-1,6
 150 202 150 202 121.5 298.5 c 128,-1,7
 93 395 93 395 93 506 c 0,8,9
 93 615 93 615 123 713.5 c 128,-1,10
 153 812 153 812 212 887 c 128,-1,11
 271 962 271 962 360 1006.5 c 128,-1,12
 449 1051 449 1051 567 1051 c 0,13,14
 679 1051 679 1051 767.5 1011 c 128,-1,15
 856 971 856 971 913 898 c 1,16,-1
 918 1026 l 1,17,-1
 1085 1026 l 1,18,19
 1081 968 1081 968 1079.5 910 c 128,-1,20
 1078 852 1078 852 1078 813 c 2,21,-1
 1078 -426 l 1,22,-1
 913 -426 l 1,23,-1
 913 148 l 1,0,1
913 543 m 0,24,25
 913 625 913 625 891.5 694 c 128,-1,26
 870 763 870 763 829.5 812.5 c 128,-1,27
 789 862 789 862 729 889.5 c 128,-1,28
 669 917 669 917 593 917 c 0,29,30
 509 917 509 917 447 884.5 c 128,-1,31
 385 852 385 852 345 796.5 c 128,-1,32
 305 741 305 741 285.5 666 c 128,-1,33
 266 591 266 591 266 507 c 0,34,35
 266 427 266 427 284 354.5 c 128,-1,36
 302 282 302 282 340 227.5 c 128,-1,37
 378 173 378 173 438 141 c 128,-1,38
 498 109 498 109 582 109 c 0,39,40
 678 109 678 109 741.5 146.5 c 128,-1,41
 805 184 805 184 843.5 245.5 c 128,-1,42
 882 307 882 307 897.5 384.5 c 128,-1,43
 913 462 913 462 913 543 c 0,24,25
EndSplineSet
EndChar

StartChar: r
Encoding: 114 114 83
Width: 737
Flags: W
LayerCount: 2
Fore
SplineSet
332 0 m 1,0,-1
 167 0 l 1,1,-1
 167 779 l 2,2,3
 167 842 167 842 165 905 c 128,-1,4
 163 968 163 968 161 1026 c 1,5,-1
 326 1026 l 1,6,-1
 332 871 l 1,7,8
 374 956 374 956 446 1003 c 128,-1,9
 518 1050 518 1050 606 1050 c 0,10,11
 664 1050 664 1050 714 1038 c 1,12,-1
 716 883 l 1,13,14
 695 894 695 894 665 900.5 c 128,-1,15
 635 907 635 907 601 907 c 0,16,17
 541 907 541 907 491 883.5 c 128,-1,18
 441 860 441 860 406 816 c 128,-1,19
 371 772 371 772 351.5 709 c 128,-1,20
 332 646 332 646 332 568 c 2,21,-1
 332 0 l 1,0,-1
EndSplineSet
EndChar

StartChar: s
Encoding: 115 115 84
Width: 1007
Flags: W
LayerCount: 2
Fore
SplineSet
790 847 m 1,0,1
 736 884 736 884 660 900.5 c 128,-1,2
 584 917 584 917 502 917 c 0,3,4
 456 917 456 917 417 907 c 128,-1,5
 378 897 378 897 349.5 878.5 c 128,-1,6
 321 860 321 860 304.5 833.5 c 128,-1,7
 288 807 288 807 288 774 c 0,8,9
 288 739 288 739 305 714 c 128,-1,10
 322 689 322 689 351 670.5 c 128,-1,11
 380 652 380 652 419 637.5 c 128,-1,12
 458 623 458 623 502 610 c 0,13,14
 542 598 542 598 587.5 585 c 128,-1,15
 633 572 633 572 678 554.5 c 128,-1,16
 723 537 723 537 764 513.5 c 128,-1,17
 805 490 805 490 836.5 458 c 128,-1,18
 868 426 868 426 886.5 383 c 128,-1,19
 905 340 905 340 905 284 c 0,20,21
 905 206 905 206 869 148.5 c 128,-1,22
 833 91 833 91 774 53 c 128,-1,23
 715 15 715 15 639 -4 c 128,-1,24
 563 -23 563 -23 483 -23 c 0,25,26
 430 -23 430 -23 378 -17 c 128,-1,27
 326 -11 326 -11 278.5 3 c 128,-1,28
 231 17 231 17 190.5 39 c 128,-1,29
 150 61 150 61 121 94 c 1,30,-1
 165 229 l 1,31,32
 192 197 192 197 228 174 c 128,-1,33
 264 151 264 151 305.5 136.5 c 128,-1,34
 347 122 347 122 391 115.5 c 128,-1,35
 435 109 435 109 477 109 c 0,36,37
 533 109 533 109 580 119.5 c 128,-1,38
 627 130 627 130 661.5 150.5 c 128,-1,39
 696 171 696 171 715.5 201.5 c 128,-1,40
 735 232 735 232 735 272 c 0,41,42
 735 318 735 318 713 346.5 c 128,-1,43
 691 375 691 375 652 395.5 c 128,-1,44
 613 416 613 416 559 431.5 c 128,-1,45
 505 447 505 447 442 467 c 0,46,47
 367 491 367 491 306.5 517.5 c 128,-1,48
 246 544 246 544 204 579 c 128,-1,49
 162 614 162 614 139.5 660.5 c 128,-1,50
 117 707 117 707 117 771 c 0,51,52
 117 842 117 842 149.5 895 c 128,-1,53
 182 948 182 948 235 982.5 c 128,-1,54
 288 1017 288 1017 355.5 1034 c 128,-1,55
 423 1051 423 1051 493 1051 c 0,56,57
 596 1051 596 1051 683.5 1031.5 c 128,-1,58
 771 1012 771 1012 832 964 c 1,59,-1
 790 847 l 1,0,1
EndSplineSet
EndChar

StartChar: t
Encoding: 116 116 85
Width: 729
Flags: W
LayerCount: 2
Fore
SplineSet
243 919 m 1,0,-1
 40 919 l 1,1,-1
 40 1026 l 1,2,-1
 243 1026 l 1,3,-1
 248 1298 l 1,4,-1
 408 1345 l 1,5,-1
 408 1026 l 1,6,-1
 664 1026 l 1,7,-1
 664 919 l 1,8,-1
 408 919 l 1,9,-1
 408 306 l 2,10,11
 408 272 408 272 410 236.5 c 128,-1,12
 412 201 412 201 423.5 171.5 c 128,-1,13
 435 142 435 142 459 123.5 c 128,-1,14
 483 105 483 105 527 105 c 0,15,16
 559 105 559 105 594 113.5 c 128,-1,17
 629 122 629 122 671 137 c 1,18,-1
 670 14 l 1,19,20
 635 -6 635 -6 594 -14.5 c 128,-1,21
 553 -23 553 -23 501 -23 c 0,22,23
 417 -23 417 -23 366.5 5.5 c 128,-1,24
 316 34 316 34 288.5 82 c 128,-1,25
 261 130 261 130 252 194 c 128,-1,26
 243 258 243 258 243 329 c 2,27,-1
 243 919 l 1,0,-1
EndSplineSet
EndChar

StartChar: u
Encoding: 117 117 86
Width: 1217
Flags: W
LayerCount: 2
Fore
SplineSet
878 1026 m 1,0,-1
 1043 1026 l 1,1,-1
 1043 246 l 2,2,3
 1043 180 1043 180 1044.5 121.5 c 128,-1,4
 1046 63 1046 63 1051 0 c 1,5,-1
 881 0 l 1,6,-1
 878 135 l 1,7,8
 762 -23 762 -23 540 -23 c 0,9,10
 464 -23 464 -23 406 -5.5 c 128,-1,11
 348 12 348 12 305.5 42 c 128,-1,12
 263 72 263 72 234.5 113 c 128,-1,13
 206 154 206 154 189 201 c 128,-1,14
 172 248 172 248 164.5 298.5 c 128,-1,15
 157 349 157 349 157 399 c 2,16,-1
 157 1026 l 1,17,-1
 322 1026 l 1,18,-1
 322 399 l 1,19,20
 321 256 321 256 383 182.5 c 128,-1,21
 445 109 445 109 578 109 c 0,22,23
 650 109 650 109 705.5 135 c 128,-1,24
 761 161 761 161 799.5 206 c 128,-1,25
 838 251 838 251 858 310.5 c 128,-1,26
 878 370 878 370 878 436 c 2,27,-1
 878 1026 l 1,0,-1
EndSplineSet
EndChar

StartChar: v
Encoding: 118 118 87
Width: 1063
Flags: W
LayerCount: 2
Fore
SplineSet
14 1026 m 1,0,-1
 196 1026 l 1,1,-1
 477 336 l 2,2,3
 484 319 484 319 494 290.5 c 128,-1,4
 504 262 504 262 513 233 c 0,5,6
 524 200 524 200 535 163 c 1,7,8
 545 199 545 199 556 232 c 0,9,10
 565 260 565 260 574 289 c 128,-1,11
 583 318 583 318 591 336 c 2,12,-1
 867 1026 l 1,13,-1
 1044 1026 l 1,14,-1
 611 0 l 1,15,-1
 443 0 l 1,16,-1
 14 1026 l 1,0,-1
EndSplineSet
EndChar

StartChar: w
Encoding: 119 119 88
Width: 1695
Flags: W
LayerCount: 2
Fore
SplineSet
201 1026 m 1,0,-1
 450 284 l 2,1,2
 454 272 454 272 458.5 255.5 c 128,-1,3
 463 239 463 239 468 223 c 0,4,5
 473 205 473 205 479 186 c 1,6,7
 485 202 485 202 490 219 c 0,8,9
 495 233 495 233 500 248.5 c 128,-1,10
 505 264 505 264 510 276 c 2,11,-1
 775 1026 l 1,12,-1
 941 1026 l 1,13,-1
 1189 286 l 2,14,15
 1193 274 1193 274 1197.5 257.5 c 128,-1,16
 1202 241 1202 241 1207 226 c 0,17,18
 1212 208 1212 208 1218 189 c 1,19,20
 1225 207 1225 207 1231 225 c 0,21,22
 1236 240 1236 240 1241.5 256.5 c 128,-1,23
 1247 273 1247 273 1252 287 c 2,24,-1
 1492 1026 l 1,25,-1
 1661 1026 l 1,26,-1
 1293 0 l 1,27,-1
 1133 0 l 1,28,-1
 852 831 l 1,29,-1
 552 0 l 1,30,-1
 390 0 l 1,31,-1
 25 1026 l 1,32,-1
 201 1026 l 1,0,-1
EndSplineSet
EndChar

StartChar: x
Encoding: 120 120 89
Width: 1043
Flags: W
LayerCount: 2
Fore
SplineSet
420 514 m 1,0,-1
 39 1026 l 1,1,-1
 242 1026 l 1,2,-1
 526 614 l 1,3,-1
 819 1026 l 1,4,-1
 998 1026 l 1,5,-1
 620 518 l 1,6,-1
 1011 0 l 1,7,-1
 810 0 l 1,8,-1
 511 418 l 1,9,-1
 210 0 l 1,10,-1
 20 0 l 1,11,-1
 420 514 l 1,0,-1
EndSplineSet
EndChar

StartChar: y
Encoding: 121 121 90
Width: 1069
Flags: W
LayerCount: 2
Fore
SplineSet
17 1026 m 1,0,-1
 198 1026 l 1,1,-1
 530 171 l 1,2,-1
 871 1026 l 1,3,-1
 1046 1026 l 1,4,-1
 592 -72 l 2,5,6
 565 -138 565 -138 527 -197 c 128,-1,7
 489 -256 489 -256 440 -302.5 c 128,-1,8
 391 -349 391 -349 331.5 -381.5 c 128,-1,9
 272 -414 272 -414 201 -427 c 1,10,-1
 109 -314 l 1,11,12
 193 -292 193 -292 248 -260 c 128,-1,13
 303 -228 303 -228 338 -192 c 128,-1,14
 373 -156 373 -156 392.5 -117.5 c 128,-1,15
 412 -79 412 -79 425 -43 c 2,16,-1
 442 6 l 1,17,-1
 17 1026 l 1,0,-1
EndSplineSet
EndChar

StartChar: z
Encoding: 122 122 91
Width: 958
Flags: W
LayerCount: 2
Fore
SplineSet
58 89 m 1,0,-1
 658 891 l 1,1,-1
 84 891 l 1,2,-1
 84 1026 l 1,3,-1
 881 1026 l 1,4,-1
 881 939 l 1,5,-1
 283 134 l 1,6,-1
 896 134 l 1,7,-1
 898 0 l 1,8,-1
 58 0 l 1,9,-1
 58 89 l 1,0,-1
EndSplineSet
EndChar

StartChar: braceleft
Encoding: 123 123 92
Width: 627
Flags: W
LayerCount: 2
Fore
SplineSet
566 -259 m 1,0,1
 496 -256 496 -256 437 -240.5 c 128,-1,2
 378 -225 378 -225 334.5 -193 c 128,-1,3
 291 -161 291 -161 267 -111 c 128,-1,4
 243 -61 243 -61 243 11 c 2,5,-1
 244 274 l 2,6,7
 244 320 244 320 241 364.5 c 128,-1,8
 238 409 238 409 223 444.5 c 128,-1,9
 208 480 208 480 176 504 c 128,-1,10
 144 528 144 528 86 534 c 1,11,-1
 85 656 l 1,12,13
 129 660 129 660 160 678.5 c 128,-1,14
 191 697 191 697 210 727 c 128,-1,15
 229 757 229 757 238 798.5 c 128,-1,16
 247 840 247 840 247 890 c 1,17,18
 245 953 245 953 245 1016.5 c 128,-1,19
 245 1080 245 1080 243 1143 c 1,20,21
 243 1216 243 1216 260 1273 c 128,-1,22
 277 1330 277 1330 315 1369.5 c 128,-1,23
 353 1409 353 1409 415 1430 c 128,-1,24
 477 1451 477 1451 566 1451 c 1,25,-1
 566 1325 l 1,26,27
 527 1324 527 1324 497.5 1315.5 c 128,-1,28
 468 1307 468 1307 448.5 1287.5 c 128,-1,29
 429 1268 429 1268 419 1236.5 c 128,-1,30
 409 1205 409 1205 409 1157 c 2,31,-1
 408 868 l 2,32,33
 408 809 408 809 394 763.5 c 128,-1,34
 380 718 380 718 359.5 684.5 c 128,-1,35
 339 651 339 651 314.5 629 c 128,-1,36
 290 607 290 607 268 595 c 1,37,38
 311 575 311 575 337.5 543.5 c 128,-1,39
 364 512 364 512 379 474.5 c 128,-1,40
 394 437 394 437 399.5 398 c 128,-1,41
 405 359 405 359 405 325 c 0,42,43
 405 276 405 276 404 217 c 128,-1,44
 403 158 403 158 403 107 c 0,45,46
 403 37 403 37 411 -9.5 c 128,-1,47
 419 -56 419 -56 437.5 -83.5 c 128,-1,48
 456 -111 456 -111 487.5 -122 c 128,-1,49
 519 -133 519 -133 566 -133 c 1,50,-1
 566 -259 l 1,0,1
EndSplineSet
EndChar

StartChar: bar
Encoding: 124 124 93
Width: 500
Flags: W
LayerCount: 2
Fore
SplineSet
168 -491 m 1,0,-1
 168 1545 l 1,1,-1
 325 1545 l 1,2,-1
 325 -491 l 1,3,-1
 168 -491 l 1,0,-1
EndSplineSet
EndChar

StartChar: braceright
Encoding: 125 125 94
Width: 627
Flags: W
LayerCount: 2
Fore
SplineSet
66 -133 m 1,0,1
 113 -133 113 -133 144.5 -122 c 128,-1,2
 176 -111 176 -111 194.5 -83.5 c 128,-1,3
 213 -56 213 -56 221 -9.5 c 128,-1,4
 229 37 229 37 229 107 c 0,5,6
 229 158 229 158 228 217 c 128,-1,7
 227 276 227 276 227 325 c 0,8,9
 227 359 227 359 232.5 398 c 128,-1,10
 238 437 238 437 253 474.5 c 128,-1,11
 268 512 268 512 294.5 543.5 c 128,-1,12
 321 575 321 575 364 595 c 1,13,14
 342 607 342 607 317.5 629 c 128,-1,15
 293 651 293 651 272.5 684.5 c 128,-1,16
 252 718 252 718 238 763.5 c 128,-1,17
 224 809 224 809 224 868 c 2,18,-1
 223 1157 l 2,19,20
 223 1205 223 1205 213 1236.5 c 128,-1,21
 203 1268 203 1268 183.5 1287.5 c 128,-1,22
 164 1307 164 1307 134.5 1315.5 c 128,-1,23
 105 1324 105 1324 66 1325 c 1,24,-1
 66 1451 l 1,25,26
 155 1451 155 1451 216.5 1430 c 128,-1,27
 278 1409 278 1409 316.5 1369.5 c 128,-1,28
 355 1330 355 1330 372 1273 c 128,-1,29
 389 1216 389 1216 389 1143 c 1,30,31
 387 1080 387 1080 387 1016.5 c 128,-1,32
 387 953 387 953 385 890 c 1,33,34
 385 840 385 840 394 798.5 c 128,-1,35
 403 757 403 757 422 727 c 128,-1,36
 441 697 441 697 472 678.5 c 128,-1,37
 503 660 503 660 547 656 c 1,38,-1
 546 534 l 1,39,40
 488 528 488 528 456 504 c 128,-1,41
 424 480 424 480 409 444.5 c 128,-1,42
 394 409 394 409 391 364.5 c 128,-1,43
 388 320 388 320 388 274 c 2,44,-1
 389 11 l 2,45,46
 389 -61 389 -61 365 -111 c 128,-1,47
 341 -161 341 -161 297.5 -193 c 128,-1,48
 254 -225 254 -225 195 -240.5 c 128,-1,49
 136 -256 136 -256 66 -259 c 1,50,-1
 66 -133 l 1,0,1
EndSplineSet
EndChar

StartChar: asciitilde
Encoding: 126 126 95
Width: 1458
Flags: W
LayerCount: 2
Fore
SplineSet
491 705 m 0,0,1
 529 705 529 705 571.5 693 c 128,-1,2
 614 681 614 681 658 663.5 c 128,-1,3
 702 646 702 646 745 625 c 128,-1,4
 788 604 788 604 827.5 586.5 c 128,-1,5
 867 569 867 569 900 557 c 128,-1,6
 933 545 933 545 957 545 c 0,7,8
 990 545 990 545 1018 560 c 128,-1,9
 1046 575 1046 575 1068.5 600 c 128,-1,10
 1091 625 1091 625 1107 657 c 128,-1,11
 1123 689 1123 689 1131 723 c 1,12,-1
 1256 684 l 1,13,14
 1242 624 1242 624 1216 574 c 128,-1,15
 1190 524 1190 524 1152 487.5 c 128,-1,16
 1114 451 1114 451 1064.5 430.5 c 128,-1,17
 1015 410 1015 410 956 410 c 0,18,19
 926 410 926 410 888.5 422 c 128,-1,20
 851 434 851 434 810.5 452 c 128,-1,21
 770 470 770 470 727 490.5 c 128,-1,22
 684 511 684 511 643 529 c 128,-1,23
 602 547 602 547 563.5 559 c 128,-1,24
 525 571 525 571 494 571 c 0,25,26
 455 571 455 571 424 555 c 128,-1,27
 393 539 393 539 369 513 c 128,-1,28
 345 487 345 487 328.5 453.5 c 128,-1,29
 312 420 312 420 304 385 c 1,30,-1
 189 440 l 1,31,32
 200 492 200 492 225 539.5 c 128,-1,33
 250 587 250 587 288 624 c 128,-1,34
 326 661 326 661 377 683 c 128,-1,35
 428 705 428 705 491 705 c 0,0,1
EndSplineSet
EndChar

StartChar: dieresis
Encoding: 168 168 97
Width: 743
Flags: W
LayerCount: 2
Fore
SplineSet
285 1246 m 1,0,-1
 122 1246 l 1,1,-1
 122 1409 l 1,2,-1
 286 1409 l 1,3,-1
 285 1246 l 1,0,-1
618 1246 m 1,4,-1
 454 1246 l 1,5,-1
 454 1409 l 1,6,-1
 618 1409 l 1,7,-1
 618 1246 l 1,4,-1
EndSplineSet
EndChar

StartChar: ring
Encoding: 730 730 99
Width: 605
Flags: W
LayerCount: 2
Fore
SplineSet
410 1340 m 0,0,1
 410 1362 410 1362 401.5 1381 c 128,-1,2
 393 1400 393 1400 378 1414 c 128,-1,3
 363 1428 363 1428 342.5 1436.5 c 128,-1,4
 322 1445 322 1445 299 1445 c 0,5,6
 277 1445 277 1445 257 1436.5 c 128,-1,7
 237 1428 237 1428 222 1414 c 128,-1,8
 207 1400 207 1400 198 1380.5 c 128,-1,9
 189 1361 189 1361 189 1340 c 0,10,11
 189 1294 189 1294 218.5 1264.5 c 128,-1,12
 248 1235 248 1235 299 1235 c 0,13,14
 321 1235 321 1235 341 1243.5 c 128,-1,15
 361 1252 361 1252 376.5 1266 c 128,-1,16
 392 1280 392 1280 401 1299.5 c 128,-1,17
 410 1319 410 1319 410 1340 c 0,0,1
90 1339 m 0,18,19
 90 1380 90 1380 106.5 1415 c 128,-1,20
 123 1450 123 1450 151.5 1475.5 c 128,-1,21
 180 1501 180 1501 218.5 1515.5 c 128,-1,22
 257 1530 257 1530 300 1530 c 0,23,24
 344 1530 344 1530 382.5 1515 c 128,-1,25
 421 1500 421 1500 449.5 1474.5 c 128,-1,26
 478 1449 478 1449 494 1414 c 128,-1,27
 510 1379 510 1379 510 1340 c 0,28,29
 510 1300 510 1300 493 1265.5 c 128,-1,30
 476 1231 476 1231 447.5 1205 c 128,-1,31
 419 1179 419 1179 381 1164 c 128,-1,32
 343 1149 343 1149 301 1149 c 0,33,34
 257 1149 257 1149 218.5 1163.5 c 128,-1,35
 180 1178 180 1178 151.5 1203.5 c 128,-1,36
 123 1229 123 1229 106.5 1264 c 128,-1,37
 90 1299 90 1299 90 1339 c 0,18,19
EndSplineSet
EndChar

StartChar: cedilla
Encoding: 184 184 101
Width: 529
Flags: W
LayerCount: 2
Fore
SplineSet
60 -289 m 1,0,1
 104 -300 104 -300 142 -306.5 c 128,-1,2
 180 -313 180 -313 211 -313 c 0,3,4
 274 -313 274 -313 299.5 -293 c 128,-1,5
 325 -273 325 -273 325 -241 c 0,6,7
 325 -200 325 -200 294.5 -184 c 128,-1,8
 264 -168 264 -168 216 -168 c 0,9,10
 213 -168 213 -168 202 -169 c 128,-1,11
 191 -170 191 -170 179 -171 c 2,12,-1
 147 -173 l 1,13,-1
 180 17 l 1,14,-1
 277 17 l 1,15,-1
 259 -90 l 1,16,17
 301 -91 301 -91 339 -99.5 c 128,-1,18
 377 -108 377 -108 405.5 -126 c 128,-1,19
 434 -144 434 -144 451 -171.5 c 128,-1,20
 468 -199 468 -199 468 -239 c 256,21,22
 468 -279 468 -279 449.5 -308.5 c 128,-1,23
 431 -338 431 -338 398.5 -357.5 c 128,-1,24
 366 -377 366 -377 322 -386.5 c 128,-1,25
 278 -396 278 -396 227 -396 c 0,26,27
 188 -396 188 -396 143 -389.5 c 128,-1,28
 98 -383 98 -383 52 -374 c 1,29,-1
 60 -289 l 1,0,1
EndSplineSet
EndChar

StartChar: acute
Encoding: 180 180 103
Width: 607
Flags: W
LayerCount: 2
Fore
SplineSet
401 1492 m 1,0,-1
 613 1492 l 1,1,-1
 305 1172 l 1,2,-1
 175 1172 l 1,3,-1
 401 1492 l 1,0,-1
EndSplineSet
EndChar

StartChar: tilde
Encoding: 732 732 105
Width: 663
Flags: W
LayerCount: 2
Fore
SplineSet
658 1435 m 1,0,1
 653 1390 653 1390 638.5 1351 c 128,-1,2
 624 1312 624 1312 599 1282.5 c 128,-1,3
 574 1253 574 1253 540 1236.5 c 128,-1,4
 506 1220 506 1220 463 1220 c 0,5,6
 433 1220 433 1220 400.5 1230.5 c 128,-1,7
 368 1241 368 1241 335 1254 c 128,-1,8
 302 1267 302 1267 270 1277.5 c 128,-1,9
 238 1288 238 1288 210 1288 c 0,10,11
 129 1288 129 1288 119 1203 c 1,12,-1
 14 1203 l 1,13,14
 18 1250 18 1250 34 1288.5 c 128,-1,15
 50 1327 50 1327 75.5 1355 c 128,-1,16
 101 1383 101 1383 136 1398 c 128,-1,17
 171 1413 171 1413 213 1413 c 0,18,19
 248 1413 248 1413 280.5 1402.5 c 128,-1,20
 313 1392 313 1392 344 1379 c 128,-1,21
 375 1366 375 1366 404.5 1355.5 c 128,-1,22
 434 1345 434 1345 463 1345 c 0,23,24
 497 1345 497 1345 520.5 1367.5 c 128,-1,25
 544 1390 544 1390 550 1435 c 1,26,-1
 658 1435 l 1,0,1
EndSplineSet
EndChar

StartChar: circumflex
Encoding: 710 710 111
Width: 699
Flags: W
LayerCount: 2
Fore
SplineSet
35 1170 m 1,0,-1
 263 1494 l 1,1,-1
 420 1494 l 1,2,-1
 649 1170 l 1,3,-1
 517 1170 l 1,4,-1
 339 1386 l 1,5,-1
 161 1170 l 1,6,-1
 35 1170 l 1,0,-1
EndSplineSet
EndChar

StartChar: dotlessi
Encoding: 305 305 121
Width: 503
Flags: W
LayerCount: 2
Fore
SplineSet
333 0 m 1,0,-1
 168 0 l 1,1,-1
 167 1026 l 1,2,-1
 332 1026 l 1,3,-1
 333 0 l 1,0,-1
EndSplineSet
EndChar

StartChar: dagger
Encoding: 8224 8224 135
Width: 1022
Flags: W
LayerCount: 2
Fore
SplineSet
433 934 m 1,0,-1
 107 934 l 1,1,-1
 107 1066 l 1,2,-1
 433 1066 l 1,3,-1
 433 1451 l 1,4,-1
 575 1451 l 1,5,-1
 575 1066 l 1,6,-1
 919 1066 l 1,7,-1
 919 934 l 1,8,-1
 561 934 l 1,9,-1
 561 113 l 1,10,-1
 433 113 l 1,11,-1
 433 934 l 1,0,-1
EndSplineSet
EndChar

StartChar: degree
Encoding: 176 176 136
Width: 844
Flags: W
LayerCount: 2
Fore
SplineSet
414 1328 m 256,0,1
 375 1328 375 1328 339.5 1314.5 c 128,-1,2
 304 1301 304 1301 277.5 1277.5 c 128,-1,3
 251 1254 251 1254 235.5 1221.5 c 128,-1,4
 220 1189 220 1189 220 1151 c 256,5,6
 220 1113 220 1113 235 1080 c 128,-1,7
 250 1047 250 1047 276.5 1023 c 128,-1,8
 303 999 303 999 338 985 c 128,-1,9
 373 971 373 971 414 971 c 0,10,11
 454 971 454 971 489.5 985 c 128,-1,12
 525 999 525 999 551.5 1023 c 128,-1,13
 578 1047 578 1047 593 1080 c 128,-1,14
 608 1113 608 1113 608 1151 c 256,15,16
 608 1189 608 1189 592.5 1221.5 c 128,-1,17
 577 1254 577 1254 550.5 1277.5 c 128,-1,18
 524 1301 524 1301 488.5 1314.5 c 128,-1,19
 453 1328 453 1328 414 1328 c 256,0,1
414 855 m 0,20,21
 349 855 349 855 291.5 878.5 c 128,-1,22
 234 902 234 902 190 942 c 128,-1,23
 146 982 146 982 120.5 1035.5 c 128,-1,24
 95 1089 95 1089 95 1150 c 256,25,26
 95 1211 95 1211 120.5 1264.5 c 128,-1,27
 146 1318 146 1318 189.5 1358 c 128,-1,28
 233 1398 233 1398 291 1421 c 128,-1,29
 349 1444 349 1444 414 1444 c 256,30,31
 479 1444 479 1444 537 1421 c 128,-1,32
 595 1398 595 1398 638.5 1358 c 128,-1,33
 682 1318 682 1318 707.5 1264.5 c 128,-1,34
 733 1211 733 1211 733 1150 c 256,35,36
 733 1089 733 1089 707.5 1035.5 c 128,-1,37
 682 982 682 982 638 942 c 128,-1,38
 594 902 594 902 536 878.5 c 128,-1,39
 478 855 478 855 414 855 c 0,20,21
EndSplineSet
EndChar

StartChar: cent
Encoding: 162 162 137
Width: 1189
Flags: W
LayerCount: 2
Fore
SplineSet
959 801 m 1,0,1
 923 846 923 846 873.5 873 c 128,-1,2
 824 900 824 900 767 911 c 1,3,-1
 717 109 l 1,4,5
 871 116 871 116 996 225 c 1,6,-1
 1042 87 l 1,7,8
 973 33 973 33 891 7 c 128,-1,9
 809 -19 809 -19 709 -22 c 1,10,-1
 695 -255 l 1,11,-1
 566 -255 l 1,12,-1
 580 -15 l 1,13,14
 478 0 478 0 401 46.5 c 128,-1,15
 324 93 324 93 273 162 c 128,-1,16
 222 231 222 231 196 318.5 c 128,-1,17
 170 406 170 406 170 503 c 0,18,19
 170 611 170 611 201.5 708 c 128,-1,20
 233 805 233 805 293.5 878.5 c 128,-1,21
 354 952 354 952 443 998 c 128,-1,22
 532 1044 532 1044 646 1050 c 1,23,-1
 659 1261 l 1,24,-1
 789 1261 l 1,25,-1
 775 1044 l 1,26,27
 862 1031 862 1031 927.5 996 c 128,-1,28
 993 961 993 961 1034 908 c 1,29,-1
 959 801 l 1,0,1
343 508 m 0,30,31
 343 437 343 437 358 373.5 c 128,-1,32
 373 310 373 310 403 259.5 c 128,-1,33
 433 209 433 209 479.5 173.5 c 128,-1,34
 526 138 526 138 589 122 c 1,35,-1
 637 912 l 1,36,37
 568 901 568 901 513 865.5 c 128,-1,38
 458 830 458 830 420.5 776 c 128,-1,39
 383 722 383 722 363 653.5 c 128,-1,40
 343 585 343 585 343 508 c 0,30,31
EndSplineSet
EndChar

StartChar: sterling
Encoding: 163 163 138
Width: 1189
Flags: W
LayerCount: 2
Fore
SplineSet
1010 1237 m 1,0,1
 957 1270 957 1270 887 1288.5 c 128,-1,2
 817 1307 817 1307 736 1307 c 0,3,4
 660 1307 660 1307 608 1281 c 128,-1,5
 556 1255 556 1255 523.5 1208 c 128,-1,6
 491 1161 491 1161 477 1094.5 c 128,-1,7
 463 1028 463 1028 463 947 c 1,8,-1
 466 832 l 1,9,-1
 796 832 l 1,10,-1
 798 690 l 1,11,-1
 468 690 l 1,12,13
 468 613 468 613 466.5 528.5 c 128,-1,14
 465 444 465 444 456 368 c 128,-1,15
 447 292 447 292 427 231.5 c 128,-1,16
 407 171 407 171 370 141 c 1,17,-1
 1079 141 l 1,18,-1
 1081 0 l 1,19,-1
 115 0 l 1,20,-1
 114 138 l 1,21,22
 148 158 148 158 181 182 c 128,-1,23
 214 206 214 206 240 240.5 c 128,-1,24
 266 275 266 275 281.5 323.5 c 128,-1,25
 297 372 297 372 297 440 c 2,26,-1
 297 690 l 1,27,-1
 116 690 l 1,28,-1
 114 832 l 1,29,-1
 296 832 l 1,30,31
 293 910 293 910 296.5 985.5 c 128,-1,32
 300 1061 300 1061 315.5 1129.5 c 128,-1,33
 331 1198 331 1198 361 1256.5 c 128,-1,34
 391 1315 391 1315 440.5 1357.5 c 128,-1,35
 490 1400 490 1400 561.5 1424 c 128,-1,36
 633 1448 633 1448 733 1448 c 0,37,38
 839 1448 839 1448 922 1424.5 c 128,-1,39
 1005 1401 1005 1401 1062 1357 c 1,40,-1
 1010 1237 l 1,0,1
EndSplineSet
EndChar

StartChar: section
Encoding: 167 167 139
Width: 1097
Flags: W
LayerCount: 2
Fore
SplineSet
834 1304 m 1,0,1
 810 1315 810 1315 781 1324.5 c 128,-1,2
 752 1334 752 1334 721.5 1341 c 128,-1,3
 691 1348 691 1348 661.5 1352 c 128,-1,4
 632 1356 632 1356 608 1356 c 0,5,6
 562 1356 562 1356 523 1348.5 c 128,-1,7
 484 1341 484 1341 455 1325 c 128,-1,8
 426 1309 426 1309 409.5 1283 c 128,-1,9
 393 1257 393 1257 393 1221 c 0,10,11
 393 1191 393 1191 403.5 1166.5 c 128,-1,12
 414 1142 414 1142 439 1118.5 c 128,-1,13
 464 1095 464 1095 506 1072 c 128,-1,14
 548 1049 548 1049 611 1022 c 0,15,16
 671 996 671 996 725.5 968.5 c 128,-1,17
 780 941 780 941 821 907 c 128,-1,18
 862 873 862 873 886.5 831.5 c 128,-1,19
 911 790 911 790 911 737 c 0,20,21
 911 695 911 695 895.5 658 c 128,-1,22
 880 621 880 621 854.5 589 c 128,-1,23
 829 557 829 557 795 529.5 c 128,-1,24
 761 502 761 502 725 480 c 1,25,26
 761 462 761 462 791 440 c 128,-1,27
 821 418 821 418 842.5 391 c 128,-1,28
 864 364 864 364 876 329.5 c 128,-1,29
 888 295 888 295 888 252 c 0,30,31
 888 180 888 180 854.5 124 c 128,-1,32
 821 68 821 68 765 29.5 c 128,-1,33
 709 -9 709 -9 635.5 -28.5 c 128,-1,34
 562 -48 562 -48 482 -48 c 0,35,36
 413 -48 413 -48 344 -35 c 128,-1,37
 275 -22 275 -22 212 4 c 1,38,-1
 210 153 l 1,39,40
 284 119 284 119 350.5 104 c 128,-1,41
 417 89 417 89 477 89 c 0,42,43
 533 89 533 89 577.5 101 c 128,-1,44
 622 113 622 113 652.5 133.5 c 128,-1,45
 683 154 683 154 699 182 c 128,-1,46
 715 210 715 210 715 243 c 256,47,48
 715 276 715 276 701 299.5 c 128,-1,49
 687 323 687 323 660 342 c 128,-1,50
 633 361 633 361 594 379 c 128,-1,51
 555 397 555 397 505 418 c 2,52,-1
 421 454 l 2,53,54
 313 500 313 500 249 567 c 128,-1,55
 185 634 185 634 185 729 c 0,56,57
 185 772 185 772 200.5 808.5 c 128,-1,58
 216 845 216 845 242 876 c 128,-1,59
 268 907 268 907 302 931.5 c 128,-1,60
 336 956 336 956 374 975 c 1,61,62
 338 997 338 997 309.5 1021.5 c 128,-1,63
 281 1046 281 1046 261.5 1075 c 128,-1,64
 242 1104 242 1104 231.5 1138.5 c 128,-1,65
 221 1173 221 1173 221 1217 c 0,66,67
 221 1286 221 1286 251 1338 c 128,-1,68
 281 1390 281 1390 333 1424.5 c 128,-1,69
 385 1459 385 1459 454.5 1476 c 128,-1,70
 524 1493 524 1493 603 1493 c 0,71,72
 667 1493 667 1493 720 1481.5 c 128,-1,73
 773 1470 773 1470 832 1452 c 1,74,-1
 834 1304 l 1,0,1
591 547 m 1,75,76
 615 562 615 562 640.5 580.5 c 128,-1,77
 666 599 666 599 686.5 620.5 c 128,-1,78
 707 642 707 642 720 667.5 c 128,-1,79
 733 693 733 693 733 723 c 0,80,81
 733 755 733 755 719.5 778.5 c 128,-1,82
 706 802 706 802 682.5 820.5 c 128,-1,83
 659 839 659 839 627 854 c 128,-1,84
 595 869 595 869 558 885 c 1,85,-1
 535 894 l 2,86,87
 525 898 525 898 514.5 902.5 c 128,-1,88
 504 907 504 907 495 912 c 1,89,90
 469 898 469 898 445.5 880.5 c 128,-1,91
 422 863 422 863 403 842 c 128,-1,92
 384 821 384 821 373 796 c 128,-1,93
 362 771 362 771 362 741 c 0,94,95
 362 704 362 704 378.5 677 c 128,-1,96
 395 650 395 650 425.5 628 c 128,-1,97
 456 606 456 606 498 587 c 128,-1,98
 540 568 540 568 591 547 c 1,75,76
EndSplineSet
EndChar

StartChar: bullet
Encoding: 8226 8226 140
Width: 989
Flags: W
LayerCount: 2
Fore
SplineSet
833 701 m 0,0,1
 833 636 833 636 805.5 579 c 128,-1,2
 778 522 778 522 731.5 478.5 c 128,-1,3
 685 435 685 435 623.5 410 c 128,-1,4
 562 385 562 385 493 385 c 0,5,6
 423 385 423 385 361.5 409.5 c 128,-1,7
 300 434 300 434 254.5 476.5 c 128,-1,8
 209 519 209 519 183 575 c 128,-1,9
 157 631 157 631 157 694 c 0,10,11
 157 758 157 758 184.5 815.5 c 128,-1,12
 212 873 212 873 259 916.5 c 128,-1,13
 306 960 306 960 368 985 c 128,-1,14
 430 1010 430 1010 498 1010 c 0,15,16
 567 1010 567 1010 628 985.5 c 128,-1,17
 689 961 689 961 734.5 919 c 128,-1,18
 780 877 780 877 806.5 820.5 c 128,-1,19
 833 764 833 764 833 701 c 0,0,1
EndSplineSet
EndChar

StartChar: paragraph
Encoding: 182 182 141
Width: 1214
Flags: W
LayerCount: 2
Fore
SplineSet
442 -148 m 1,0,-1
 442 786 l 1,1,2
 374 787 374 787 313 812 c 128,-1,3
 252 837 252 837 206.5 882 c 128,-1,4
 161 927 161 927 134 990 c 128,-1,5
 107 1053 107 1053 107 1130 c 0,6,7
 107 1224 107 1224 148.5 1286 c 128,-1,8
 190 1348 190 1348 261 1384.5 c 128,-1,9
 332 1421 332 1421 425.5 1436 c 128,-1,10
 519 1451 519 1451 623 1451 c 2,11,-1
 1009 1451 l 1,12,-1
 1009 1327 l 1,13,-1
 922 1327 l 1,14,-1
 922 -148 l 1,15,-1
 793 -148 l 1,16,-1
 793 1327 l 1,17,-1
 585 1327 l 1,18,-1
 585 -148 l 1,19,-1
 442 -148 l 1,0,-1
EndSplineSet
EndChar

StartChar: germandbls
Encoding: 223 223 142
Width: 1257
Flags: W
LayerCount: 2
Fore
SplineSet
536 243 m 1,0,1
 595 174 595 174 661.5 141.5 c 128,-1,2
 728 109 728 109 788 109 c 0,3,4
 828 109 828 109 864 123 c 128,-1,5
 900 137 900 137 927 164 c 128,-1,6
 954 191 954 191 970 231 c 128,-1,7
 986 271 986 271 986 322 c 0,8,9
 986 398 986 398 951.5 458 c 128,-1,10
 917 518 917 518 862 567.5 c 128,-1,11
 807 617 807 617 739 658 c 128,-1,12
 671 699 671 699 605 737 c 2,13,-1
 572 756 l 1,14,-1
 588 892 l 1,15,16
 634 913 634 913 676.5 943 c 128,-1,17
 719 973 719 973 751.5 1011.5 c 128,-1,18
 784 1050 784 1050 803.5 1095 c 128,-1,19
 823 1140 823 1140 823 1191 c 0,20,21
 823 1236 823 1236 807 1271 c 128,-1,22
 791 1306 791 1306 762.5 1331 c 128,-1,23
 734 1356 734 1356 693 1369 c 128,-1,24
 652 1382 652 1382 603 1382 c 0,25,26
 533 1382 533 1382 482.5 1354.5 c 128,-1,27
 432 1327 432 1327 400 1280.5 c 128,-1,28
 368 1234 368 1234 352.5 1171 c 128,-1,29
 337 1108 337 1108 337 1038 c 0,30,31
 337 973 337 973 337.5 889 c 128,-1,32
 338 805 338 805 338 711 c 128,-1,33
 338 617 338 617 339 518.5 c 128,-1,34
 340 420 340 420 340 326 c 128,-1,35
 340 232 340 232 340.5 148 c 128,-1,36
 341 64 341 64 341 0 c 1,37,-1
 176 0 l 1,38,-1
 174 1071 l 2,39,40
 173 1171 173 1171 202 1252 c 128,-1,41
 231 1333 231 1333 286.5 1390.5 c 128,-1,42
 342 1448 342 1448 422 1479.5 c 128,-1,43
 502 1511 502 1511 604 1511 c 0,44,45
 700 1511 700 1511 775.5 1486 c 128,-1,46
 851 1461 851 1461 903.5 1417.5 c 128,-1,47
 956 1374 956 1374 983.5 1316 c 128,-1,48
 1011 1258 1011 1258 1011 1192 c 0,49,50
 1011 1125 1011 1125 979 1065.5 c 128,-1,51
 947 1006 947 1006 901 957.5 c 128,-1,52
 855 909 855 909 805 872 c 128,-1,53
 755 835 755 835 719 813 c 0,54,55
 712 809 712 809 712 806 c 256,56,57
 712 803 712 803 719 800 c 0,58,59
 798 769 798 769 878.5 730.5 c 128,-1,60
 959 692 959 692 1024.5 638 c 128,-1,61
 1090 584 1090 584 1131.5 512 c 128,-1,62
 1173 440 1173 440 1173 341 c 0,63,64
 1173 258 1173 258 1141 191 c 128,-1,65
 1109 124 1109 124 1055.5 76.5 c 128,-1,66
 1002 29 1002 29 933.5 3 c 128,-1,67
 865 -23 865 -23 792 -23 c 0,68,69
 706 -23 706 -23 621.5 15.5 c 128,-1,70
 537 54 537 54 471 138 c 1,71,-1
 536 243 l 1,0,1
EndSplineSet
EndChar

StartChar: registered
Encoding: 174 174 143
Width: 1829
Flags: W
LayerCount: 2
Fore
SplineSet
745 664 m 1,0,-1
 745 273 l 1,1,-1
 597 273 l 1,2,-1
 597 1192 l 1,3,-1
 870 1192 l 2,4,5
 1089 1192 1089 1192 1195 1125.5 c 128,-1,6
 1301 1059 1301 1059 1301 935 c 0,7,8
 1301 889 1301 889 1285.5 847 c 128,-1,9
 1270 805 1270 805 1238 771 c 128,-1,10
 1206 737 1206 737 1155.5 713.5 c 128,-1,11
 1105 690 1105 690 1036 681 c 1,12,13
 1064 655 1064 655 1092.5 619.5 c 128,-1,14
 1121 584 1121 584 1150.5 542 c 128,-1,15
 1180 500 1180 500 1209.5 453 c 128,-1,16
 1239 406 1239 406 1269 357 c 2,17,-1
 1320 273 l 1,18,-1
 1152 273 l 1,19,-1
 1029 485 l 2,20,21
 991 551 991 551 954.5 596 c 128,-1,22
 918 641 918 641 882 664 c 1,23,-1
 745 664 l 1,0,-1
743 783 m 1,24,-1
 868 783 l 2,25,26
 932 783 932 783 983.5 787 c 128,-1,27
 1035 791 1035 791 1071 805.5 c 128,-1,28
 1107 820 1107 820 1126.5 847 c 128,-1,29
 1146 874 1146 874 1146 920 c 0,30,31
 1146 970 1146 970 1130.5 1000 c 128,-1,32
 1115 1030 1115 1030 1081 1046 c 128,-1,33
 1047 1062 1047 1062 992.5 1067 c 128,-1,34
 938 1072 938 1072 860 1072 c 2,35,-1
 742 1072 l 1,36,-1
 743 783 l 1,24,-1
913 85 m 0,37,38
 1009 85 1009 85 1096.5 107.5 c 128,-1,39
 1184 130 1184 130 1259 171 c 128,-1,40
 1334 212 1334 212 1395.5 270 c 128,-1,41
 1457 328 1457 328 1500 399 c 128,-1,42
 1543 470 1543 470 1566.5 552 c 128,-1,43
 1590 634 1590 634 1590 724 c 0,44,45
 1590 815 1590 815 1566.5 897.5 c 128,-1,46
 1543 980 1543 980 1499 1051.5 c 128,-1,47
 1455 1123 1455 1123 1393.5 1181 c 128,-1,48
 1332 1239 1332 1239 1256.5 1280 c 128,-1,49
 1181 1321 1181 1321 1093 1343.5 c 128,-1,50
 1005 1366 1005 1366 909 1366 c 0,51,52
 766 1366 766 1366 642 1317 c 128,-1,53
 518 1268 518 1268 426.5 1181.5 c 128,-1,54
 335 1095 335 1095 282.5 978.5 c 128,-1,55
 230 862 230 862 230 727 c 0,56,57
 230 636 230 636 253.5 553.5 c 128,-1,58
 277 471 277 471 321 399.5 c 128,-1,59
 365 328 365 328 426.5 270 c 128,-1,60
 488 212 488 212 564 171 c 128,-1,61
 640 130 640 130 728 107.5 c 128,-1,62
 816 85 816 85 913 85 c 0,37,38
914 -32 m 0,63,64
 802 -32 802 -32 698 -4.5 c 128,-1,65
 594 23 594 23 504 72.5 c 128,-1,66
 414 122 414 122 340 191.5 c 128,-1,67
 266 261 266 261 213.5 345 c 128,-1,68
 161 429 161 429 132 525.5 c 128,-1,69
 103 622 103 622 103 726 c 256,70,71
 103 830 103 830 132 926 c 128,-1,72
 161 1022 161 1022 214 1106 c 128,-1,73
 267 1190 267 1190 341 1259.5 c 128,-1,74
 415 1329 415 1329 504.5 1378.5 c 128,-1,75
 594 1428 594 1428 696 1455.5 c 128,-1,76
 798 1483 798 1483 908 1483 c 0,77,78
 1020 1483 1020 1483 1123.5 1455.5 c 128,-1,79
 1227 1428 1227 1428 1316.5 1378 c 128,-1,80
 1406 1328 1406 1328 1480 1258.5 c 128,-1,81
 1554 1189 1554 1189 1606.5 1104.5 c 128,-1,82
 1659 1020 1659 1020 1688 924 c 128,-1,83
 1717 828 1717 828 1717 725 c 0,84,85
 1717 621 1717 621 1688 525 c 128,-1,86
 1659 429 1659 429 1606.5 345 c 128,-1,87
 1554 261 1554 261 1480.5 191.5 c 128,-1,88
 1407 122 1407 122 1318 72.5 c 128,-1,89
 1229 23 1229 23 1126.5 -4.5 c 128,-1,90
 1024 -32 1024 -32 914 -32 c 0,63,64
EndSplineSet
EndChar

StartChar: copyright
Encoding: 169 169 144
Width: 1829
Flags: W
LayerCount: 2
Fore
SplineSet
1249 339 m 1,0,1
 1120 249 1120 249 940 249 c 0,2,3
 835 249 835 249 746.5 286.5 c 128,-1,4
 658 324 658 324 594.5 389 c 128,-1,5
 531 454 531 454 495.5 541.5 c 128,-1,6
 460 629 460 629 460 729 c 0,7,8
 460 833 460 833 495 921 c 128,-1,9
 530 1009 530 1009 594.5 1072.5 c 128,-1,10
 659 1136 659 1136 749.5 1172 c 128,-1,11
 840 1208 840 1208 951 1208 c 0,12,13
 1123 1208 1123 1208 1245 1105 c 1,14,-1
 1214 985 l 1,15,16
 1104 1080 1104 1080 944 1080 c 0,17,18
 867 1080 867 1080 806 1053 c 128,-1,19
 745 1026 745 1026 702 979 c 128,-1,20
 659 932 659 932 636 868.5 c 128,-1,21
 613 805 613 805 613 733 c 0,22,23
 613 659 613 659 636 595 c 128,-1,24
 659 531 659 531 704 483 c 128,-1,25
 749 435 749 435 816 407.5 c 128,-1,26
 883 380 883 380 972 380 c 0,27,28
 1038 380 1038 380 1098.5 399 c 128,-1,29
 1159 418 1159 418 1210 460 c 1,30,-1
 1249 339 l 1,0,1
230 727 m 0,31,32
 230 636 230 636 253.5 553.5 c 128,-1,33
 277 471 277 471 321 399.5 c 128,-1,34
 365 328 365 328 426.5 270 c 128,-1,35
 488 212 488 212 564 171 c 128,-1,36
 640 130 640 130 728 107.5 c 128,-1,37
 816 85 816 85 913 85 c 0,38,39
 1057 85 1057 85 1180.5 134.5 c 128,-1,40
 1304 184 1304 184 1395 270 c 128,-1,41
 1486 356 1486 356 1538 472.5 c 128,-1,42
 1590 589 1590 589 1590 724 c 0,43,44
 1590 815 1590 815 1566.5 897.5 c 128,-1,45
 1543 980 1543 980 1499 1051.5 c 128,-1,46
 1455 1123 1455 1123 1393.5 1181 c 128,-1,47
 1332 1239 1332 1239 1256.5 1280 c 128,-1,48
 1181 1321 1181 1321 1093 1343.5 c 128,-1,49
 1005 1366 1005 1366 909 1366 c 0,50,51
 766 1366 766 1366 642 1317 c 128,-1,52
 518 1268 518 1268 426.5 1182 c 128,-1,53
 335 1096 335 1096 282.5 979 c 128,-1,54
 230 862 230 862 230 727 c 0,31,32
914 -32 m 0,55,56
 802 -32 802 -32 698 -4.5 c 128,-1,57
 594 23 594 23 504 72.5 c 128,-1,58
 414 122 414 122 340 191.5 c 128,-1,59
 266 261 266 261 213.5 345 c 128,-1,60
 161 429 161 429 132 525.5 c 128,-1,61
 103 622 103 622 103 726 c 256,62,63
 103 830 103 830 132 926 c 128,-1,64
 161 1022 161 1022 214 1106 c 128,-1,65
 267 1190 267 1190 341 1259.5 c 128,-1,66
 415 1329 415 1329 504.5 1378.5 c 128,-1,67
 594 1428 594 1428 696 1455.5 c 128,-1,68
 798 1483 798 1483 908 1483 c 0,69,70
 1020 1483 1020 1483 1123.5 1455.5 c 128,-1,71
 1227 1428 1227 1428 1316.5 1378 c 128,-1,72
 1406 1328 1406 1328 1480 1258.5 c 128,-1,73
 1554 1189 1554 1189 1606.5 1104.5 c 128,-1,74
 1659 1020 1659 1020 1688 924 c 128,-1,75
 1717 828 1717 828 1717 725 c 0,76,77
 1717 621 1717 621 1688 525 c 128,-1,78
 1659 429 1659 429 1606.5 345 c 128,-1,79
 1554 261 1554 261 1480.5 191.5 c 128,-1,80
 1407 122 1407 122 1318 72.5 c 128,-1,81
 1229 23 1229 23 1126.5 -4.5 c 128,-1,82
 1024 -32 1024 -32 914 -32 c 0,55,56
EndSplineSet
EndChar

StartChar: trademark
Encoding: 8482 8482 145
Width: 1869
Flags: W
LayerCount: 2
Fore
SplineSet
1009 1451 m 1,0,-1
 1245 900 l 1,1,-1
 1495 1451 l 1,2,-1
 1675 1451 l 1,3,-1
 1675 686 l 1,4,-1
 1553 686 l 1,5,-1
 1553 1281 l 1,6,-1
 1279 686 l 1,7,-1
 1199 686 l 1,8,-1
 940 1280 l 1,9,-1
 940 686 l 1,10,-1
 819 686 l 1,11,-1
 819 1451 l 1,12,-1
 1009 1451 l 1,0,-1
708 1451 m 1,13,-1
 707 1350 l 1,14,-1
 447 1350 l 1,15,-1
 447 686 l 1,16,-1
 323 686 l 1,17,-1
 323 1350 l 1,18,-1
 70 1350 l 1,19,-1
 70 1451 l 1,20,-1
 708 1451 l 1,13,-1
EndSplineSet
EndChar

StartChar: notequal
Encoding: 8800 8800 146
Width: 1351
Flags: W
LayerCount: 2
Fore
SplineSet
989 1105 m 1,0,-1
 862 849 l 1,1,-1
 1172 849 l 1,2,-1
 1182 728 l 1,3,-1
 804 728 l 1,4,-1
 656 445 l 1,5,-1
 1173 445 l 1,6,-1
 1182 325 l 1,7,-1
 597 325 l 1,8,-1
 457 46 l 1,9,-1
 335 64 l 1,10,-1
 463 325 l 1,11,-1
 170 325 l 1,12,-1
 161 445 l 1,13,-1
 524 445 l 1,14,-1
 671 728 l 1,15,-1
 170 728 l 1,16,-1
 160 849 l 1,17,-1
 728 849 l 1,18,-1
 864 1123 l 1,19,-1
 989 1105 l 1,0,-1
EndSplineSet
EndChar

StartChar: AE
Encoding: 198 198 147
Width: 2028
Flags: W
LayerCount: 2
Fore
SplineSet
944 1308 m 1,0,-1
 506 546 l 1,1,-1
 1054 546 l 1,2,-1
 994 1308 l 1,3,-1
 944 1308 l 1,0,-1
836 1456 m 1,4,-1
 1875 1456 l 1,5,-1
 1878 1308 l 1,6,-1
 1159 1308 l 1,7,-1
 1197 820 l 1,8,-1
 1834 820 l 1,9,-1
 1837 672 l 1,10,-1
 1216 672 l 1,11,-1
 1257 148 l 1,12,-1
 1898 148 l 1,13,-1
 1901 0 l 1,14,-1
 1104 0 l 1,15,-1
 1073 398 l 1,16,-1
 427 398 l 1,17,-1
 201 0 l 1,18,-1
 5 0 l 1,19,-1
 836 1456 l 1,4,-1
EndSplineSet
EndChar

StartChar: infinity
Encoding: 8734 8734 149
Width: 1724
Flags: W
LayerCount: 2
Fore
SplineSet
1482 618 m 0,0,1
 1482 661 1482 661 1465.5 699 c 128,-1,2
 1449 737 1449 737 1419.5 766 c 128,-1,3
 1390 795 1390 795 1348.5 812 c 128,-1,4
 1307 829 1307 829 1258 829 c 0,5,6
 1208 829 1208 829 1162.5 809 c 128,-1,7
 1117 789 1117 789 1075.5 756 c 128,-1,8
 1034 723 1034 723 997 680.5 c 128,-1,9
 960 638 960 638 929 592 c 1,10,11
 974 534 974 534 1014.5 489.5 c 128,-1,12
 1055 445 1055 445 1094.5 415 c 128,-1,13
 1134 385 1134 385 1175.5 370 c 128,-1,14
 1217 355 1217 355 1263 355 c 0,15,16
 1319 355 1319 355 1360.5 375.5 c 128,-1,17
 1402 396 1402 396 1429 431 c 128,-1,18
 1456 466 1456 466 1469 514 c 128,-1,19
 1482 562 1482 562 1482 618 c 0,0,1
226 592 m 0,20,21
 226 547 226 547 243 504 c 128,-1,22
 260 461 260 461 291 428 c 128,-1,23
 322 395 322 395 365.5 375 c 128,-1,24
 409 355 409 355 463 355 c 0,25,26
 511 355 511 355 555.5 373.5 c 128,-1,27
 600 392 600 392 641 423.5 c 128,-1,28
 682 455 682 455 719 498 c 128,-1,29
 756 541 756 541 791 589 c 1,30,31
 756 640 756 640 718.5 683.5 c 128,-1,32
 681 727 681 727 639.5 759.5 c 128,-1,33
 598 792 598 792 551.5 810.5 c 128,-1,34
 505 829 505 829 453 829 c 0,35,36
 399 829 399 829 357 810 c 128,-1,37
 315 791 315 791 286 758.5 c 128,-1,38
 257 726 257 726 241.5 683 c 128,-1,39
 226 640 226 640 226 592 c 0,20,21
1621 595 m 0,40,41
 1621 515 1621 515 1591.5 449 c 128,-1,42
 1562 383 1562 383 1512.5 335.5 c 128,-1,43
 1463 288 1463 288 1397.5 262 c 128,-1,44
 1332 236 1332 236 1260 236 c 0,45,46
 1149 236 1149 236 1054 299 c 128,-1,47
 959 362 959 362 860 488 c 1,48,49
 817 433 817 433 772 386.5 c 128,-1,50
 727 340 727 340 677.5 306.5 c 128,-1,51
 628 273 628 273 574 254.5 c 128,-1,52
 520 236 520 236 460 236 c 0,53,54
 379 236 379 236 312 266 c 128,-1,55
 245 296 245 296 197 347.5 c 128,-1,56
 149 399 149 399 122.5 467.5 c 128,-1,57
 96 536 96 536 96 612 c 0,58,59
 96 681 96 681 125.5 741.5 c 128,-1,60
 155 802 155 802 204.5 847 c 128,-1,61
 254 892 254 892 319 918 c 128,-1,62
 384 944 384 944 455 944 c 0,63,64
 516 944 516 944 571 926 c 128,-1,65
 626 908 626 908 676 875 c 128,-1,66
 726 842 726 842 772 795.5 c 128,-1,67
 818 749 818 749 862 692 c 1,68,69
 904 747 904 747 948 793.5 c 128,-1,70
 992 840 992 840 1040.5 873.5 c 128,-1,71
 1089 907 1089 907 1144 925.5 c 128,-1,72
 1199 944 1199 944 1262 944 c 0,73,74
 1344 944 1344 944 1410.5 918 c 128,-1,75
 1477 892 1477 892 1523.5 845.5 c 128,-1,76
 1570 799 1570 799 1595.5 735 c 128,-1,77
 1621 671 1621 671 1621 595 c 0,40,41
EndSplineSet
EndChar

StartChar: plusminus
Encoding: 177 177 150
Width: 1458
Flags: W
LayerCount: 2
Fore
SplineSet
200 0 m 1,0,-1
 200 138 l 1,1,-1
 1249 138 l 1,2,-1
 1249 0 l 1,3,-1
 200 0 l 1,0,-1
645 733 m 1,4,-1
 645 1107 l 1,5,-1
 794 1107 l 1,6,-1
 794 733 l 1,7,-1
 1245 733 l 1,8,-1
 1245 595 l 1,9,-1
 798 595 l 1,10,-1
 798 223 l 1,11,-1
 647 223 l 1,12,-1
 647 595 l 1,13,-1
 188 595 l 1,14,-1
 188 733 l 1,15,-1
 645 733 l 1,4,-1
EndSplineSet
EndChar

StartChar: lessequal
Encoding: 8804 8804 151
Width: 1351
Flags: W
LayerCount: 2
Fore
SplineSet
1175 9 m 1,0,-1
 161 9 l 1,1,-1
 161 131 l 1,2,-1
 1175 131 l 1,3,-1
 1175 9 l 1,0,-1
1146 216 m 1,4,-1
 197 666 l 1,5,-1
 197 747 l 1,6,-1
 1146 1219 l 1,7,-1
 1146 1079 l 1,8,-1
 370 709 l 1,9,-1
 372 710 l 1,10,-1
 1146 357 l 1,11,-1
 1146 216 l 1,4,-1
EndSplineSet
EndChar

StartChar: greaterequal
Encoding: 8805 8805 152
Width: 1350
Flags: W
LayerCount: 2
Fore
SplineSet
1171 9 m 1,0,-1
 161 9 l 1,1,-1
 161 131 l 1,2,-1
 1171 131 l 1,3,-1
 1171 9 l 1,0,-1
196 1221 m 1,4,-1
 1152 748 l 1,5,-1
 1152 668 l 1,6,-1
 192 218 l 1,7,-1
 192 359 l 1,8,-1
 974 707 l 1,9,-1
 196 1081 l 1,10,-1
 196 1221 l 1,4,-1
EndSplineSet
EndChar

StartChar: yen
Encoding: 165 165 153
Width: 1189
Flags: W
LayerCount: 2
Fore
SplineSet
680 0 m 1,0,-1
 508 0 l 1,1,-1
 508 283 l 1,2,-1
 109 283 l 1,3,-1
 98 423 l 1,4,-1
 506 423 l 1,5,-1
 506 574 l 1,6,-1
 103 574 l 1,7,-1
 103 716 l 1,8,-1
 471 716 l 1,9,-1
 26 1420 l 1,10,-1
 231 1420 l 1,11,-1
 520 937 l 1,12,-1
 601 796 l 1,13,-1
 686 936 l 1,14,-1
 973 1420 l 1,15,-1
 1159 1420 l 1,16,-1
 704 716 l 1,17,-1
 1068 716 l 1,18,-1
 1068 574 l 1,19,-1
 677 574 l 1,20,-1
 677 423 l 1,21,-1
 1071 423 l 1,22,-1
 1071 283 l 1,23,-1
 680 283 l 1,24,-1
 680 0 l 1,0,-1
EndSplineSet
EndChar

StartChar: partialdiff
Encoding: 8706 8706 154
Width: 1167
Flags: W
LayerCount: 2
Fore
SplineSet
495 111 m 0,0,1
 573 111 573 111 639 154 c 128,-1,2
 705 197 705 197 755 271 c 128,-1,3
 805 345 805 345 838.5 444 c 128,-1,4
 872 543 872 543 885 655 c 1,5,6
 870 697 870 697 844.5 736 c 128,-1,7
 819 775 819 775 784 804.5 c 128,-1,8
 749 834 749 834 705 851.5 c 128,-1,9
 661 869 661 869 609 869 c 0,10,11
 534 869 534 869 468.5 832.5 c 128,-1,12
 403 796 403 796 355 734 c 128,-1,13
 307 672 307 672 279.5 590 c 128,-1,14
 252 508 252 508 252 417 c 0,15,16
 252 348 252 348 269 291.5 c 128,-1,17
 286 235 286 235 317.5 195 c 128,-1,18
 349 155 349 155 394 133 c 128,-1,19
 439 111 439 111 495 111 c 0,0,1
280 1442 m 1,20,21
 340 1482 340 1482 420 1507.5 c 128,-1,22
 500 1533 500 1533 588 1533 c 0,23,24
 700 1533 700 1533 790 1492.5 c 128,-1,25
 880 1452 880 1452 943 1368.5 c 128,-1,26
 1006 1285 1006 1285 1040 1156.5 c 128,-1,27
 1074 1028 1074 1028 1074 852 c 0,28,29
 1074 744 1074 744 1058.5 637 c 128,-1,30
 1043 530 1043 530 1011 432.5 c 128,-1,31
 979 335 979 335 931 251.5 c 128,-1,32
 883 168 883 168 818 107 c 128,-1,33
 753 46 753 46 671.5 11 c 128,-1,34
 590 -24 590 -24 492 -24 c 0,35,36
 391 -24 391 -24 314.5 10 c 128,-1,37
 238 44 238 44 186.5 104 c 128,-1,38
 135 164 135 164 109 245 c 128,-1,39
 83 326 83 326 83 420 c 0,40,41
 83 543 83 543 122.5 649.5 c 128,-1,42
 162 756 162 756 230 834 c 128,-1,43
 298 912 298 912 389.5 957 c 128,-1,44
 481 1002 481 1002 586 1002 c 0,45,46
 643 1002 643 1002 690.5 988.5 c 128,-1,47
 738 975 738 975 776.5 953 c 128,-1,48
 815 931 815 931 845 903 c 128,-1,49
 875 875 875 875 896 845 c 0,50,51
 897 842 897 842 902 836 c 1,52,53
 902 850 902 850 902.5 871.5 c 128,-1,54
 903 893 903 893 903 911 c 0,55,56
 903 1025 903 1025 879.5 1115.5 c 128,-1,57
 856 1206 856 1206 812.5 1269 c 128,-1,58
 769 1332 769 1332 706.5 1365.5 c 128,-1,59
 644 1399 644 1399 565 1399 c 0,60,61
 529 1399 529 1399 492.5 1391.5 c 128,-1,62
 456 1384 456 1384 420.5 1371 c 128,-1,63
 385 1358 385 1358 352 1340.5 c 128,-1,64
 319 1323 319 1323 291 1304 c 1,65,-1
 280 1442 l 1,20,21
EndSplineSet
EndChar

StartChar: summation
Encoding: 8721 8721 155
Width: 1264
Flags: W
LayerCount: 2
Fore
SplineSet
1220 -329 m 1,0,-1
 57 -329 l 1,1,-1
 57 -239 l 1,2,-1
 697 552 l 1,3,-1
 79 1328 l 1,4,-1
 79 1423 l 1,5,-1
 1175 1423 l 1,6,-1
 1175 1281 l 1,7,-1
 325 1281 l 1,8,-1
 371 1222 l 1,9,-1
 898 561 l 1,10,-1
 334 -122 l 1,11,-1
 294 -181 l 1,12,-1
 1220 -181 l 1,13,-1
 1220 -329 l 1,0,-1
EndSplineSet
EndChar

StartChar: product
Encoding: 8719 8719 156
Width: 1568
Flags: W
LayerCount: 2
Fore
SplineSet
1440 1278 m 1,0,-1
 1327 1278 l 1,1,-1
 1327 -329 l 1,2,-1
 1149 -329 l 1,3,-1
 1149 1278 l 1,4,-1
 426 1278 l 1,5,-1
 426 -329 l 1,6,-1
 251 -329 l 1,7,-1
 251 1278 l 1,8,-1
 126 1278 l 1,9,-1
 110 1423 l 1,10,-1
 1456 1423 l 1,11,-1
 1440 1278 l 1,0,-1
EndSplineSet
EndChar

StartChar: integral
Encoding: 8747 8747 157
Width: 702
Flags: W
LayerCount: 2
Fore
SplineSet
393 1255 m 2,0,1
 393 1336 393 1336 408 1405 c 128,-1,2
 423 1474 423 1474 457.5 1524 c 128,-1,3
 492 1574 492 1574 549.5 1602.5 c 128,-1,4
 607 1631 607 1631 692 1631 c 0,5,6
 713 1631 713 1631 730 1629.5 c 128,-1,7
 747 1628 747 1628 762.5 1625 c 128,-1,8
 778 1622 778 1622 794 1618 c 128,-1,9
 810 1614 810 1614 828 1610 c 1,10,-1
 830 1481 l 1,11,12
 810 1489 810 1489 779.5 1492.5 c 128,-1,13
 749 1496 749 1496 720 1496 c 0,14,15
 669 1496 669 1496 637 1482 c 128,-1,16
 605 1468 605 1468 587.5 1440.5 c 128,-1,17
 570 1413 570 1413 563.5 1372.5 c 128,-1,18
 557 1332 557 1332 557 1279 c 2,19,-1
 557 -23 l 2,20,21
 557 -104 557 -104 542.5 -173 c 128,-1,22
 528 -242 528 -242 493.5 -292 c 128,-1,23
 459 -342 459 -342 402 -370.5 c 128,-1,24
 345 -399 345 -399 260 -399 c 0,25,26
 239 -399 239 -399 222 -397.5 c 128,-1,27
 205 -396 205 -396 189.5 -393 c 128,-1,28
 174 -390 174 -390 158 -386.5 c 128,-1,29
 142 -383 142 -383 124 -378 c 1,30,-1
 122 -249 l 1,31,32
 142 -257 142 -257 172.5 -260.5 c 128,-1,33
 203 -264 203 -264 232 -264 c 0,34,35
 283 -264 283 -264 314.5 -250 c 128,-1,36
 346 -236 346 -236 363.5 -208.5 c 128,-1,37
 381 -181 381 -181 387 -140.5 c 128,-1,38
 393 -100 393 -100 393 -47 c 2,39,-1
 393 1255 l 2,0,1
EndSplineSet
EndChar

StartChar: ordfeminine
Encoding: 170 170 158
Width: 745
Flags: W
LayerCount: 2
Fore
SplineSet
317 768 m 0,0,1
 263 768 263 768 217 782.5 c 128,-1,2
 171 797 171 797 137.5 824 c 128,-1,3
 104 851 104 851 85 889.5 c 128,-1,4
 66 928 66 928 66 975 c 0,5,6
 66 1018 66 1018 84 1054.5 c 128,-1,7
 102 1091 102 1091 134.5 1118.5 c 128,-1,8
 167 1146 167 1146 211.5 1165 c 128,-1,9
 256 1184 256 1184 309 1192 c 0,10,11
 366 1201 366 1201 424 1202.5 c 128,-1,12
 482 1204 482 1204 536 1211 c 1,13,-1
 536 1219 l 2,14,15
 536 1262 536 1262 528.5 1291 c 128,-1,16
 521 1320 521 1320 503.5 1337 c 128,-1,17
 486 1354 486 1354 458 1361.5 c 128,-1,18
 430 1369 430 1369 388 1369 c 0,19,20
 358 1369 358 1369 328 1365 c 128,-1,21
 298 1361 298 1361 271 1350.5 c 128,-1,22
 244 1340 244 1340 220.5 1321.5 c 128,-1,23
 197 1303 197 1303 178 1275 c 1,24,-1
 111 1350 l 1,25,26
 151 1418 151 1418 225.5 1447.5 c 128,-1,27
 300 1477 300 1477 394 1477 c 0,28,29
 523 1477 523 1477 596 1418 c 128,-1,30
 669 1359 669 1359 669 1244 c 2,31,-1
 669 1235 l 1,32,-1
 667 914 l 2,33,34
 666 903 666 903 667 882.5 c 128,-1,35
 668 862 668 862 670 840 c 2,36,-1
 674 786 l 1,37,-1
 543 786 l 1,38,-1
 537 860 l 1,39,40
 503 818 503 818 447.5 793 c 128,-1,41
 392 768 392 768 317 768 c 0,0,1
338 871 m 0,42,43
 389 871 389 871 426.5 888.5 c 128,-1,44
 464 906 464 906 489.5 936 c 128,-1,45
 515 966 515 966 528 1004.5 c 128,-1,46
 541 1043 541 1043 543 1085 c 1,47,-1
 539 1110 l 1,48,49
 504 1103 504 1103 465.5 1099.5 c 128,-1,50
 427 1096 427 1096 389.5 1092 c 128,-1,51
 352 1088 352 1088 318 1081.5 c 128,-1,52
 284 1075 284 1075 258 1062.5 c 128,-1,53
 232 1050 232 1050 217 1029.5 c 128,-1,54
 202 1009 202 1009 202 977 c 0,55,56
 202 921 202 921 240 896 c 128,-1,57
 278 871 278 871 338 871 c 0,42,43
EndSplineSet
EndChar

StartChar: ordmasculine
Encoding: 186 186 159
Width: 824
Flags: W
LayerCount: 2
Fore
SplineSet
415 1476 m 0,0,1
 503 1476 503 1476 570 1448.5 c 128,-1,2
 637 1421 637 1421 682.5 1373 c 128,-1,3
 728 1325 728 1325 751 1260.5 c 128,-1,4
 774 1196 774 1196 774 1121 c 0,5,6
 774 1048 774 1048 750.5 983.5 c 128,-1,7
 727 919 727 919 681.5 871 c 128,-1,8
 636 823 636 823 569.5 795 c 128,-1,9
 503 767 503 767 416 767 c 0,10,11
 326 767 326 767 258.5 794.5 c 128,-1,12
 191 822 191 822 145 870 c 128,-1,13
 99 918 99 918 76 983.5 c 128,-1,14
 53 1049 53 1049 53 1124 c 0,15,16
 53 1198 53 1198 77 1262 c 128,-1,17
 101 1326 101 1326 147.5 1373.5 c 128,-1,18
 194 1421 194 1421 261 1448.5 c 128,-1,19
 328 1476 328 1476 415 1476 c 0,0,1
193 1123 m 0,20,21
 193 1072 193 1072 206.5 1026.5 c 128,-1,22
 220 981 220 981 248 947.5 c 128,-1,23
 276 914 276 914 318 894.5 c 128,-1,24
 360 875 360 875 416 875 c 0,25,26
 469 875 469 875 510 894.5 c 128,-1,27
 551 914 551 914 579 947.5 c 128,-1,28
 607 981 607 981 621.5 1025.5 c 128,-1,29
 636 1070 636 1070 636 1119 c 0,30,31
 636 1171 636 1171 621.5 1216.5 c 128,-1,32
 607 1262 607 1262 579 1296 c 128,-1,33
 551 1330 551 1330 509 1349.5 c 128,-1,34
 467 1369 467 1369 413 1369 c 0,35,36
 360 1369 360 1369 319 1349.5 c 128,-1,37
 278 1330 278 1330 250 1296 c 128,-1,38
 222 1262 222 1262 207.5 1217.5 c 128,-1,39
 193 1173 193 1173 193 1123 c 0,20,21
EndSplineSet
EndChar

StartChar: ae
Encoding: 230 230 160
Width: 1896
Flags: W
LayerCount: 2
Fore
SplineSet
1786 117 m 1,0,1
 1617 -25 1617 -25 1371 -23 c 1,2,3
 1216 -25 1216 -25 1116 32.5 c 128,-1,4
 1016 90 1016 90 949 206 c 1,5,6
 916 133 916 133 870.5 91.5 c 128,-1,7
 825 50 825 50 768 24.5 c 128,-1,8
 711 -1 711 -1 642.5 -12.5 c 128,-1,9
 574 -24 574 -24 495 -26 c 1,10,11
 417 -26 417 -26 352.5 -4.5 c 128,-1,12
 288 17 288 17 241 57.5 c 128,-1,13
 194 98 194 98 168 156 c 128,-1,14
 142 214 142 214 142 287 c 256,15,16
 142 360 142 360 168.5 416 c 128,-1,17
 195 472 195 472 243.5 511 c 128,-1,18
 292 550 292 550 360 572.5 c 128,-1,19
 428 595 428 595 512 602 c 0,20,21
 599 610 599 610 688 614 c 128,-1,22
 777 618 777 618 869 620 c 1,23,-1
 868 641 l 1,24,25
 861 696 861 696 845 745.5 c 128,-1,26
 829 795 829 795 798 832.5 c 128,-1,27
 767 870 767 870 718 892.5 c 128,-1,28
 669 915 669 915 596 915 c 0,29,30
 549 915 549 915 504.5 907 c 128,-1,31
 460 899 460 899 421 882 c 128,-1,32
 382 865 382 865 349.5 836.5 c 128,-1,33
 317 808 317 808 294 768 c 1,34,-1
 197 862 l 1,35,36
 227 913 227 913 269 949 c 128,-1,37
 311 985 311 985 363.5 1008 c 128,-1,38
 416 1031 416 1031 477 1041.5 c 128,-1,39
 538 1052 538 1052 607 1052 c 1,40,41
 670 1050 670 1050 727 1037 c 128,-1,42
 784 1024 784 1024 831 997.5 c 128,-1,43
 878 971 878 971 912.5 931.5 c 128,-1,44
 947 892 947 892 965 838 c 1,45,46
 996 895 996 895 1037.5 935.5 c 128,-1,47
 1079 976 1079 976 1128.5 1002 c 128,-1,48
 1178 1028 1178 1028 1232.5 1040 c 128,-1,49
 1287 1052 1287 1052 1343 1052 c 0,50,51
 1456 1052 1456 1052 1539 1011.5 c 128,-1,52
 1622 971 1622 971 1677 901 c 128,-1,53
 1732 831 1732 831 1758.5 738.5 c 128,-1,54
 1785 646 1785 646 1785 543 c 0,55,56
 1785 536 1785 536 1784.5 520.5 c 128,-1,57
 1784 505 1784 505 1782 489 c 1,58,-1
 1034 489 l 1,59,-1
 1034 468 l 2,60,61
 1034 387 1034 387 1052.5 327.5 c 128,-1,62
 1071 268 1071 268 1110.5 217 c 128,-1,63
 1150 166 1150 166 1222.5 138 c 128,-1,64
 1295 110 1295 110 1376 109 c 1,65,66
 1494 110 1494 110 1575.5 149 c 128,-1,67
 1657 188 1657 188 1732 254 c 1,68,-1
 1786 117 l 1,0,1
870 479 m 1,69,70
 832 479 832 479 795 478 c 128,-1,71
 758 477 758 477 720 477 c 0,72,73
 639 475 639 475 564 468.5 c 128,-1,74
 489 462 489 462 430.5 442.5 c 128,-1,75
 372 423 372 423 337 387 c 128,-1,76
 302 351 302 351 302 291 c 0,77,78
 302 243 302 243 321 208.5 c 128,-1,79
 340 174 340 174 372 152.5 c 128,-1,80
 404 131 404 131 445 121 c 128,-1,81
 486 111 486 111 531 111 c 0,82,83
 628 111 628 111 693.5 141 c 128,-1,84
 759 171 759 171 798 221.5 c 128,-1,85
 837 272 837 272 853.5 338 c 128,-1,86
 870 404 870 404 870 476 c 2,87,-1
 870 479 l 1,69,70
1629 608 m 2,88,89
 1630 609 1630 609 1630 610 c 0,90,91
 1630 677 1630 677 1611.5 730.5 c 128,-1,92
 1593 784 1593 784 1556.5 825 c 128,-1,93
 1520 866 1520 866 1466.5 890.5 c 128,-1,94
 1413 915 1413 915 1343 915 c 0,95,96
 1271 915 1271 915 1215 891 c 128,-1,97
 1159 867 1159 867 1120 826 c 128,-1,98
 1081 785 1081 785 1059 731 c 128,-1,99
 1037 677 1037 677 1033 607 c 1,100,-1
 1629 608 l 2,88,89
EndSplineSet
EndChar

StartChar: oslash
Encoding: 248 248 161
Width: 1238
Flags: W
LayerCount: 2
Fore
SplineSet
620 1051 m 0,0,1
 705 1051 705 1051 780 1031 c 1,2,-1
 884 1277 l 1,3,-1
 987 1245 l 1,4,-1
 880 993 l 1,5,6
 944 960 944 960 993 910.5 c 128,-1,7
 1042 861 1042 861 1074.5 799 c 128,-1,8
 1107 737 1107 737 1123.5 664.5 c 128,-1,9
 1140 592 1140 592 1140 513 c 0,10,11
 1140 405 1140 405 1105.5 307.5 c 128,-1,12
 1071 210 1071 210 1004.5 136.5 c 128,-1,13
 938 63 938 63 840 20 c 128,-1,14
 742 -23 742 -23 616 -23 c 0,15,16
 531 -23 531 -23 456 -3 c 1,17,-1
 346 -261 l 1,18,-1
 247 -229 l 1,19,-1
 358 34 l 1,20,21
 292 67 292 67 242 116 c 128,-1,22
 192 165 192 165 158.5 226.5 c 128,-1,23
 125 288 125 288 107.5 360 c 128,-1,24
 90 432 90 432 90 511 c 0,25,26
 90 622 90 622 125 720.5 c 128,-1,27
 160 819 160 819 227.5 892.5 c 128,-1,28
 295 966 295 966 393.5 1008.5 c 128,-1,29
 492 1051 492 1051 620 1051 c 0,0,1
263 509 m 0,30,31
 263 457 263 457 272.5 407.5 c 128,-1,32
 282 358 282 358 301 314.5 c 128,-1,33
 320 271 320 271 348.5 234 c 128,-1,34
 377 197 377 197 415 170 c 1,35,-1
 725 902 l 1,36,37
 700 909 700 909 673 913 c 128,-1,38
 646 917 646 917 616 917 c 0,39,40
 529 917 529 917 463 883.5 c 128,-1,41
 397 850 397 850 352.5 793.5 c 128,-1,42
 308 737 308 737 285.5 663 c 128,-1,43
 263 589 263 589 263 509 c 0,30,31
966 511 m 0,44,45
 966 619 966 619 930.5 709.5 c 128,-1,46
 895 800 895 800 821 855 c 1,47,-1
 510 124 l 1,48,49
 559 109 559 109 620 109 c 0,50,51
 708 109 708 109 773 142 c 128,-1,52
 838 175 838 175 881 230.5 c 128,-1,53
 924 286 924 286 945 358.5 c 128,-1,54
 966 431 966 431 966 511 c 0,44,45
EndSplineSet
EndChar

StartChar: questiondown
Encoding: 191 191 162
Width: 1032
Flags: W
LayerCount: 2
Fore
SplineSet
689 702 m 1,0,1
 691 672 691 672 694 642 c 0,2,3
 696 616 696 616 697.5 588 c 128,-1,4
 699 560 699 560 699 540 c 0,5,6
 699 479 699 479 670.5 428 c 128,-1,7
 642 377 642 377 599.5 331 c 128,-1,8
 557 285 557 285 507 241.5 c 128,-1,9
 457 198 457 198 414.5 152 c 128,-1,10
 372 106 372 106 343.5 55.5 c 128,-1,11
 315 5 315 5 315 -55 c 0,12,13
 315 -112 315 -112 339 -152 c 128,-1,14
 363 -192 363 -192 403 -217.5 c 128,-1,15
 443 -243 443 -243 494.5 -254.5 c 128,-1,16
 546 -266 546 -266 601 -266 c 0,17,18
 670 -266 670 -266 736 -248.5 c 128,-1,19
 802 -231 802 -231 862 -197 c 1,20,-1
 862 -343 l 1,21,22
 790 -378 790 -378 717 -393 c 128,-1,23
 644 -408 644 -408 581 -408 c 0,24,25
 489 -408 489 -408 409.5 -386.5 c 128,-1,26
 330 -365 330 -365 271.5 -322 c 128,-1,27
 213 -279 213 -279 179.5 -214.5 c 128,-1,28
 146 -150 146 -150 146 -63 c 0,29,30
 146 0 146 0 175.5 57.5 c 128,-1,31
 205 115 205 115 249 168.5 c 128,-1,32
 293 222 293 222 344 271.5 c 128,-1,33
 395 321 395 321 439 368.5 c 128,-1,34
 483 416 483 416 512.5 463 c 128,-1,35
 542 510 542 510 542 557 c 0,36,37
 542 580 542 580 539 605 c 128,-1,38
 536 630 536 630 533 652 c 0,39,40
 529 678 529 678 525 702 c 1,41,-1
 689 702 l 1,0,1
499 1081 m 1,42,-1
 716 1081 l 1,43,-1
 716 871 l 1,44,-1
 499 871 l 1,45,-1
 499 1081 l 1,42,-1
EndSplineSet
EndChar

StartChar: exclamdown
Encoding: 161 161 164
Width: 737
Flags: W
LayerCount: 2
Fore
SplineSet
260 1090 m 1,0,-1
 474 1090 l 1,1,-1
 474 884 l 1,2,-1
 260 884 l 1,3,-1
 260 1090 l 1,0,-1
466 -384 m 1,4,-1
 271 -384 l 1,5,-1
 311 694 l 1,6,-1
 426 694 l 1,7,-1
 466 -384 l 1,4,-1
EndSplineSet
EndChar

StartChar: logicalnot
Encoding: 172 172 165
Width: 1458
Flags: W
LayerCount: 2
Fore
SplineSet
1098 238 m 1,0,-1
 1098 659 l 1,1,-1
 200 659 l 1,2,-1
 200 798 l 1,3,-1
 1248 798 l 1,4,-1
 1248 238 l 1,5,-1
 1098 238 l 1,0,-1
EndSplineSet
EndChar

StartChar: radical
Encoding: 8730 8730 166
Width: 1314
Flags: W
LayerCount: 2
Fore
SplineSet
1212 1596 m 1,0,-1
 746 -153 l 1,1,-1
 611 -153 l 1,2,-1
 279 690 l 1,3,-1
 107 662 l 1,4,-1
 87 774 l 1,5,-1
 382 825 l 1,6,-1
 611 214 l 1,7,-1
 669 41 l 1,8,-1
 709 217 l 1,9,-1
 1082 1596 l 1,10,-1
 1212 1596 l 1,0,-1
EndSplineSet
EndChar

StartChar: florin
Encoding: 402 402 167
Width: 1190
Flags: W
LayerCount: 2
Fore
SplineSet
332 803 m 1,0,-1
 342 943 l 1,1,-1
 511 943 l 1,2,3
 517 999 517 999 525 1057.5 c 128,-1,4
 533 1116 533 1116 547.5 1170.5 c 128,-1,5
 562 1225 562 1225 585.5 1273.5 c 128,-1,6
 609 1322 609 1322 646 1358 c 128,-1,7
 683 1394 683 1394 736.5 1415 c 128,-1,8
 790 1436 790 1436 865 1436 c 0,9,10
 898 1436 898 1436 934.5 1431 c 128,-1,11
 971 1426 971 1426 1008 1417 c 1,12,-1
 1000 1272 l 1,13,14
 970 1284 970 1284 942 1289 c 128,-1,15
 914 1294 914 1294 891 1294 c 0,16,17
 847 1294 847 1294 817.5 1283.5 c 128,-1,18
 788 1273 788 1273 768 1253.5 c 128,-1,19
 748 1234 748 1234 736.5 1205 c 128,-1,20
 725 1176 725 1176 718 1139 c 2,21,-1
 682 943 l 1,22,-1
 882 943 l 1,23,-1
 872 803 l 1,24,-1
 659 803 l 1,25,-1
 532 120 l 2,26,27
 515 31 515 31 492 -51 c 128,-1,28
 469 -133 469 -133 429.5 -195.5 c 128,-1,29
 390 -258 390 -258 329.5 -295 c 128,-1,30
 269 -332 269 -332 177 -332 c 0,31,32
 133 -332 133 -332 73 -316 c 1,33,-1
 85 -178 l 1,34,35
 129 -194 129 -194 163 -194 c 0,36,37
 200 -194 200 -194 227.5 -178 c 128,-1,38
 255 -162 255 -162 275 -134.5 c 128,-1,39
 295 -107 295 -107 309.5 -70.5 c 128,-1,40
 324 -34 324 -34 334 7 c 0,41,42
 358 103 358 103 377.5 202.5 c 128,-1,43
 397 302 397 302 415 402.5 c 128,-1,44
 433 503 433 503 450.5 604 c 128,-1,45
 468 705 468 705 487 803 c 1,46,-1
 332 803 l 1,0,-1
EndSplineSet
EndChar

StartChar: approxequal
Encoding: 8776 8776 168
Width: 1351
Flags: W
LayerCount: 2
Fore
SplineSet
1187 518 m 1,0,1
 1174 461 1174 461 1150.5 413.5 c 128,-1,2
 1127 366 1127 366 1091 332.5 c 128,-1,3
 1055 299 1055 299 1007 280.5 c 128,-1,4
 959 262 959 262 898 262 c 0,5,6
 838 262 838 262 775.5 286.5 c 128,-1,7
 713 311 713 311 631 359 c 0,8,9
 580 388 580 388 535.5 407 c 128,-1,10
 491 426 491 426 449 426 c 0,11,12
 376 426 376 426 333 381 c 128,-1,13
 290 336 290 336 268 261 c 1,14,-1
 154 289 l 1,15,16
 183 409 183 409 260 477.5 c 128,-1,17
 337 546 337 546 452 546 c 0,18,19
 497 546 497 546 539.5 533.5 c 128,-1,20
 582 521 582 521 623 503 c 128,-1,21
 664 485 664 485 702 463 c 128,-1,22
 740 441 740 441 775 423 c 128,-1,23
 810 405 810 405 842.5 392.5 c 128,-1,24
 875 380 875 380 904 380 c 0,25,26
 967 380 967 380 1007.5 423.5 c 128,-1,27
 1048 467 1048 467 1077 546 c 1,28,-1
 1187 518 l 1,0,1
1185 890 m 1,29,30
 1173 832 1173 832 1149 785 c 128,-1,31
 1125 738 1125 738 1089 704.5 c 128,-1,32
 1053 671 1053 671 1005 652.5 c 128,-1,33
 957 634 957 634 896 634 c 0,34,35
 864 634 864 634 833.5 640 c 128,-1,36
 803 646 803 646 771 658.5 c 128,-1,37
 739 671 739 671 703.5 689 c 128,-1,38
 668 707 668 707 627 731 c 0,39,40
 576 760 576 760 532 779.5 c 128,-1,41
 488 799 488 799 446 799 c 0,42,43
 374 799 374 799 331.5 754 c 128,-1,44
 289 709 289 709 267 634 c 1,45,-1
 152 661 l 1,46,47
 179 780 179 780 256.5 848.5 c 128,-1,48
 334 917 334 917 450 917 c 0,49,50
 514 917 514 917 572.5 893.5 c 128,-1,51
 631 870 631 870 700 830 c 0,52,53
 766 791 766 791 814.5 771.5 c 128,-1,54
 863 752 863 752 902 752 c 0,55,56
 965 752 965 752 1006 794.5 c 128,-1,57
 1047 837 1047 837 1075 918 c 1,58,-1
 1185 890 l 1,29,30
EndSplineSet
EndChar

StartChar: guillemotleft
Encoding: 171 171 169
Width: 1156
Flags: W
LayerCount: 2
Fore
SplineSet
521 914 m 1,0,-1
 681 914 l 1,1,-1
 416 541 l 1,2,-1
 672 171 l 1,3,-1
 515 171 l 1,4,-1
 246 541 l 1,5,-1
 521 914 l 1,0,-1
890 914 m 1,6,-1
 1049 914 l 1,7,-1
 786 541 l 1,8,-1
 1042 171 l 1,9,-1
 885 171 l 1,10,-1
 616 541 l 1,11,-1
 890 914 l 1,6,-1
EndSplineSet
EndChar

StartChar: guillemotright
Encoding: 187 187 170
Width: 1156
Flags: W
LayerCount: 2
Fore
SplineSet
720 171 m 1,0,-1
 563 171 l 1,1,-1
 824 542 l 1,2,-1
 570 914 l 1,3,-1
 726 914 l 1,4,-1
 996 542 l 1,5,-1
 720 171 l 1,0,-1
325 171 m 1,6,-1
 165 171 l 1,7,-1
 430 542 l 1,8,-1
 172 914 l 1,9,-1
 330 914 l 1,10,-1
 600 542 l 1,11,-1
 325 171 l 1,6,-1
EndSplineSet
EndChar

StartChar: ellipsis
Encoding: 8230 8230 171
Width: 1620
Flags: W
LayerCount: 2
Fore
SplineSet
376 -11 m 1,0,-1
 159 -11 l 1,1,-1
 159 199 l 1,2,-1
 376 199 l 1,3,-1
 376 -11 l 1,0,-1
916 -11 m 1,4,-1
 699 -11 l 1,5,-1
 699 199 l 1,6,-1
 916 199 l 1,7,-1
 916 -11 l 1,4,-1
1456 -11 m 1,8,-1
 1239 -11 l 1,9,-1
 1239 199 l 1,10,-1
 1456 199 l 1,11,-1
 1456 -11 l 1,8,-1
EndSplineSet
EndChar

StartChar: OE
Encoding: 338 338 175
Width: 2099
Flags: W
LayerCount: 2
Fore
SplineSet
1984 0 m 1,0,-1
 1151 0 l 1,1,-1
 1151 105 l 1,2,3
 1081 43 1081 43 1000.5 10 c 128,-1,4
 920 -23 920 -23 829 -23 c 0,5,6
 662 -23 662 -23 529.5 30 c 128,-1,7
 397 83 397 83 304.5 181 c 128,-1,8
 212 279 212 279 163 418 c 128,-1,9
 114 557 114 557 114 729 c 0,10,11
 114 893 114 893 163 1031 c 128,-1,12
 212 1169 212 1169 305 1269.5 c 128,-1,13
 398 1370 398 1370 532 1426.5 c 128,-1,14
 666 1483 666 1483 837 1483 c 0,15,16
 925 1483 925 1483 1003.5 1456.5 c 128,-1,17
 1082 1430 1082 1430 1151 1381 c 1,18,-1
 1151 1456 l 1,19,-1
 1954 1456 l 1,20,-1
 1954 1308 l 1,21,-1
 1323 1308 l 1,22,-1
 1323 820 l 1,23,-1
 1916 820 l 1,24,-1
 1916 672 l 1,25,-1
 1323 672 l 1,26,-1
 1323 148 l 1,27,-1
 1984 148 l 1,28,-1
 1984 0 l 1,0,-1
827 125 m 0,29,30
 927 125 927 125 1007.5 162 c 128,-1,31
 1088 199 1088 199 1151 265 c 1,32,-1
 1151 1219 l 1,33,34
 1089 1274 1089 1274 1009.5 1304.5 c 128,-1,35
 930 1335 930 1335 830 1335 c 0,36,37
 699 1335 699 1335 600 1285 c 128,-1,38
 501 1235 501 1235 433.5 1151 c 128,-1,39
 366 1067 366 1067 332 956.5 c 128,-1,40
 298 846 298 846 298 725 c 0,41,42
 298 599 298 599 331.5 489.5 c 128,-1,43
 365 380 365 380 431.5 299 c 128,-1,44
 498 218 498 218 597 171.5 c 128,-1,45
 696 125 696 125 827 125 c 0,29,30
EndSplineSet
EndChar

StartChar: oe
Encoding: 339 339 176
Width: 1970
Flags: W
LayerCount: 2
Fore
SplineSet
1113 470 m 1,0,1
 1113 393 1113 393 1132 327 c 128,-1,2
 1151 261 1151 261 1189.5 212.5 c 128,-1,3
 1228 164 1228 164 1285.5 136.5 c 128,-1,4
 1343 109 1343 109 1421 109 c 0,5,6
 1524 109 1524 109 1609.5 158.5 c 128,-1,7
 1695 208 1695 208 1748 292 c 1,8,-1
 1836 206 l 1,9,10
 1769 85 1769 85 1657.5 28.5 c 128,-1,11
 1546 -28 1546 -28 1410 -28 c 256,12,13
 1274 -28 1274 -28 1172.5 30.5 c 128,-1,14
 1071 89 1071 89 1022 209 c 1,15,-1
 1021 206 l 1,16,17
 997 145 997 145 956 100.5 c 128,-1,18
 915 56 915 56 861.5 27.5 c 128,-1,19
 808 -1 808 -1 744 -14.5 c 128,-1,20
 680 -28 680 -28 610 -28 c 0,21,22
 487 -28 487 -28 390.5 14 c 128,-1,23
 294 56 294 56 228 129 c 128,-1,24
 162 202 162 202 127 300 c 128,-1,25
 92 398 92 398 92 509 c 256,26,27
 92 620 92 620 127 719 c 128,-1,28
 162 818 162 818 229.5 892.5 c 128,-1,29
 297 967 297 967 395.5 1010 c 128,-1,30
 494 1053 494 1053 620 1053 c 0,31,32
 768 1053 768 1053 867.5 994.5 c 128,-1,33
 967 936 967 936 1027 821 c 1,34,35
 1082 936 1082 936 1180.5 994.5 c 128,-1,36
 1279 1053 1279 1053 1417 1053 c 0,37,38
 1527 1053 1527 1053 1611.5 1015 c 128,-1,39
 1696 977 1696 977 1753 908 c 128,-1,40
 1810 839 1810 839 1839 741.5 c 128,-1,41
 1868 644 1868 644 1868 525 c 2,42,-1
 1868 472 l 1,43,-1
 1113 470 l 1,0,1
1695 609 m 1,44,45
 1696 675 1696 675 1679 731.5 c 128,-1,46
 1662 788 1662 788 1628 829.5 c 128,-1,47
 1594 871 1594 871 1543 894 c 128,-1,48
 1492 917 1492 917 1423 917 c 256,49,50
 1354 917 1354 917 1298.5 891.5 c 128,-1,51
 1243 866 1243 866 1203 823.5 c 128,-1,52
 1163 781 1163 781 1140 725 c 128,-1,53
 1117 669 1117 669 1113 609 c 1,54,-1
 1695 609 l 1,44,45
945 511 m 0,55,56
 945 597 945 597 925.5 671.5 c 128,-1,57
 906 746 906 746 865.5 800.5 c 128,-1,58
 825 855 825 855 762 886 c 128,-1,59
 699 917 699 917 612 917 c 0,60,61
 527 917 527 917 462.5 883.5 c 128,-1,62
 398 850 398 850 354 793.5 c 128,-1,63
 310 737 310 737 287.5 663 c 128,-1,64
 265 589 265 589 265 507 c 0,65,66
 265 426 265 426 286.5 354 c 128,-1,67
 308 282 308 282 352 227.5 c 128,-1,68
 396 173 396 173 462.5 141 c 128,-1,69
 529 109 529 109 620 109 c 0,70,71
 704 109 704 109 765.5 142 c 128,-1,72
 827 175 827 175 867 230.5 c 128,-1,73
 907 286 907 286 926 358.5 c 128,-1,74
 945 431 945 431 945 511 c 0,55,56
EndSplineSet
EndChar

StartChar: endash
Encoding: 8211 8211 177
Width: 1085
Flags: W
LayerCount: 2
Fore
SplineSet
1084 489 m 1,0,-1
 -6 489 l 1,1,-1
 -6 626 l 1,2,-1
 1084 626 l 1,3,-1
 1084 489 l 1,0,-1
EndSplineSet
EndChar

StartChar: emdash
Encoding: 8212 8212 178
Width: 2171
Flags: W
LayerCount: 2
Fore
SplineSet
2160 489 m 1,0,-1
 -3 489 l 1,1,-1
 -3 626 l 1,2,-1
 2160 626 l 1,3,-1
 2160 489 l 1,0,-1
EndSplineSet
EndChar

StartChar: quotedblleft
Encoding: 8220 8220 179
Width: 1024
Flags: W
LayerCount: 2
Fore
SplineSet
361 1023 m 1,0,-1
 179 1023 l 1,1,-1
 333 1463 l 1,2,-1
 466 1463 l 1,3,-1
 361 1023 l 1,0,-1
711 1023 m 1,4,-1
 528 1023 l 1,5,-1
 682 1463 l 1,6,-1
 815 1463 l 1,7,-1
 711 1023 l 1,4,-1
EndSplineSet
EndChar

StartChar: quotedblright
Encoding: 8221 8221 180
Width: 1024
Flags: W
LayerCount: 2
Fore
SplineSet
312 1463 m 1,0,-1
 494 1463 l 1,1,-1
 341 1023 l 1,2,-1
 208 1023 l 1,3,-1
 312 1463 l 1,0,-1
639 1463 m 1,4,-1
 821 1463 l 1,5,-1
 667 1023 l 1,6,-1
 534 1023 l 1,7,-1
 639 1463 l 1,4,-1
EndSplineSet
EndChar

StartChar: quoteleft
Encoding: 8216 8216 181
Width: 553
Flags: W
LayerCount: 2
Fore
SplineSet
312 1023 m 1,0,-1
 130 1023 l 1,1,-1
 284 1463 l 1,2,-1
 416 1463 l 1,3,-1
 312 1023 l 1,0,-1
EndSplineSet
EndChar

StartChar: quoteright
Encoding: 8217 8217 182
Width: 553
Flags: W
LayerCount: 2
Fore
SplineSet
245 1463 m 1,0,-1
 426 1463 l 1,1,-1
 272 1023 l 1,2,-1
 140 1023 l 1,3,-1
 245 1463 l 1,0,-1
EndSplineSet
EndChar

StartChar: divide
Encoding: 247 247 183
Width: 1458
Flags: W
LayerCount: 2
Fore
SplineSet
200 485 m 1,0,-1
 198 624 l 1,1,-1
 1245 624 l 1,2,-1
 1246 485 l 1,3,-1
 200 485 l 1,0,-1
836 873 m 1,4,-1
 619 873 l 1,5,-1
 619 1083 l 1,6,-1
 836 1083 l 1,7,-1
 836 873 l 1,4,-1
836 21 m 1,8,-1
 619 21 l 1,9,-1
 619 231 l 1,10,-1
 836 231 l 1,11,-1
 836 21 l 1,8,-1
EndSplineSet
EndChar

StartChar: lozenge
Encoding: 9674 9674 184
Width: 1248
Flags: W
LayerCount: 2
Fore
SplineSet
680 214 m 1,0,-1
 979 711 l 1,1,-1
 686 1213 l 1,2,-1
 625 1324 l 1,3,-1
 560 1207 l 1,4,-1
 261 713 l 1,5,-1
 552 211 l 1,6,-1
 615 98 l 1,7,-1
 680 214 l 1,0,-1
1130 712 m 1,8,-1
 668 -45 l 1,9,-1
 562 -45 l 1,10,-1
 112 711 l 1,11,-1
 570 1470 l 1,12,-1
 677 1470 l 1,13,-1
 1130 712 l 1,8,-1
EndSplineSet
EndChar

StartChar: fraction
Encoding: 8260 8260 187
Width: 368
Flags: W
LayerCount: 2
Fore
SplineSet
717 1436 m 1,0,-1
 -186 0 l 1,1,-1
 -337 0 l 1,2,-1
 568 1436 l 1,3,-1
 717 1436 l 1,0,-1
EndSplineSet
EndChar

StartChar: Euro
Encoding: 8364 8364 188
Width: 1190
Flags: W
LayerCount: 2
Fore
SplineSet
98 654 m 1,0,-1
 200 654 l 1,1,2
 198 678 198 678 197.5 708.5 c 128,-1,3
 197 739 197 739 199 784 c 1,4,-1
 75 784 l 1,5,-1
 97 922 l 1,6,-1
 218 922 l 1,7,8
 239 1037 239 1037 285.5 1133.5 c 128,-1,9
 332 1230 332 1230 403 1300 c 128,-1,10
 474 1370 474 1370 569 1409 c 128,-1,11
 664 1448 664 1448 783 1448 c 0,12,13
 883 1448 883 1448 963 1419 c 128,-1,14
 1043 1390 1043 1390 1106 1330 c 1,15,-1
 1070 1141 l 1,16,17
 1016 1222 1016 1222 940 1262.5 c 128,-1,18
 864 1303 864 1303 776 1303 c 0,19,20
 695 1303 695 1303 632 1273 c 128,-1,21
 569 1243 569 1243 522 1191 c 128,-1,22
 475 1139 475 1139 443.5 1069.5 c 128,-1,23
 412 1000 412 1000 395 922 c 1,24,-1
 987 922 l 1,25,-1
 967 784 l 1,26,-1
 377 784 l 1,27,28
 374 750 374 750 375.5 717.5 c 128,-1,29
 377 685 377 685 378 656 c 1,30,-1
 378 654 l 1,31,-1
 953 654 l 1,32,-1
 934 516 l 1,33,-1
 392 516 l 1,34,35
 404 429 404 429 431 357.5 c 128,-1,36
 458 286 458 286 503.5 234 c 128,-1,37
 549 182 549 182 614 153.5 c 128,-1,38
 679 125 679 125 767 125 c 0,39,40
 842 125 842 125 921.5 156 c 128,-1,41
 1001 187 1001 187 1084 253 c 1,42,-1
 1083 75 l 1,43,44
 1008 24 1008 24 925 1.5 c 128,-1,45
 842 -21 842 -21 751 -21 c 0,46,47
 628 -21 628 -21 534.5 18 c 128,-1,48
 441 57 441 57 374.5 127.5 c 128,-1,49
 308 198 308 198 268 297 c 128,-1,50
 228 396 228 396 213 516 c 1,51,-1
 78 516 l 1,52,-1
 98 654 l 1,0,-1
EndSplineSet
EndChar

StartChar: guilsinglleft
Encoding: 8249 8249 189
Width: 642
Flags: W
LayerCount: 2
Fore
SplineSet
379 914 m 1,0,-1
 538 914 l 1,1,-1
 275 541 l 1,2,-1
 530 171 l 1,3,-1
 374 171 l 1,4,-1
 105 541 l 1,5,-1
 379 914 l 1,0,-1
EndSplineSet
EndChar

StartChar: guilsinglright
Encoding: 8250 8250 190
Width: 642
Flags: W
LayerCount: 2
Fore
SplineSet
260 171 m 1,0,-1
 103 171 l 1,1,-1
 365 542 l 1,2,-1
 111 914 l 1,3,-1
 266 914 l 1,4,-1
 537 542 l 1,5,-1
 260 171 l 1,0,-1
EndSplineSet
EndChar

StartChar: fi
Encoding: 64257 64257 191
Width: 1205
Flags: W
LayerCount: 2
Fore
SplineSet
411 0 m 1,0,-1
 246 0 l 1,1,-1
 246 919 l 1,2,-1
 46 919 l 1,3,-1
 45 1026 l 1,4,-1
 246 1026 l 1,5,-1
 248 1138 l 2,6,7
 249 1219 249 1219 264 1288 c 128,-1,8
 279 1357 279 1357 313 1407 c 128,-1,9
 347 1457 347 1457 403.5 1485.5 c 128,-1,10
 460 1514 460 1514 545 1514 c 0,11,12
 566 1514 566 1514 583 1512.5 c 128,-1,13
 600 1511 600 1511 615.5 1508 c 128,-1,14
 631 1505 631 1505 647 1501 c 128,-1,15
 663 1497 663 1497 681 1493 c 1,16,-1
 683 1364 l 1,17,18
 663 1372 663 1372 632.5 1375.5 c 128,-1,19
 602 1379 602 1379 573 1379 c 0,20,21
 522 1379 522 1379 490.5 1365 c 128,-1,22
 459 1351 459 1351 442 1323.5 c 128,-1,23
 425 1296 425 1296 418.5 1255.5 c 128,-1,24
 412 1215 412 1215 412 1162 c 2,25,-1
 411 1026 l 1,26,-1
 1034 1026 l 1,27,-1
 1034 0 l 1,28,-1
 869 0 l 1,29,-1
 869 919 l 1,30,-1
 411 919 l 1,31,-1
 411 0 l 1,0,-1
1030 1462 m 1,32,-1
 1030 1307 l 1,33,-1
 877 1307 l 1,34,-1
 877 1462 l 1,35,-1
 1030 1462 l 1,32,-1
EndSplineSet
EndChar

StartChar: daggerdbl
Encoding: 8225 8225 193
Width: 1022
Flags: W
LayerCount: 2
Fore
SplineSet
442 983 m 1,0,-1
 104 983 l 1,1,-1
 104 1115 l 1,2,-1
 448 1115 l 1,3,-1
 422 1451 l 1,4,-1
 593 1451 l 1,5,-1
 572 1115 l 1,6,-1
 916 1115 l 1,7,-1
 916 983 l 1,8,-1
 565 983 l 1,9,-1
 565 562 l 1,10,-1
 909 562 l 1,11,-1
 909 435 l 1,12,-1
 565 435 l 1,13,-1
 591 113 l 1,14,-1
 420 113 l 1,15,-1
 442 435 l 1,16,-1
 98 435 l 1,17,-1
 98 562 l 1,18,-1
 442 562 l 1,19,-1
 442 983 l 1,0,-1
EndSplineSet
EndChar

StartChar: periodcentered
Encoding: 183 183 194
Width: 444
Flags: W
LayerCount: 2
Fore
SplineSet
293 513 m 1,0,-1
 76 513 l 1,1,-1
 76 723 l 1,2,-1
 293 723 l 1,3,-1
 293 513 l 1,0,-1
EndSplineSet
EndChar

StartChar: quotesinglbase
Encoding: 8218 8218 195
Width: 553
Flags: W
LayerCount: 2
Fore
SplineSet
231 201 m 1,0,-1
 412 201 l 1,1,-1
 258 -238 l 1,2,-1
 125 -238 l 1,3,-1
 231 201 l 1,0,-1
EndSplineSet
EndChar

StartChar: quotedblbase
Encoding: 8222 8222 196
Width: 1024
Flags: W
LayerCount: 2
Fore
SplineSet
283 201 m 1,0,-1
 465 201 l 1,1,-1
 312 -238 l 1,2,-1
 178 -238 l 1,3,-1
 283 201 l 1,0,-1
641 201 m 1,4,-1
 824 201 l 1,5,-1
 670 -238 l 1,6,-1
 537 -238 l 1,7,-1
 641 201 l 1,4,-1
EndSplineSet
EndChar

StartChar: perthousand
Encoding: 8240 8240 197
Width: 2386
Flags: W
LayerCount: 2
Fore
SplineSet
1962 567 m 0,0,1
 1913 567 1913 567 1876.5 548 c 128,-1,2
 1840 529 1840 529 1816 496 c 128,-1,3
 1792 463 1792 463 1780 419.5 c 128,-1,4
 1768 376 1768 376 1768 328 c 0,5,6
 1768 277 1768 277 1780 233 c 128,-1,7
 1792 189 1792 189 1816.5 156 c 128,-1,8
 1841 123 1841 123 1877.5 104.5 c 128,-1,9
 1914 86 1914 86 1963 86 c 0,10,11
 2011 86 2011 86 2047.5 105.5 c 128,-1,12
 2084 125 2084 125 2108 158 c 128,-1,13
 2132 191 2132 191 2144 235 c 128,-1,14
 2156 279 2156 279 2156 327 c 0,15,16
 2156 377 2156 377 2144 421 c 128,-1,17
 2132 465 2132 465 2107.5 497.5 c 128,-1,18
 2083 530 2083 530 2046.5 548.5 c 128,-1,19
 2010 567 2010 567 1962 567 c 0,0,1
1959 -27 m 0,20,21
 1879 -27 1879 -27 1816.5 -1.5 c 128,-1,22
 1754 24 1754 24 1711 70.5 c 128,-1,23
 1668 117 1668 117 1645.5 182.5 c 128,-1,24
 1623 248 1623 248 1623 328 c 0,25,26
 1623 404 1623 404 1645.5 468.5 c 128,-1,27
 1668 533 1668 533 1711.5 580.5 c 128,-1,28
 1755 628 1755 628 1818.5 654.5 c 128,-1,29
 1882 681 1882 681 1964 681 c 0,30,31
 2045 681 2045 681 2107 656.5 c 128,-1,32
 2169 632 2169 632 2212 585.5 c 128,-1,33
 2255 539 2255 539 2277 473 c 128,-1,34
 2299 407 2299 407 2299 325 c 0,35,36
 2299 250 2299 250 2276 185.5 c 128,-1,37
 2253 121 2253 121 2209.5 73.5 c 128,-1,38
 2166 26 2166 26 2103 -0.5 c 128,-1,39
 2040 -27 2040 -27 1959 -27 c 0,20,21
410 740 m 0,40,41
 329 740 329 740 266.5 765.5 c 128,-1,42
 204 791 204 791 161 837.5 c 128,-1,43
 118 884 118 884 95.5 949.5 c 128,-1,44
 73 1015 73 1015 73 1095 c 0,45,46
 73 1171 73 1171 95.5 1235.5 c 128,-1,47
 118 1300 118 1300 161 1347 c 128,-1,48
 204 1394 204 1394 267.5 1420.5 c 128,-1,49
 331 1447 331 1447 412 1447 c 0,50,51
 494 1447 494 1447 557 1422 c 128,-1,52
 620 1397 620 1397 662.5 1351 c 128,-1,53
 705 1305 705 1305 727 1239.5 c 128,-1,54
 749 1174 749 1174 749 1092 c 0,55,56
 749 1017 749 1017 726 952.5 c 128,-1,57
 703 888 703 888 659.5 840.5 c 128,-1,58
 616 793 616 793 553 766.5 c 128,-1,59
 490 740 490 740 410 740 c 0,40,41
1172 -27 m 256,60,61
 1091 -27 1091 -27 1028.5 -1.5 c 128,-1,62
 966 24 966 24 923 70.5 c 128,-1,63
 880 117 880 117 857.5 182.5 c 128,-1,64
 835 248 835 248 835 328 c 0,65,66
 835 404 835 404 857.5 468.5 c 128,-1,67
 880 533 880 533 923.5 580.5 c 128,-1,68
 967 628 967 628 1030.5 654.5 c 128,-1,69
 1094 681 1094 681 1176 681 c 256,70,71
 1258 681 1258 681 1320.5 655.5 c 128,-1,72
 1383 630 1383 630 1425.5 583.5 c 128,-1,73
 1468 537 1468 537 1489.5 471.5 c 128,-1,74
 1511 406 1511 406 1511 325 c 0,75,76
 1511 250 1511 250 1488.5 185.5 c 128,-1,77
 1466 121 1466 121 1422.5 73.5 c 128,-1,78
 1379 26 1379 26 1316 -0.5 c 128,-1,79
 1253 -27 1253 -27 1172 -27 c 256,60,61
1174 567 m 256,80,81
 1125 567 1125 567 1088.5 548 c 128,-1,82
 1052 529 1052 529 1028 496 c 128,-1,83
 1004 463 1004 463 992 419.5 c 128,-1,84
 980 376 980 376 980 328 c 0,85,86
 980 277 980 277 992 233 c 128,-1,87
 1004 189 1004 189 1028.5 156 c 128,-1,88
 1053 123 1053 123 1089.5 104.5 c 128,-1,89
 1126 86 1126 86 1175 86 c 0,90,91
 1223 86 1223 86 1259 105.5 c 128,-1,92
 1295 125 1295 125 1319 158.5 c 128,-1,93
 1343 192 1343 192 1355 235.5 c 128,-1,94
 1367 279 1367 279 1367 327 c 0,95,96
 1367 378 1367 378 1355.5 421.5 c 128,-1,97
 1344 465 1344 465 1320 497.5 c 128,-1,98
 1296 530 1296 530 1259.5 548.5 c 128,-1,99
 1223 567 1223 567 1174 567 c 256,80,81
411 1335 m 0,100,101
 363 1335 363 1335 327 1316 c 128,-1,102
 291 1297 291 1297 267 1264 c 128,-1,103
 243 1231 243 1231 231 1187.5 c 128,-1,104
 219 1144 219 1144 219 1096 c 0,105,106
 219 1045 219 1045 231 1001 c 128,-1,107
 243 957 243 957 267 924 c 128,-1,108
 291 891 291 891 327.5 872 c 128,-1,109
 364 853 364 853 414 853 c 0,110,111
 462 853 462 853 497.5 872.5 c 128,-1,112
 533 892 533 892 556.5 925 c 128,-1,113
 580 958 580 958 592 1001.5 c 128,-1,114
 604 1045 604 1045 604 1093 c 0,115,116
 604 1144 604 1144 592 1188 c 128,-1,117
 580 1232 580 1232 556 1264.5 c 128,-1,118
 532 1297 532 1297 496 1316 c 128,-1,119
 460 1335 460 1335 411 1335 c 0,100,101
245 -21 m 1,120,-1
 1183 1436 l 1,121,-1
 1332 1436 l 1,122,-1
 398 -21 l 1,123,-1
 245 -21 l 1,120,-1
EndSplineSet
EndChar

StartChar: breve
Encoding: 728 728 213
Width: 629
Flags: W
LayerCount: 2
Fore
SplineSet
596 1454 m 1,0,1
 591 1395 591 1395 569 1350.5 c 128,-1,2
 547 1306 547 1306 510.5 1276.5 c 128,-1,3
 474 1247 474 1247 424.5 1232.5 c 128,-1,4
 375 1218 375 1218 316 1218 c 0,5,6
 191 1218 191 1218 116.5 1275.5 c 128,-1,7
 42 1333 42 1333 32 1454 c 1,8,-1
 119 1454 l 1,9,10
 125 1418 125 1418 143 1393.5 c 128,-1,11
 161 1369 161 1369 187 1353.5 c 128,-1,12
 213 1338 213 1338 244.5 1331.5 c 128,-1,13
 276 1325 276 1325 309 1325 c 256,14,15
 342 1325 342 1325 374.5 1332.5 c 128,-1,16
 407 1340 407 1340 434.5 1355.5 c 128,-1,17
 462 1371 462 1371 482 1395.5 c 128,-1,18
 502 1420 502 1420 510 1454 c 1,19,-1
 596 1454 l 1,0,1
EndSplineSet
EndChar

StartChar: dotaccent
Encoding: 729 729 214
Width: 524
Flags: W
LayerCount: 2
Fore
SplineSet
186 1246 m 1,0,-1
 184 1409 l 1,1,-1
 341 1409 l 1,2,-1
 344 1246 l 1,3,-1
 186 1246 l 1,0,-1
EndSplineSet
EndChar

StartChar: hungarumlaut
Encoding: 733 733 215
Width: 969
Flags: W
LayerCount: 2
Fore
SplineSet
429 1174 m 1,0,-1
 649 1487 l 1,1,-1
 825 1487 l 1,2,-1
 549 1174 l 1,3,-1
 429 1174 l 1,0,-1
162 1174 m 1,4,-1
 379 1487 l 1,5,-1
 555 1487 l 1,6,-1
 280 1174 l 1,7,-1
 162 1174 l 1,4,-1
EndSplineSet
EndChar

StartChar: ogonek
Encoding: 731 731 216
Width: 508
Flags: W
LayerCount: 2
Fore
SplineSet
289 -281 m 0,0,1
 312 -281 312 -281 331 -279 c 128,-1,2
 350 -277 350 -277 368 -273.5 c 128,-1,3
 386 -270 386 -270 404 -264 c 128,-1,4
 422 -258 422 -258 443 -250 c 1,5,-1
 443 -361 l 1,6,7
 428 -367 428 -367 407 -372.5 c 128,-1,8
 386 -378 386 -378 362 -381.5 c 128,-1,9
 338 -385 338 -385 313 -387.5 c 128,-1,10
 288 -390 288 -390 266 -390 c 0,11,12
 220 -390 220 -390 180.5 -379 c 128,-1,13
 141 -368 141 -368 111.5 -347 c 128,-1,14
 82 -326 82 -326 65 -295.5 c 128,-1,15
 48 -265 48 -265 48 -225 c 0,16,17
 48 -187 48 -187 66.5 -152.5 c 128,-1,18
 85 -118 85 -118 115 -88.5 c 128,-1,19
 145 -59 145 -59 183.5 -33.5 c 128,-1,20
 222 -8 222 -8 263 12 c 1,21,-1
 392 0 l 1,22,23
 348 -27 348 -27 311 -52.5 c 128,-1,24
 274 -78 274 -78 247 -102.5 c 128,-1,25
 220 -127 220 -127 204.5 -151 c 128,-1,26
 189 -175 189 -175 189 -199 c 0,27,28
 189 -218 189 -218 198 -233 c 128,-1,29
 207 -248 207 -248 221 -258.5 c 128,-1,30
 235 -269 235 -269 253 -275 c 128,-1,31
 271 -281 271 -281 289 -281 c 0,0,1
EndSplineSet
EndChar

StartChar: caron
Encoding: 711 711 217
Width: 699
Flags: W
LayerCount: 2
Fore
SplineSet
662 1493 m 1,0,-1
 424 1170 l 1,1,-1
 268 1170 l 1,2,-1
 29 1493 l 1,3,-1
 176 1493 l 1,4,-1
 340 1278 l 1,5,-1
 508 1493 l 1,6,-1
 662 1493 l 1,0,-1
EndSplineSet
EndChar

StartChar: uni00AF
Encoding: 175 175 218
Width: 850
Flags: W
LayerCount: 2
Fore
SplineSet
853 1380 m 1,0,-1
 -3 1380 l 1,1,-1
 -3 1510 l 1,2,-1
 853 1510 l 1,3,-1
 853 1380 l 1,0,-1
EndSplineSet
EndChar

StartChar: pi
Encoding: 960 960 219
Width: 1288
Flags: W
LayerCount: 2
Fore
SplineSet
1214 907 m 1,0,-1
 1010 907 l 1,1,-1
 1010 288 l 2,2,3
 1010 265 1010 265 1011.5 240.5 c 128,-1,4
 1013 216 1013 216 1022.5 195 c 128,-1,5
 1032 174 1032 174 1052 160.5 c 128,-1,6
 1072 147 1072 147 1108 147 c 0,7,8
 1142 147 1142 147 1188 160 c 1,9,10
 1187 145 1187 145 1186 130 c 128,-1,11
 1185 115 1185 115 1185 100 c 0,12,13
 1185 77 1185 77 1187.5 53.5 c 128,-1,14
 1190 30 1190 30 1198 6 c 1,15,16
 1159 -1 1159 -1 1124.5 -4.5 c 128,-1,17
 1090 -8 1090 -8 1061 -8 c 0,18,19
 1002 -8 1002 -8 962 8 c 128,-1,20
 922 24 922 24 897.5 58.5 c 128,-1,21
 873 93 873 93 862 147.5 c 128,-1,22
 851 202 851 202 851 279 c 2,23,-1
 851 907 l 1,24,-1
 480 907 l 1,25,26
 465 698 465 698 445 517 c 0,27,28
 436 440 436 440 425.5 361 c 128,-1,29
 415 282 415 282 402 212.5 c 128,-1,30
 389 143 389 143 373.5 87 c 128,-1,31
 358 31 358 31 341 0 c 1,32,-1
 172 0 l 1,33,34
 197 44 197 44 216.5 108.5 c 128,-1,35
 236 173 236 173 250.5 249.5 c 128,-1,36
 265 326 265 326 275.5 411 c 128,-1,37
 286 496 286 496 293 582 c 128,-1,38
 300 668 300 668 304.5 751 c 128,-1,39
 309 834 309 834 311 907 c 1,40,41
 221 905 221 905 155 890 c 128,-1,42
 89 875 89 875 34 846 c 1,43,-1
 17 977 l 1,44,45
 42 996 42 996 75 1008.5 c 128,-1,46
 108 1021 108 1021 150.5 1028 c 128,-1,47
 193 1035 193 1035 247 1037.5 c 128,-1,48
 301 1040 301 1040 369 1040 c 2,49,-1
 1214 1040 l 1,50,-1
 1214 907 l 1,0,-1
EndSplineSet
EndChar

StartChar: uni2206
Encoding: 8710 8710 220
Width: 1314
Flags: W
LayerCount: 2
Fore
SplineSet
1263 0 m 1,0,-1
 40 0 l 1,1,-1
 40 80 l 1,2,-1
 561 1429 l 1,3,-1
 743 1429 l 1,4,-1
 1263 80 l 1,5,-1
 1263 0 l 1,0,-1
1033 162 m 1,6,-1
 681 1111 l 1,7,-1
 647 1218 l 1,8,-1
 615 1111 l 1,9,-1
 269 162 l 1,10,-1
 1033 162 l 1,6,-1
EndSplineSet
EndChar

StartChar: mu
Encoding: 181 181 222
AltUni2: 0003bc.ffffffff.0
Width: 1217
Flags: W
LayerCount: 2
Fore
SplineSet
157 1026 m 1,0,-1
 322 1026 l 1,1,-1
 322 399 l 2,2,3
 322 256 322 256 383.5 182.5 c 128,-1,4
 445 109 445 109 578 109 c 0,5,6
 650 109 650 109 705.5 135 c 128,-1,7
 761 161 761 161 799.5 206 c 128,-1,8
 838 251 838 251 858 310.5 c 128,-1,9
 878 370 878 370 878 436 c 2,10,-1
 878 1026 l 1,11,-1
 1043 1026 l 1,12,-1
 1043 246 l 2,13,14
 1043 180 1043 180 1044.5 121.5 c 128,-1,15
 1046 63 1046 63 1051 0 c 1,16,-1
 881 0 l 1,17,-1
 878 135 l 1,18,19
 762 -23 762 -23 540 -23 c 0,20,21
 471 -23 471 -23 417.5 -8.5 c 128,-1,22
 364 6 364 6 322 31 c 1,23,-1
 322 -202 l 1,24,-1
 157 -202 l 1,25,-1
 157 1026 l 1,0,-1
EndSplineSet
EndChar

StartChar: Omega
Encoding: 937 937 223
Width: 1603
Flags: W
LayerCount: 2
Fore
SplineSet
93 138 m 1,0,-1
 435 137 l 1,1,2
 364 189 364 189 305 256.5 c 128,-1,3
 246 324 246 324 203.5 404.5 c 128,-1,4
 161 485 161 485 137.5 578.5 c 128,-1,5
 114 672 114 672 114 776 c 0,6,7
 114 930 114 930 166.5 1054 c 128,-1,8
 219 1178 219 1178 312 1266 c 128,-1,9
 405 1354 405 1354 532.5 1401.5 c 128,-1,10
 660 1449 660 1449 809 1449 c 0,11,12
 964 1449 964 1449 1088.5 1397 c 128,-1,13
 1213 1345 1213 1345 1300 1254.5 c 128,-1,14
 1387 1164 1387 1164 1434 1040 c 128,-1,15
 1481 916 1481 916 1481 772 c 0,16,17
 1481 665 1481 665 1453.5 571.5 c 128,-1,18
 1426 478 1426 478 1381 398 c 128,-1,19
 1336 318 1336 318 1277 252.5 c 128,-1,20
 1218 187 1218 187 1155 137 c 1,21,-1
 1483 138 l 1,22,-1
 1474 0 l 1,23,-1
 953 0 l 1,24,-1
 949 121 l 1,25,26
 1025 172 1025 172 1090 239.5 c 128,-1,27
 1155 307 1155 307 1202.5 387.5 c 128,-1,28
 1250 468 1250 468 1276.5 560.5 c 128,-1,29
 1303 653 1303 653 1303 754 c 0,30,31
 1303 865 1303 865 1271.5 965.5 c 128,-1,32
 1240 1066 1240 1066 1177.5 1142.5 c 128,-1,33
 1115 1219 1115 1219 1021.5 1264 c 128,-1,34
 928 1309 928 1309 804 1309 c 0,35,36
 691 1309 691 1309 597 1269 c 128,-1,37
 503 1229 503 1229 435.5 1156.5 c 128,-1,38
 368 1084 368 1084 330.5 982.5 c 128,-1,39
 293 881 293 881 293 759 c 0,40,41
 293 658 293 658 318.5 564.5 c 128,-1,42
 344 471 344 471 389.5 389.5 c 128,-1,43
 435 308 435 308 499.5 240 c 128,-1,44
 564 172 564 172 642 121 c 1,45,-1
 645 0 l 1,46,-1
 104 0 l 1,47,-1
 93 138 l 1,0,-1
EndSplineSet
EndChar

StartChar: Eth
Encoding: 208 208 224
Width: 1546
Flags: W
LayerCount: 2
Fore
SplineSet
193 658 m 1,0,-1
 0 658 l 1,1,-1
 -1 795 l 1,2,-1
 193 795 l 1,3,-1
 193 1456 l 1,4,-1
 508 1456 l 2,5,6
 638 1456 638 1456 757 1441 c 128,-1,7
 876 1426 876 1426 978.5 1392 c 128,-1,8
 1081 1358 1081 1358 1164.5 1302.5 c 128,-1,9
 1248 1247 1248 1247 1307 1165.5 c 128,-1,10
 1366 1084 1366 1084 1398 974.5 c 128,-1,11
 1430 865 1430 865 1430 724 c 0,12,13
 1430 558 1430 558 1374.5 424.5 c 128,-1,14
 1319 291 1319 291 1213.5 196.5 c 128,-1,15
 1108 102 1108 102 955.5 51 c 128,-1,16
 803 0 803 0 610 0 c 2,17,-1
 193 0 l 1,18,-1
 193 658 l 1,0,-1
365 658 m 1,19,-1
 365 148 l 1,20,-1
 626 148 l 2,21,22
 785 148 785 148 902 190.5 c 128,-1,23
 1019 233 1019 233 1096 309 c 128,-1,24
 1173 385 1173 385 1210.5 490.5 c 128,-1,25
 1248 596 1248 596 1248 721 c 0,26,27
 1248 885 1248 885 1202 997.5 c 128,-1,28
 1156 1110 1156 1110 1065.5 1179 c 128,-1,29
 975 1248 975 1248 840.5 1278 c 128,-1,30
 706 1308 706 1308 529 1308 c 2,31,-1
 365 1308 l 1,32,-1
 365 795 l 1,33,-1
 570 795 l 1,34,-1
 571 658 l 1,35,-1
 365 658 l 1,19,-1
EndSplineSet
EndChar

StartChar: multiply
Encoding: 215 215 225
Width: 1458
Flags: W
LayerCount: 2
Fore
SplineSet
825 554 m 1,0,-1
 1122 258 l 1,1,-1
 1018 154 l 1,2,-1
 722 450 l 1,3,-1
 425 154 l 1,4,-1
 322 257 l 1,5,-1
 618 554 l 1,6,-1
 322 851 l 1,7,-1
 425 954 l 1,8,-1
 722 657 l 1,9,-1
 1018 954 l 1,10,-1
 1122 850 l 1,11,-1
 825 554 l 1,0,-1
EndSplineSet
EndChar

StartChar: Lslash
Encoding: 321 321 228
Width: 1120
Flags: W
LayerCount: 2
Fore
SplineSet
1073 0 m 1,0,-1
 202 0 l 1,1,-1
 202 674 l 1,2,-1
 43 592 l 1,3,-1
 -20 713 l 1,4,-1
 202 828 l 1,5,-1
 202 1456 l 1,6,-1
 374 1456 l 1,7,-1
 374 918 l 1,8,-1
 649 1061 l 1,9,-1
 712 940 l 1,10,-1
 374 764 l 1,11,-1
 374 148 l 1,12,-1
 1071 148 l 1,13,-1
 1073 0 l 1,0,-1
EndSplineSet
EndChar

StartChar: lslash
Encoding: 322 322 229
Width: 503
Flags: W
LayerCount: 2
Fore
SplineSet
333 1492 m 1,0,-1
 333 903 l 1,1,-1
 488 984 l 1,2,-1
 551 863 l 1,3,-1
 333 749 l 1,4,-1
 333 0 l 1,5,-1
 168 0 l 1,6,-1
 168 664 l 1,7,-1
 29 592 l 1,8,-1
 -34 713 l 1,9,-1
 168 818 l 1,10,-1
 168 1492 l 1,11,-1
 333 1492 l 1,0,-1
EndSplineSet
EndChar

StartChar: eth
Encoding: 240 240 232
Width: 1190
Flags: W
LayerCount: 2
Fore
SplineSet
653 1490 m 1,0,1
 766 1446 766 1446 851 1363 c 128,-1,2
 936 1280 936 1280 993 1163 c 1,3,-1
 1190 1163 l 1,4,-1
 1190 1026 l 1,5,-1
 1045 1026 l 1,6,7
 1068 946 1068 946 1080.5 857.5 c 128,-1,8
 1093 769 1093 769 1093 672 c 0,9,10
 1093 504 1093 504 1059 374.5 c 128,-1,11
 1025 245 1025 245 959.5 156.5 c 128,-1,12
 894 68 894 68 798.5 22.5 c 128,-1,13
 703 -23 703 -23 581 -23 c 0,14,15
 468 -23 468 -23 376.5 13 c 128,-1,16
 285 49 285 49 221 112 c 128,-1,17
 157 175 157 175 122.5 261 c 128,-1,18
 88 347 88 347 88 446 c 256,19,20
 88 545 88 545 120 628 c 128,-1,21
 152 711 152 711 211.5 770.5 c 128,-1,22
 271 830 271 830 355.5 863.5 c 128,-1,23
 440 897 440 897 545 897 c 0,24,25
 670 897 670 897 765.5 855 c 128,-1,26
 861 813 861 813 918 723 c 1,27,-1
 918 725 l 2,28,29
 918 897 918 897 882 1026 c 1,30,-1
 620 1026 l 1,31,-1
 620 1163 l 1,32,-1
 826 1163 l 1,33,34
 783 1241 783 1241 721 1300 c 128,-1,35
 659 1359 659 1359 574 1406 c 1,36,-1
 653 1490 l 1,0,1
572 757 m 0,37,38
 493 757 493 757 435 733 c 128,-1,39
 377 709 377 709 339 666.5 c 128,-1,40
 301 624 301 624 282.5 566 c 128,-1,41
 264 508 264 508 264 441 c 0,42,43
 264 372 264 372 286 313 c 128,-1,44
 308 254 308 254 348.5 210.5 c 128,-1,45
 389 167 389 167 446 142.5 c 128,-1,46
 503 118 503 118 573 118 c 0,47,48
 660 118 660 118 722.5 151.5 c 128,-1,49
 785 185 785 185 825 239.5 c 128,-1,50
 865 294 865 294 883.5 362.5 c 128,-1,51
 902 431 902 431 902 501 c 0,52,53
 902 509 902 509 902 519 c 128,-1,54
 902 529 902 529 903 536 c 1,55,56
 886 585 886 585 854.5 625.5 c 128,-1,57
 823 666 823 666 780 695.5 c 128,-1,58
 737 725 737 725 684.5 741 c 128,-1,59
 632 757 632 757 572 757 c 0,37,38
EndSplineSet
EndChar

StartChar: thorn
Encoding: 254 254 235
Width: 1239
Flags: W
LayerCount: 2
Fore
SplineSet
323 -427 m 1,0,-1
 158 -427 l 1,1,-1
 158 1455 l 1,2,-1
 325 1455 l 1,3,-1
 325 882 l 1,4,5
 388 966 388 966 476 1008.5 c 128,-1,6
 564 1051 564 1051 668 1051 c 0,7,8
 789 1051 789 1051 877.5 1009 c 128,-1,9
 966 967 966 967 1024 895.5 c 128,-1,10
 1082 824 1082 824 1110.5 729 c 128,-1,11
 1139 634 1139 634 1139 527 c 0,12,13
 1139 419 1139 419 1109.5 319.5 c 128,-1,14
 1080 220 1080 220 1021.5 144 c 128,-1,15
 963 68 963 68 874.5 22.5 c 128,-1,16
 786 -23 786 -23 668 -23 c 0,17,18
 452 -23 452 -23 323 135 c 1,19,-1
 323 -427 l 1,0,-1
323 494 m 256,20,21
 323 411 323 411 344 340.5 c 128,-1,22
 365 270 365 270 405.5 218.5 c 128,-1,23
 446 167 446 167 506 138 c 128,-1,24
 566 109 566 109 644 109 c 0,25,26
 728 109 728 109 788.5 143 c 128,-1,27
 849 177 849 177 887.5 234 c 128,-1,28
 926 291 926 291 944.5 365.5 c 128,-1,29
 963 440 963 440 963 521 c 0,30,31
 963 597 963 597 947 668.5 c 128,-1,32
 931 740 931 740 894.5 795.5 c 128,-1,33
 858 851 858 851 798 884 c 128,-1,34
 738 917 738 917 650 917 c 0,35,36
 558 917 558 917 495.5 882 c 128,-1,37
 433 847 433 847 394.5 788.5 c 128,-1,38
 356 730 356 730 339.5 653.5 c 128,-1,39
 323 577 323 577 323 494 c 256,20,21
EndSplineSet
EndChar

StartChar: Thorn
Encoding: 222 222 236
Width: 1274
Flags: W
LayerCount: 2
Fore
SplineSet
375 0 m 1,0,-1
 203 0 l 1,1,-1
 203 1456 l 1,2,-1
 375 1456 l 1,3,-1
 375 1312 l 1,4,-1
 544 1312 l 2,5,6
 629 1312 629 1312 710.5 1304.5 c 128,-1,7
 792 1297 792 1297 865 1278.5 c 128,-1,8
 938 1260 938 1260 999.5 1228.5 c 128,-1,9
 1061 1197 1061 1197 1105.5 1148.5 c 128,-1,10
 1150 1100 1150 1100 1175 1033 c 128,-1,11
 1200 966 1200 966 1200 876 c 0,12,13
 1200 762 1200 762 1150.5 680 c 128,-1,14
 1101 598 1101 598 1017.5 545.5 c 128,-1,15
 934 493 934 493 825 468 c 128,-1,16
 716 443 716 443 597 443 c 2,17,-1
 375 443 l 1,18,-1
 375 0 l 1,0,-1
375 1164 m 1,19,-1
 375 592 l 1,20,-1
 636 592 l 2,21,22
 718 592 718 592 788 608.5 c 128,-1,23
 858 625 858 625 908.5 659.5 c 128,-1,24
 959 694 959 694 987.5 747 c 128,-1,25
 1016 800 1016 800 1016 874 c 0,26,27
 1016 961 1016 961 984.5 1017.5 c 128,-1,28
 953 1074 953 1074 896.5 1106.5 c 128,-1,29
 840 1139 840 1139 761.5 1151.5 c 128,-1,30
 683 1164 683 1164 588 1164 c 2,31,-1
 375 1164 l 1,19,-1
EndSplineSet
EndChar

StartChar: brokenbar
Encoding: 166 166 237
Width: 500
Flags: W
LayerCount: 2
Fore
SplineSet
168 -491 m 1,0,-1
 168 393 l 1,1,-1
 325 393 l 1,2,-1
 325 -491 l 1,3,-1
 168 -491 l 1,0,-1
168 677 m 1,4,-1
 168 1545 l 1,5,-1
 325 1545 l 1,6,-1
 325 677 l 1,7,-1
 168 677 l 1,4,-1
EndSplineSet
EndChar

StartChar: periodcentered
Encoding: 65537 -1 238
Width: 444
Flags: W
LayerCount: 2
Fore
SplineSet
293 513 m 1,0,-1
 76 513 l 1,1,-1
 76 723 l 1,2,-1
 293 723 l 1,3,-1
 293 513 l 1,0,-1
EndSplineSet
EndChar

StartChar: minus
Encoding: 8722 8722 239
Width: 1458
Flags: W
LayerCount: 2
Fore
SplineSet
1247 633 m 1,0,-1
 1247 496 l 1,1,-1
 198 496 l 1,2,-1
 198 633 l 1,3,-1
 1247 633 l 1,0,-1
EndSplineSet
EndChar

StartChar: uni030F
Encoding: 783 783 240
Width: 969
Flags: W
LayerCount: 2
Fore
SplineSet
438 1174 m 1,0,-1
 162 1487 l 1,1,-1
 338 1487 l 1,2,-1
 558 1174 l 1,3,-1
 438 1174 l 1,0,-1
707 1174 m 1,4,-1
 432 1487 l 1,5,-1
 608 1487 l 1,6,-1
 825 1174 l 1,7,-1
 707 1174 l 1,4,-1
EndSplineSet
EndChar

StartChar: uni0326
Encoding: 806 806 241
Width: 540
Flags: W
LayerCount: 2
Fore
SplineSet
185 -162 m 1,0,-1
 372 -162 l 1,1,-1
 209 -625 l 1,2,-1
 78 -625 l 1,3,-1
 185 -162 l 1,0,-1
EndSplineSet
EndChar

StartChar: uni0311
Encoding: 785 785 242
Width: 629
Flags: W
LayerCount: 2
Fore
SplineSet
510 1218 m 1,0,1
 502 1252 502 1252 482 1276.5 c 128,-1,2
 462 1301 462 1301 434.5 1316.5 c 128,-1,3
 407 1332 407 1332 374.5 1339.5 c 128,-1,4
 342 1347 342 1347 309 1347 c 256,5,6
 276 1347 276 1347 244.5 1340.5 c 128,-1,7
 213 1334 213 1334 187 1318.5 c 128,-1,8
 161 1303 161 1303 143 1278.5 c 128,-1,9
 125 1254 125 1254 119 1218 c 1,10,-1
 32 1218 l 1,11,12
 42 1339 42 1339 116.5 1396.5 c 128,-1,13
 191 1454 191 1454 316 1454 c 0,14,15
 375 1454 375 1454 424.5 1439.5 c 128,-1,16
 474 1425 474 1425 510.5 1395.5 c 128,-1,17
 547 1366 547 1366 569 1321.5 c 128,-1,18
 591 1277 591 1277 596 1218 c 1,19,-1
 510 1218 l 1,0,1
EndSplineSet
EndChar

StartChar: twosuperior
Encoding: 178 178 271
Width: 1190
Flags: W
LayerCount: 2
Fore
SplineSet
283 604 m 1,0,-1
 283 715 l 1,1,-1
 378 802 l 2,2,3
 433 853 433 853 490.5 908 c 128,-1,4
 548 963 548 963 595 1016.5 c 128,-1,5
 642 1070 642 1070 671.5 1119.5 c 128,-1,6
 701 1169 701 1169 701 1211 c 0,7,8
 701 1262 701 1262 664 1292.5 c 128,-1,9
 627 1323 627 1323 561 1323 c 0,10,11
 498 1323 498 1323 451.5 1288 c 128,-1,12
 405 1253 405 1253 376 1192 c 1,13,-1
 291 1270 l 1,14,15
 326 1351 326 1351 398.5 1395.5 c 128,-1,16
 471 1440 471 1440 567 1440 c 0,17,18
 623 1440 623 1440 671 1424 c 128,-1,19
 719 1408 719 1408 754.5 1378.5 c 128,-1,20
 790 1349 790 1349 810 1307 c 128,-1,21
 830 1265 830 1265 830 1213 c 0,22,23
 830 1148 830 1148 801.5 1088 c 128,-1,24
 773 1028 773 1028 724 968.5 c 128,-1,25
 675 909 675 909 608 848.5 c 128,-1,26
 541 788 541 788 465 722 c 1,27,-1
 829 722 l 1,28,-1
 829 604 l 1,29,-1
 283 604 l 1,0,-1
EndSplineSet
EndChar

StartChar: threesuperior
Encoding: 179 179 272
Width: 1190
Flags: W
LayerCount: 2
Fore
SplineSet
235 1340 m 1,0,1
 281 1385 281 1385 348 1413 c 128,-1,2
 415 1441 415 1441 487 1441 c 0,3,4
 539 1441 539 1441 588.5 1426 c 128,-1,5
 638 1411 638 1411 675.5 1382 c 128,-1,6
 713 1353 713 1353 736 1310.5 c 128,-1,7
 759 1268 759 1268 759 1213 c 0,8,9
 759 1154 759 1154 731.5 1107 c 128,-1,10
 704 1060 704 1060 652 1032 c 1,11,12
 712 1005 712 1005 746 955.5 c 128,-1,13
 780 906 780 906 780 834 c 0,14,15
 780 777 780 777 756 731 c 128,-1,16
 732 685 732 685 691 652.5 c 128,-1,17
 650 620 650 620 595.5 603 c 128,-1,18
 541 586 541 586 481 586 c 0,19,20
 409 586 409 586 346 610.5 c 128,-1,21
 283 635 283 635 235 683 c 1,22,-1
 295 779 l 1,23,24
 379 701 379 701 476 701 c 0,25,26
 512 701 512 701 544 710 c 128,-1,27
 576 719 576 719 599.5 736.5 c 128,-1,28
 623 754 623 754 637 779.5 c 128,-1,29
 651 805 651 805 651 837 c 0,30,31
 651 874 651 874 636 899.5 c 128,-1,32
 621 925 621 925 593 941 c 128,-1,33
 565 957 565 957 525 964 c 128,-1,34
 485 971 485 971 436 971 c 0,35,36
 432 971 432 971 428 970.5 c 128,-1,37
 424 970 424 970 421 970 c 2,38,-1
 380 970 l 1,39,-1
 380 1089 l 1,40,-1
 429 1089 l 2,41,42
 472 1089 472 1089 508 1095 c 128,-1,43
 544 1101 544 1101 570.5 1115.5 c 128,-1,44
 597 1130 597 1130 611.5 1153 c 128,-1,45
 626 1176 626 1176 626 1210 c 0,46,47
 626 1239 626 1239 615.5 1260.5 c 128,-1,48
 605 1282 605 1282 586 1295.5 c 128,-1,49
 567 1309 567 1309 541.5 1315.5 c 128,-1,50
 516 1322 516 1322 485 1322 c 0,51,52
 431 1322 431 1322 383.5 1300.5 c 128,-1,53
 336 1279 336 1279 293 1244 c 1,54,-1
 235 1340 l 1,0,1
EndSplineSet
EndChar

StartChar: onesuperior
Encoding: 185 185 273
Width: 1190
Flags: W
LayerCount: 2
Fore
SplineSet
240 1333 m 1,0,1
 293 1350 293 1350 333 1370.5 c 128,-1,2
 373 1391 373 1391 408 1412 c 1,3,-1
 513 1427 l 1,4,-1
 513 720 l 1,5,-1
 635 720 l 1,6,-1
 635 604 l 1,7,-1
 270 604 l 1,8,-1
 270 723 l 1,9,-1
 392 723 l 1,10,-1
 392 1069 l 2,11,12
 392 1102 392 1102 391.5 1134.5 c 128,-1,13
 391 1167 391 1167 391 1200 c 2,14,-1
 391 1271 l 1,15,16
 359 1254 359 1254 319 1236 c 128,-1,17
 279 1218 279 1218 239 1203 c 1,18,-1
 240 1333 l 1,0,1
EndSplineSet
EndChar

StartChar: foursuperior
Encoding: 8308 8308 274
Width: 897
Flags: W
LayerCount: 2
Fore
SplineSet
356 615 m 1,0,-1
 356 803 l 1,1,-1
 -22 803 l 1,2,-1
 -22 894 l 1,3,-1
 344 1412 l 1,4,-1
 478 1412 l 1,5,-1
 478 910 l 1,6,-1
 587 910 l 1,7,-1
 597 803 l 1,8,-1
 476 803 l 1,9,-1
 476 615 l 1,10,-1
 356 615 l 1,0,-1
354 910 m 1,11,-1
 354 1090 l 1,12,-1
 357 1246 l 1,13,-1
 117 910 l 1,14,-1
 354 910 l 1,11,-1
EndSplineSet
EndChar

StartChar: currency
Encoding: 164 164 278
Width: 1246
Flags: W
LayerCount: 2
Fore
SplineSet
587 1051 m 0,0,1
 648 1051 648 1051 711 1034 c 1,2,-1
 825 1301 l 1,3,-1
 866 1285 l 1,4,-1
 751 1018 l 1,5,6
 849 972 849 972 895 886 c 128,-1,7
 941 800 941 800 941 688 c 0,8,9
 941 634 941 634 929.5 582.5 c 128,-1,10
 918 531 918 531 896.5 485 c 128,-1,11
 875 439 875 439 842.5 401 c 128,-1,12
 810 363 810 363 768 336 c 1,13,-1
 906 56 l 1,14,-1
 871 40 l 1,15,-1
 734 316 l 1,16,17
 691 296 691 296 645 285 c 128,-1,18
 599 274 599 274 545 274 c 0,19,20
 479 274 479 274 436 287 c 1,21,-1
 329 40 l 1,22,-1
 292 56 l 1,23,-1
 397 301 l 1,24,25
 296 341 296 341 243 430 c 128,-1,26
 190 519 190 519 190 635 c 0,27,28
 190 695 190 695 203 751 c 128,-1,29
 216 807 216 807 241 855.5 c 128,-1,30
 266 904 266 904 303.5 942.5 c 128,-1,31
 341 981 341 981 391 1006 c 1,32,-1
 252 1285 l 1,33,-1
 293 1301 l 1,34,-1
 430 1023 l 1,35,36
 496 1051 496 1051 587 1051 c 0,0,1
847 660 m 1,37,-1
 847 683 l 2,38,39
 847 744 847 744 831 797.5 c 128,-1,40
 815 851 815 851 782 891.5 c 128,-1,41
 749 932 749 932 698.5 955.5 c 128,-1,42
 648 979 648 979 578 979 c 0,43,44
 506 979 506 979 451 950.5 c 128,-1,45
 396 922 396 922 358.5 874.5 c 128,-1,46
 321 827 321 827 302 766 c 128,-1,47
 283 705 283 705 283 639 c 0,48,49
 283 579 283 579 300 526 c 128,-1,50
 317 473 317 473 351 432.5 c 128,-1,51
 385 392 385 392 435.5 368.5 c 128,-1,52
 486 345 486 345 554 345 c 0,53,54
 624 345 624 345 677 371 c 128,-1,55
 730 397 730 397 767 440.5 c 128,-1,56
 804 484 804 484 824 541 c 128,-1,57
 844 598 844 598 847 660 c 1,37,-1
EndSplineSet
EndChar
